{"glyphs":{"0":{"ha":917,"x_min":76,"x_max":840,"o":"m 458 -11 q 198 25 275 -11 q 99 156 121 61 q 76 478 76 251 q 99 799 76 704 q 198 931 121 894 q 458 967 275 967 q 719 931 642 967 q 818 799 796 894 q 840 478 840 704 q 818 156 840 251 q 719 25 796 61 q 458 -11 642 -11 m 458 181 q 559 195 533 181 q 592 264 585 210 q 599 478 599 318 q 592 692 599 638 q 559 760 585 746 q 458 775 533 775 q 358 760 383 775 q 325 692 332 746 q 318 478 318 638 q 325 264 318 318 q 358 195 332 210 q 458 181 383 181 z "},"1":{"ha":546,"x_min":24,"x_max":443,"o":"m 201 0 l 201 704 l 24 631 l 24 826 l 278 956 l 443 956 l 443 0 l 201 0 z "},"2":{"ha":847,"x_min":74,"x_max":771,"o":"m 306 194 l 771 194 l 771 0 l 74 0 l 74 133 q 83 314 74 253 q 124 417 92 375 q 229 489 157 458 l 439 574 q 499 603 481 590 q 523 633 517 615 q 529 686 529 650 q 515 745 529 726 q 468 769 501 764 q 364 775 435 775 q 93 754 257 775 l 93 935 q 256 958 161 949 q 429 967 351 967 q 610 948 538 967 q 726 870 682 929 q 771 700 771 811 q 732 512 771 574 q 611 418 693 450 l 497 374 l 374 325 q 319 292 332 310 q 308 262 311 279 q 306 215 306 244 l 306 194 z "},"3":{"ha":840,"x_min":69,"x_max":764,"o":"m 376 -11 q 221 -2 308 -11 q 69 19 133 7 l 69 197 q 354 181 239 181 q 458 186 426 181 q 506 213 490 192 q 521 281 521 233 q 510 349 521 326 q 472 381 499 372 q 393 389 444 389 l 233 389 l 233 578 l 393 578 q 465 585 440 578 q 501 613 490 592 q 513 676 513 635 q 499 744 513 724 q 451 769 485 764 q 340 775 418 775 q 206 769 282 775 q 75 757 131 764 l 75 936 q 222 958 136 950 q 378 967 308 967 q 603 938 519 967 q 721 855 686 910 q 756 715 756 800 q 715 562 756 614 q 590 490 675 510 l 590 485 q 722 415 681 464 q 764 256 764 367 q 732 110 764 168 q 615 21 700 53 q 376 -11 529 -11 z "},"4":{"ha":899,"x_min":47,"x_max":857,"o":"m 500 0 l 500 189 l 47 189 l 47 360 l 372 956 l 633 956 l 300 381 l 507 381 l 576 604 l 739 604 l 739 381 l 857 381 l 857 189 l 739 189 l 739 0 l 500 0 z "},"5":{"ha":864,"x_min":96,"x_max":792,"o":"m 96 197 q 376 181 260 181 q 486 190 451 181 q 534 222 521 199 q 547 297 547 246 q 533 374 547 350 q 484 405 519 397 q 371 413 449 413 q 107 397 236 413 l 107 956 l 721 956 l 721 761 l 317 761 l 317 592 q 492 601 401 601 q 674 569 608 601 q 766 474 740 536 q 792 314 792 411 q 760 126 792 194 q 644 23 728 57 q 404 -11 560 -11 q 249 -3 336 -11 q 96 18 163 6 l 96 197 z "},"6":{"ha":918,"x_min":76,"x_max":847,"o":"m 476 -11 q 303 -1 369 -11 q 190 40 236 10 q 117 129 144 71 q 86 258 96 174 q 76 475 76 343 q 85 665 76 588 q 115 796 94 743 q 238 928 153 890 q 486 967 324 967 q 631 958 544 967 q 793 936 718 950 l 793 757 q 532 775 628 775 q 390 758 433 775 q 332 693 346 740 q 318 536 318 646 l 326 536 q 539 603 385 603 q 715 580 649 603 q 814 496 781 557 q 847 319 847 435 q 817 124 847 193 q 708 22 788 54 q 476 -11 628 -11 m 465 178 q 563 185 532 178 q 605 215 593 192 q 617 293 617 239 q 605 374 617 349 q 563 406 593 399 q 465 414 533 414 q 369 403 400 414 q 330 372 339 393 q 321 310 321 351 q 334 219 321 246 q 375 185 347 192 q 465 178 403 178 z "},"7":{"ha":792,"x_min":46,"x_max":743,"o":"m 139 0 l 488 761 l 46 761 l 46 956 l 743 956 l 743 779 l 404 0 l 139 0 z "},"8":{"ha":942,"x_min":75,"x_max":865,"o":"m 471 -11 q 227 20 314 -11 q 108 109 140 51 q 75 256 75 167 q 94 378 75 332 q 151 447 114 424 q 247 485 188 471 l 247 490 q 123 562 163 510 q 83 715 83 614 q 119 856 83 801 q 239 938 154 910 q 471 967 324 967 q 701 938 617 967 q 822 856 786 910 q 857 715 857 801 q 817 562 857 614 q 693 490 778 510 l 693 485 q 791 447 754 471 q 847 378 828 424 q 865 256 865 333 q 833 109 865 167 q 714 20 800 51 q 471 -11 628 -11 m 471 568 q 565 575 536 568 q 606 603 594 582 q 617 674 617 625 q 606 744 617 722 q 566 774 596 767 q 471 782 536 782 q 375 774 404 782 q 335 745 346 767 q 325 674 325 724 q 335 603 325 625 q 375 575 346 582 q 471 568 404 568 m 471 174 q 568 181 538 174 q 611 210 599 188 q 624 283 624 233 q 612 359 624 336 q 569 390 600 382 q 471 397 539 397 q 372 390 403 397 q 329 359 342 382 q 317 283 317 336 q 329 210 317 233 q 373 181 342 188 q 471 174 404 174 z "},"9":{"ha":918,"x_min":71,"x_max":843,"o":"m 432 -11 q 288 -2 374 -11 q 126 19 203 7 l 126 199 q 388 181 292 181 q 530 198 486 181 q 588 263 574 215 q 601 419 601 310 l 593 419 q 379 353 531 353 q 203 376 269 353 q 104 460 138 399 q 71 636 71 521 q 101 832 71 763 q 211 934 132 901 q 443 967 290 967 q 630 954 560 967 q 744 907 700 942 q 810 803 788 872 q 835 669 828 747 q 843 481 843 592 q 831 269 843 354 q 790 133 818 185 q 666 22 750 54 q 432 -11 582 -11 m 453 542 q 549 552 518 542 q 588 583 579 563 q 597 646 597 604 q 584 737 597 710 q 543 771 571 764 q 453 778 515 778 q 356 771 386 778 q 315 740 326 764 q 303 663 303 717 q 315 582 303 607 q 356 549 326 557 q 453 542 386 542 z "},"\u0000":{"ha":0,"x_min":0,"x_max":0,"o":""},"\r":{"ha":350,"x_min":0,"x_max":0,"o":""}," ":{"ha":350,"x_min":0,"x_max":0,"o":""},"A":{"ha":961,"x_min":11,"x_max":950,"o":"m 704 0 l 647 181 l 307 181 l 253 0 l 11 0 l 317 956 l 644 956 l 950 0 l 704 0 m 479 742 l 472 742 l 363 376 l 590 376 l 479 742 z "},"Á":{"ha":954,"x_min":11,"x_max":950,"o":"m 704 0 l 647 181 l 307 181 l 253 0 l 11 0 l 317 956 l 644 956 l 950 0 l 704 0 m 479 742 l 472 742 l 363 376 l 590 376 l 479 742 m 353 1042 l 353 1049 l 479 1244 l 694 1244 l 694 1238 l 511 1042 l 353 1042 z "},"Ă":{"ha":961,"x_min":11,"x_max":950,"o":"m 704 0 l 647 181 l 307 181 l 253 0 l 11 0 l 317 956 l 644 956 l 950 0 l 704 0 m 479 742 l 472 742 l 363 376 l 590 376 l 479 742 m 693 1233 q 678 1120 693 1164 q 616 1051 663 1076 q 481 1025 569 1025 q 346 1051 392 1025 q 285 1120 300 1076 q 271 1233 271 1164 l 393 1233 q 397 1185 393 1201 q 420 1158 401 1168 q 481 1147 439 1147 q 541 1158 522 1147 q 565 1185 560 1168 q 569 1233 569 1201 l 693 1233 z "},"Ắ":{"ha":961,"x_min":11,"x_max":950,"o":"m 704 0 l 647 181 l 307 181 l 253 0 l 11 0 l 317 956 l 644 956 l 950 0 l 704 0 m 479 742 l 472 742 l 363 376 l 590 376 l 479 742 m 692 1233 q 676 1120 692 1164 q 615 1051 661 1076 q 479 1025 568 1025 q 344 1051 390 1025 q 284 1120 299 1076 q 269 1233 269 1164 l 392 1233 q 396 1185 392 1201 q 419 1158 400 1168 q 479 1147 438 1147 q 540 1158 521 1147 q 563 1185 558 1168 q 568 1233 568 1201 l 692 1233 m 386 1271 l 386 1278 l 513 1474 l 728 1474 l 728 1467 l 544 1271 l 386 1271 z "},"Ặ":{"ha":961,"x_min":11,"x_max":950,"o":"m 704 0 l 647 181 l 307 181 l 253 0 l 11 0 l 317 956 l 644 956 l 950 0 l 704 0 m 479 742 l 472 742 l 363 376 l 590 376 l 479 742 m 363 -293 l 363 -86 l 600 -86 l 600 -293 l 363 -293 m 693 1233 q 678 1120 693 1164 q 616 1051 663 1076 q 481 1025 569 1025 q 346 1051 392 1025 q 285 1120 300 1076 q 271 1233 271 1164 l 393 1233 q 397 1185 393 1201 q 420 1158 401 1168 q 481 1147 439 1147 q 541 1158 522 1147 q 565 1185 560 1168 q 569 1233 569 1201 l 693 1233 z "},"Ằ":{"ha":961,"x_min":11,"x_max":950,"o":"m 704 0 l 647 181 l 307 181 l 253 0 l 11 0 l 317 956 l 644 956 l 950 0 l 704 0 m 479 742 l 472 742 l 363 376 l 590 376 l 479 742 m 701 1233 q 686 1120 701 1164 q 624 1051 671 1076 q 489 1025 578 1025 q 354 1051 400 1025 q 294 1120 308 1076 q 279 1233 279 1164 l 401 1233 q 406 1185 401 1201 q 428 1158 410 1168 q 489 1147 447 1147 q 549 1158 531 1147 q 573 1185 568 1168 q 578 1233 578 1201 l 701 1233 m 424 1271 l 240 1467 l 240 1474 l 456 1474 l 582 1278 l 582 1271 l 424 1271 z "},"Ẳ":{"ha":961,"x_min":11,"x_max":950,"o":"m 704 0 l 647 181 l 307 181 l 253 0 l 11 0 l 317 956 l 644 956 l 950 0 l 704 0 m 479 742 l 472 742 l 363 376 l 590 376 l 479 742 m 690 1233 q 675 1120 690 1164 q 613 1051 660 1076 q 478 1025 567 1025 q 343 1051 389 1025 q 283 1120 297 1076 q 268 1233 268 1164 l 390 1233 q 394 1185 390 1201 q 417 1158 399 1168 q 478 1147 436 1147 q 538 1158 519 1147 q 562 1185 557 1168 q 567 1233 567 1201 l 690 1233 m 401 1247 q 414 1312 401 1294 q 468 1340 426 1329 l 493 1347 q 534 1363 525 1356 q 543 1389 543 1371 q 526 1423 543 1417 q 453 1429 510 1429 q 308 1422 374 1429 l 308 1526 q 394 1536 343 1532 q 488 1540 444 1540 q 597 1533 557 1540 q 661 1495 638 1525 q 685 1404 685 1465 q 674 1342 685 1364 q 644 1308 664 1319 q 586 1288 624 1297 l 565 1281 q 527 1265 535 1272 q 519 1240 519 1258 l 401 1240 l 401 1247 z "},"Ẵ":{"ha":961,"x_min":11,"x_max":950,"o":"m 704 0 l 647 181 l 307 181 l 253 0 l 11 0 l 317 956 l 644 956 l 950 0 l 704 0 m 479 742 l 472 742 l 363 376 l 590 376 l 479 742 m 690 1233 q 675 1120 690 1164 q 613 1051 660 1076 q 478 1025 567 1025 q 343 1051 389 1025 q 283 1120 297 1076 q 268 1233 268 1164 l 390 1233 q 394 1185 390 1201 q 417 1158 399 1168 q 478 1147 436 1147 q 538 1158 519 1147 q 562 1185 557 1168 q 567 1233 567 1201 l 690 1233 m 753 1522 q 746 1408 753 1447 q 712 1346 739 1368 q 625 1324 685 1324 q 553 1330 589 1324 q 463 1349 517 1336 q 358 1367 385 1367 q 329 1356 335 1367 q 324 1307 324 1344 l 211 1307 q 218 1423 211 1383 q 253 1485 225 1463 q 340 1507 281 1507 q 415 1500 378 1507 q 503 1481 453 1493 q 551 1470 515 1478 q 607 1463 586 1463 q 636 1474 631 1463 q 642 1522 642 1485 l 753 1522 z "},"Ǎ":{"ha":961,"x_min":11,"x_max":950,"o":"m 704 0 l 647 181 l 307 181 l 253 0 l 11 0 l 317 956 l 644 956 l 950 0 l 704 0 m 479 742 l 472 742 l 363 376 l 590 376 l 479 742 m 378 1031 l 249 1224 l 249 1233 l 392 1233 l 483 1122 l 572 1233 l 717 1233 l 717 1224 l 585 1031 l 378 1031 z "},"Â":{"ha":954,"x_min":11,"x_max":950,"o":"m 704 0 l 647 181 l 307 181 l 253 0 l 11 0 l 317 956 l 644 956 l 950 0 l 704 0 m 479 742 l 472 742 l 363 376 l 590 376 l 479 742 m 243 1042 l 243 1051 l 372 1244 l 579 1244 l 711 1051 l 711 1042 l 567 1042 l 475 1153 l 386 1042 l 243 1042 z "},"Ấ":{"ha":961,"x_min":11,"x_max":950,"o":"m 704 0 l 647 181 l 307 181 l 253 0 l 11 0 l 317 956 l 644 956 l 950 0 l 704 0 m 479 742 l 472 742 l 363 376 l 590 376 l 479 742 m 246 1031 l 246 1040 l 375 1233 l 582 1233 l 714 1040 l 714 1031 l 569 1031 l 478 1142 l 389 1031 l 246 1031 m 499 1271 l 499 1278 l 625 1474 l 840 1474 l 840 1467 l 657 1271 l 499 1271 z "},"Ậ":{"ha":961,"x_min":11,"x_max":950,"o":"m 704 0 l 647 181 l 307 181 l 253 0 l 11 0 l 317 956 l 644 956 l 950 0 l 704 0 m 479 742 l 472 742 l 363 376 l 590 376 l 479 742 m 363 -293 l 363 -86 l 600 -86 l 600 -293 l 363 -293 m 249 1031 l 249 1040 l 378 1233 l 585 1233 l 717 1040 l 717 1031 l 572 1031 l 481 1142 l 392 1031 l 249 1031 z "},"Ầ":{"ha":961,"x_min":11,"x_max":950,"o":"m 704 0 l 647 181 l 307 181 l 253 0 l 11 0 l 317 956 l 644 956 l 950 0 l 704 0 m 479 742 l 472 742 l 363 376 l 590 376 l 479 742 m 240 1031 l 240 1040 l 369 1233 l 576 1233 l 708 1040 l 708 1031 l 564 1031 l 472 1142 l 383 1031 l 240 1031 m 558 1271 l 375 1467 l 375 1474 l 590 1474 l 717 1278 l 717 1271 l 558 1271 z "},"Ẩ":{"ha":961,"x_min":11,"x_max":950,"o":"m 704 0 l 647 181 l 307 181 l 253 0 l 11 0 l 317 956 l 644 956 l 950 0 l 704 0 m 479 742 l 472 742 l 363 376 l 590 376 l 479 742 m 249 1031 l 249 1040 l 378 1233 l 585 1233 l 717 1040 l 717 1031 l 572 1031 l 481 1142 l 392 1031 l 249 1031 m 540 1268 q 553 1333 540 1315 q 607 1361 565 1350 l 632 1368 q 673 1384 664 1376 q 682 1410 682 1392 q 665 1444 682 1438 q 592 1450 649 1450 q 447 1443 513 1450 l 447 1547 q 533 1557 482 1553 q 626 1561 583 1561 q 736 1553 696 1561 q 800 1516 776 1546 q 824 1425 824 1486 q 813 1363 824 1385 q 783 1329 803 1340 q 725 1308 763 1318 l 704 1301 q 666 1286 674 1293 q 658 1261 658 1279 l 540 1261 l 540 1268 z "},"Ẫ":{"ha":961,"x_min":11,"x_max":950,"o":"m 704 0 l 647 181 l 307 181 l 253 0 l 11 0 l 317 956 l 644 956 l 950 0 l 704 0 m 479 742 l 472 742 l 363 376 l 590 376 l 479 742 m 246 1031 l 246 1040 l 375 1233 l 582 1233 l 714 1040 l 714 1031 l 569 1031 l 478 1142 l 389 1031 l 246 1031 m 751 1474 q 744 1359 751 1399 q 710 1297 738 1319 q 624 1275 683 1275 q 551 1281 588 1275 q 461 1300 515 1288 q 357 1318 383 1318 q 328 1307 333 1318 q 322 1258 322 1296 l 210 1258 q 217 1374 210 1335 q 251 1436 224 1414 q 339 1458 279 1458 q 414 1451 376 1458 q 501 1432 451 1444 q 549 1422 514 1429 q 606 1414 585 1414 q 635 1425 629 1414 q 640 1474 640 1436 l 751 1474 z "},"Ȁ":{"ha":961,"x_min":11,"x_max":950,"o":"m 704 0 l 647 181 l 307 181 l 253 0 l 11 0 l 317 956 l 644 956 l 950 0 l 704 0 m 479 742 l 472 742 l 363 376 l 590 376 l 479 742 m 432 1047 l 300 1047 l 144 1213 l 144 1218 l 322 1218 l 432 1054 l 432 1047 m 694 1047 l 564 1047 l 410 1213 l 410 1218 l 588 1218 l 694 1054 l 694 1047 z "},"Ä":{"ha":954,"x_min":11,"x_max":950,"o":"m 704 0 l 647 181 l 307 181 l 253 0 l 11 0 l 317 956 l 644 956 l 950 0 l 704 0 m 479 742 l 472 742 l 363 376 l 590 376 l 479 742 m 242 1079 l 242 1233 l 424 1233 l 424 1079 l 242 1079 m 528 1079 l 528 1233 l 710 1233 l 710 1079 l 528 1079 z "},"Ạ":{"ha":961,"x_min":11,"x_max":950,"o":"m 704 0 l 647 181 l 307 181 l 253 0 l 11 0 l 317 956 l 644 956 l 950 0 l 704 0 m 479 742 l 472 742 l 363 376 l 590 376 l 479 742 m 363 -293 l 363 -86 l 600 -86 l 600 -293 l 363 -293 z "},"À":{"ha":954,"x_min":11,"x_max":950,"o":"m 704 0 l 647 181 l 307 181 l 253 0 l 11 0 l 317 956 l 644 956 l 950 0 l 704 0 m 479 742 l 472 742 l 363 376 l 590 376 l 479 742 m 425 1042 l 242 1238 l 242 1244 l 457 1244 l 583 1049 l 583 1042 l 425 1042 z "},"Ả":{"ha":961,"x_min":11,"x_max":950,"o":"m 704 0 l 647 181 l 307 181 l 253 0 l 11 0 l 317 956 l 644 956 l 950 0 l 704 0 m 479 742 l 472 742 l 363 376 l 590 376 l 479 742 m 386 1018 q 399 1083 386 1065 q 453 1111 411 1100 l 478 1118 q 519 1134 510 1126 q 528 1160 528 1142 q 511 1194 528 1188 q 438 1200 494 1200 q 293 1193 358 1200 l 293 1297 q 378 1307 328 1303 q 472 1311 429 1311 q 582 1303 542 1311 q 646 1266 622 1296 q 669 1175 669 1236 q 659 1113 669 1135 q 628 1079 649 1090 q 571 1058 608 1068 l 550 1051 q 512 1036 519 1043 q 504 1011 504 1029 l 386 1011 l 386 1018 z "},"Ȃ":{"ha":961,"x_min":11,"x_max":950,"o":"m 704 0 l 647 181 l 307 181 l 253 0 l 11 0 l 317 956 l 644 956 l 950 0 l 704 0 m 479 742 l 472 742 l 363 376 l 590 376 l 479 742 m 271 1033 q 286 1147 271 1103 q 348 1216 301 1190 q 483 1242 394 1242 q 618 1216 572 1242 q 678 1147 664 1190 q 693 1033 693 1103 l 571 1033 q 567 1082 571 1065 q 544 1109 563 1099 q 483 1119 525 1119 q 423 1109 442 1119 q 399 1082 404 1099 q 394 1033 394 1065 l 271 1033 z "},"Ā":{"ha":961,"x_min":11,"x_max":950,"o":"m 704 0 l 647 181 l 307 181 l 253 0 l 11 0 l 317 956 l 644 956 l 950 0 l 704 0 m 479 742 l 472 742 l 363 376 l 590 376 l 479 742 m 292 1049 l 292 1233 l 674 1233 l 674 1049 l 292 1049 z "},"Ą":{"ha":954,"x_min":11,"x_max":943,"o":"m 799 -107 q 813 -142 799 -131 q 864 -154 826 -154 q 888 -153 878 -154 l 888 -268 l 851 -269 q 793 -272 810 -272 q 617 -154 617 -272 q 639 -76 617 -115 q 699 1 661 -36 l 642 182 l 306 182 l 250 0 l 11 0 l 311 956 l 642 956 l 943 0 l 878 0 q 823 -51 847 -21 q 799 -107 799 -81 m 356 369 l 590 369 l 478 740 l 468 740 l 356 369 z "},"Å":{"ha":961,"x_min":11,"x_max":950,"o":"m 950 0 l 704 0 l 647 181 l 307 181 l 253 0 l 11 0 l 314 953 q 278 1003 286 972 q 271 1096 271 1035 q 283 1201 271 1167 q 340 1253 296 1236 q 479 1271 383 1271 q 621 1253 576 1271 q 678 1201 665 1236 q 690 1096 690 1167 q 682 1006 690 1038 q 647 954 674 974 l 950 0 m 479 1171 q 420 1165 438 1171 q 399 1144 403 1158 q 394 1096 394 1131 q 399 1047 394 1061 q 420 1027 403 1033 q 479 1021 438 1021 q 540 1027 522 1021 q 563 1047 558 1033 q 567 1096 567 1061 q 563 1144 567 1131 q 540 1165 558 1158 q 479 1171 522 1171 m 363 376 l 590 376 l 479 742 l 472 742 l 363 376 z "},"Ǻ":{"ha":961,"x_min":11,"x_max":950,"o":"m 950 0 l 704 0 l 647 181 l 307 181 l 253 0 l 11 0 l 314 953 q 278 1003 286 972 q 271 1096 271 1035 q 283 1201 271 1167 q 340 1253 296 1236 q 479 1271 383 1271 q 621 1253 576 1271 q 678 1201 665 1236 q 690 1096 690 1167 q 682 1006 690 1038 q 647 954 674 974 l 950 0 m 479 1171 q 420 1165 438 1171 q 399 1144 403 1158 q 394 1096 394 1131 q 399 1047 394 1061 q 420 1027 403 1033 q 479 1021 438 1021 q 540 1027 522 1021 q 563 1047 558 1033 q 567 1096 567 1061 q 563 1144 567 1131 q 540 1165 558 1158 q 479 1171 522 1171 m 363 376 l 590 376 l 479 742 l 472 742 l 363 376 m 392 1346 l 392 1353 l 518 1549 l 733 1549 l 733 1542 l 550 1346 l 392 1346 z "},"Ã":{"ha":954,"x_min":11,"x_max":950,"o":"m 704 0 l 647 181 l 307 181 l 253 0 l 11 0 l 317 956 l 644 956 l 950 0 l 704 0 m 479 742 l 472 742 l 363 376 l 590 376 l 479 742 m 747 1257 q 740 1142 747 1182 q 706 1081 733 1103 q 619 1058 679 1058 q 547 1065 583 1058 q 457 1083 511 1071 q 353 1101 379 1101 q 324 1090 329 1101 q 318 1042 318 1079 l 206 1042 q 213 1158 206 1118 q 247 1219 219 1197 q 335 1242 275 1242 q 410 1235 372 1242 q 497 1215 447 1228 q 545 1205 510 1213 q 601 1197 581 1197 q 631 1208 625 1197 q 636 1257 636 1219 l 747 1257 z "},"Æ":{"ha":1361,"x_min":-22,"x_max":1285,"o":"m 669 0 l 640 182 l 301 182 l 217 0 l -22 0 l 428 956 l 1285 956 l 1285 760 l 783 760 l 814 579 l 1218 579 l 1218 385 l 843 385 l 874 196 l 1285 196 l 1285 0 l 669 0 m 558 747 l 550 747 l 383 376 l 614 376 l 558 747 z "},"Ǽ":{"ha":1361,"x_min":-22,"x_max":1285,"o":"m 669 0 l 640 182 l 301 182 l 217 0 l -22 0 l 428 956 l 1285 956 l 1285 760 l 783 760 l 814 579 l 1218 579 l 1218 385 l 843 385 l 874 196 l 1285 196 l 1285 0 l 669 0 m 558 747 l 550 747 l 383 376 l 614 376 l 558 747 m 593 1031 l 593 1038 l 719 1233 l 935 1233 l 935 1226 l 751 1031 l 593 1031 z "},"B":{"ha":940,"x_min":101,"x_max":869,"o":"m 101 956 l 582 956 q 792 896 722 956 q 861 715 861 836 q 822 562 861 614 q 694 490 782 510 l 694 485 q 829 414 789 464 q 869 254 869 364 q 802 64 869 128 q 581 0 735 0 l 101 0 l 101 956 m 494 575 q 571 583 546 575 q 606 610 596 590 q 615 668 615 629 q 606 728 615 708 q 573 754 597 747 q 494 761 549 761 l 342 761 l 342 575 l 494 575 m 501 194 q 579 202 554 194 q 614 229 604 210 q 624 290 624 249 q 615 354 624 333 q 580 383 606 375 q 501 390 554 390 l 342 390 l 342 194 l 501 194 z "},"C":{"ha":797,"x_min":76,"x_max":738,"o":"m 738 13 q 619 -4 690 3 q 485 -11 547 -11 q 218 33 304 -11 q 104 178 132 78 q 76 478 76 278 q 105 775 76 675 q 219 921 133 875 q 485 967 306 967 q 617 959 547 967 q 732 940 686 951 l 732 757 q 544 771 590 771 q 388 753 431 771 q 333 681 344 736 q 321 478 321 626 q 333 274 321 329 q 388 202 344 219 q 544 185 431 185 q 738 199 647 185 l 738 13 z "},"Ć":{"ha":797,"x_min":76,"x_max":738,"o":"m 738 13 q 619 -4 690 3 q 485 -11 547 -11 q 218 33 304 -11 q 104 178 132 78 q 76 478 76 278 q 105 775 76 675 q 219 921 133 875 q 485 967 306 967 q 617 959 547 967 q 732 940 686 951 l 732 757 q 544 771 590 771 q 388 753 431 771 q 333 681 344 736 q 321 478 321 626 q 333 274 321 329 q 388 202 344 219 q 544 185 431 185 q 738 199 647 185 l 738 13 m 311 1031 l 311 1038 l 438 1233 l 653 1233 l 653 1226 l 469 1031 l 311 1031 z "},"Č":{"ha":797,"x_min":76,"x_max":738,"o":"m 738 13 q 619 -4 690 3 q 485 -11 547 -11 q 218 33 304 -11 q 104 178 132 78 q 76 478 76 278 q 105 775 76 675 q 219 921 133 875 q 485 967 306 967 q 617 959 547 967 q 732 940 686 951 l 732 757 q 544 771 590 771 q 388 753 431 771 q 333 681 344 736 q 321 478 321 626 q 333 274 321 329 q 388 202 344 219 q 544 185 431 185 q 738 199 647 185 l 738 13 m 294 1031 l 165 1224 l 165 1233 l 308 1233 l 400 1122 l 489 1233 l 633 1233 l 633 1224 l 501 1031 l 294 1031 z "},"Ç":{"ha":797,"x_min":76,"x_max":738,"o":"m 544 185 q 738 199 647 185 l 738 13 q 619 -4 690 3 q 485 -11 547 -11 l 471 -11 l 424 -264 l 221 -264 l 221 -257 l 322 0 q 165 72 217 18 q 94 218 113 125 q 76 478 76 311 q 105 775 76 675 q 219 921 133 875 q 485 967 306 967 q 617 959 547 967 q 732 940 686 951 l 732 757 q 544 771 590 771 q 388 753 431 771 q 333 681 344 736 q 321 478 321 626 q 333 274 321 329 q 388 202 344 219 q 544 185 431 185 z "},"Ĉ":{"ha":797,"x_min":76,"x_max":738,"o":"m 738 13 q 619 -4 690 3 q 485 -11 547 -11 q 218 33 304 -11 q 104 178 132 78 q 76 478 76 278 q 105 775 76 675 q 219 921 133 875 q 485 967 306 967 q 617 959 547 967 q 732 940 686 951 l 732 757 q 544 771 590 771 q 388 753 431 771 q 333 681 344 736 q 321 478 321 626 q 333 274 321 329 q 388 202 344 219 q 544 185 431 185 q 738 199 647 185 l 738 13 m 165 1031 l 165 1040 l 294 1233 l 501 1233 l 633 1040 l 633 1031 l 489 1031 l 397 1142 l 308 1031 l 165 1031 z "},"Ċ":{"ha":797,"x_min":76,"x_max":738,"o":"m 738 13 q 619 -4 690 3 q 485 -11 547 -11 q 218 33 304 -11 q 104 178 132 78 q 76 478 76 278 q 105 775 76 675 q 219 921 133 875 q 485 967 306 967 q 617 959 547 967 q 732 940 686 951 l 732 757 q 544 771 590 771 q 388 753 431 771 q 333 681 344 736 q 321 478 321 626 q 333 274 321 329 q 388 202 344 219 q 544 185 431 185 q 738 199 647 185 l 738 13 m 307 1061 l 307 1215 l 489 1215 l 489 1061 l 307 1061 z "},"D":{"ha":951,"x_min":101,"x_max":875,"o":"m 101 956 l 439 956 q 740 913 650 956 q 853 780 831 871 q 875 478 875 689 q 853 176 875 267 q 740 42 831 85 q 439 0 650 0 l 101 0 l 101 956 m 433 196 q 576 209 540 196 q 620 273 611 222 q 629 478 629 324 q 619 682 629 631 q 574 747 610 733 q 433 760 539 760 l 342 760 l 342 196 l 433 196 z "},"Ǳ":{"ha":1811,"x_min":101,"x_max":1751,"o":"m 101 956 l 439 956 q 740 913 650 956 q 853 780 831 871 q 875 478 875 689 q 853 176 875 267 q 740 42 831 85 q 439 0 650 0 l 101 0 l 101 956 m 433 196 q 576 209 540 196 q 620 273 611 222 q 629 478 629 324 q 619 682 629 631 q 574 747 610 733 q 433 760 539 760 l 342 760 l 342 196 l 433 196 m 1011 0 l 1011 189 l 1449 760 l 1028 760 l 1028 956 l 1750 956 l 1750 774 l 1308 196 l 1751 196 l 1751 0 l 1011 0 z "},"Ǆ":{"ha":1811,"x_min":101,"x_max":1751,"o":"m 101 956 l 439 956 q 740 913 650 956 q 853 780 831 871 q 875 478 875 689 q 853 176 875 267 q 740 42 831 85 q 439 0 650 0 l 101 0 l 101 956 m 433 196 q 576 209 540 196 q 620 273 611 222 q 629 478 629 324 q 619 682 629 631 q 574 747 610 733 q 433 760 539 760 l 342 760 l 342 196 l 433 196 m 1011 0 l 1011 189 l 1449 760 l 1028 760 l 1028 956 l 1750 956 l 1750 774 l 1308 196 l 1751 196 l 1751 0 l 1011 0 m 1264 1031 l 1135 1224 l 1135 1233 l 1278 1233 l 1369 1122 l 1458 1233 l 1603 1233 l 1603 1224 l 1471 1031 l 1264 1031 z "},"Ð":{"ha":951,"x_min":10,"x_max":875,"o":"m 101 401 l 10 401 l 10 567 l 101 567 l 101 956 l 439 956 q 740 913 650 956 q 853 780 831 871 q 875 478 875 689 q 853 176 875 267 q 740 42 831 85 q 439 0 650 0 l 101 0 l 101 401 m 433 196 q 576 209 540 196 q 620 273 611 222 q 629 478 629 324 q 619 682 629 631 q 574 747 610 733 q 433 760 539 760 l 342 760 l 342 567 l 464 567 l 464 401 l 342 401 l 342 196 l 433 196 z "},"Ď":{"ha":951,"x_min":101,"x_max":875,"o":"m 101 956 l 439 956 q 740 913 650 956 q 853 780 831 871 q 875 478 875 689 q 853 176 875 267 q 740 42 831 85 q 439 0 650 0 l 101 0 l 101 956 m 433 196 q 576 209 540 196 q 620 273 611 222 q 629 478 629 324 q 619 682 629 631 q 574 747 610 733 q 433 760 539 760 l 342 760 l 342 196 l 433 196 m 372 1031 l 243 1224 l 243 1233 l 386 1233 l 478 1122 l 567 1233 l 711 1233 l 711 1224 l 579 1031 l 372 1031 z "},"Đ":{"ha":951,"x_min":10,"x_max":875,"o":"m 101 401 l 10 401 l 10 567 l 101 567 l 101 956 l 439 956 q 740 913 650 956 q 853 780 831 871 q 875 478 875 689 q 853 176 875 267 q 740 42 831 85 q 439 0 650 0 l 101 0 l 101 401 m 433 196 q 576 209 540 196 q 620 273 611 222 q 629 478 629 324 q 619 682 629 631 q 574 747 610 733 q 433 760 539 760 l 342 760 l 342 567 l 464 567 l 464 401 l 342 401 l 342 196 l 433 196 z "},"Ḍ":{"ha":951,"x_min":101,"x_max":875,"o":"m 101 956 l 439 956 q 740 913 650 956 q 853 780 831 871 q 875 478 875 689 q 853 176 875 267 q 740 42 831 85 q 439 0 650 0 l 101 0 l 101 956 m 433 196 q 576 209 540 196 q 620 273 611 222 q 629 478 629 324 q 619 682 629 631 q 574 747 610 733 q 433 760 539 760 l 342 760 l 342 196 l 433 196 m 357 -293 l 357 -86 l 594 -86 l 594 -293 l 357 -293 z "},"ǲ":{"ha":1679,"x_min":101,"x_max":1619,"o":"m 101 956 l 439 956 q 740 913 650 956 q 853 780 831 871 q 875 478 875 689 q 853 176 875 267 q 740 42 831 85 q 439 0 650 0 l 101 0 l 101 956 m 433 196 q 576 209 540 196 q 620 273 611 222 q 629 478 629 324 q 619 682 629 631 q 574 747 610 733 q 433 760 539 760 l 342 760 l 342 196 l 433 196 m 1011 0 l 1011 164 l 1335 535 l 1028 535 l 1028 708 l 1617 708 l 1617 544 l 1293 174 l 1619 174 l 1619 0 l 1011 0 z "},"ǅ":{"ha":1679,"x_min":101,"x_max":1619,"o":"m 101 956 l 439 956 q 740 913 650 956 q 853 780 831 871 q 875 478 875 689 q 853 176 875 267 q 740 42 831 85 q 439 0 650 0 l 101 0 l 101 956 m 433 196 q 576 209 540 196 q 620 273 611 222 q 629 478 629 324 q 619 682 629 631 q 574 747 610 733 q 433 760 539 760 l 342 760 l 342 196 l 433 196 m 1011 0 l 1011 164 l 1335 535 l 1028 535 l 1028 708 l 1617 708 l 1617 544 l 1293 174 l 1619 174 l 1619 0 l 1011 0 m 1208 829 l 1079 1022 l 1079 1032 l 1222 1032 l 1314 921 l 1403 1032 l 1547 1032 l 1547 1022 l 1415 829 l 1208 829 z "},"E":{"ha":854,"x_min":101,"x_max":779,"o":"m 101 0 l 101 956 l 779 956 l 779 760 l 343 760 l 343 581 l 713 581 l 713 385 l 343 385 l 343 196 l 779 196 l 779 0 l 101 0 z "},"É":{"ha":838,"x_min":101,"x_max":779,"o":"m 101 0 l 101 956 l 779 956 l 779 760 l 343 760 l 343 581 l 713 581 l 713 385 l 343 385 l 343 196 l 779 196 l 779 0 l 101 0 m 350 1042 l 350 1049 l 476 1244 l 692 1244 l 692 1238 l 508 1042 l 350 1042 z "},"Ĕ":{"ha":854,"x_min":101,"x_max":779,"o":"m 101 0 l 101 956 l 779 956 l 779 760 l 343 760 l 343 581 l 713 581 l 713 385 l 343 385 l 343 196 l 779 196 l 779 0 l 101 0 m 639 1233 q 624 1120 639 1164 q 562 1051 608 1076 q 426 1025 515 1025 q 292 1051 338 1025 q 231 1120 246 1076 q 217 1233 217 1164 l 339 1233 q 343 1185 339 1201 q 366 1158 347 1168 q 426 1147 385 1147 q 487 1158 468 1147 q 510 1185 506 1168 q 515 1233 515 1201 l 639 1233 z "},"Ě":{"ha":854,"x_min":101,"x_max":779,"o":"m 101 0 l 101 956 l 779 956 l 779 760 l 343 760 l 343 581 l 713 581 l 713 385 l 343 385 l 343 196 l 779 196 l 779 0 l 101 0 m 324 1031 l 194 1224 l 194 1233 l 338 1233 l 429 1122 l 518 1233 l 663 1233 l 663 1224 l 531 1031 l 324 1031 z "},"Ê":{"ha":838,"x_min":101,"x_max":779,"o":"m 101 0 l 101 956 l 779 956 l 779 760 l 343 760 l 343 581 l 713 581 l 713 385 l 343 385 l 343 196 l 779 196 l 779 0 l 101 0 m 194 1042 l 194 1051 l 324 1244 l 531 1244 l 663 1051 l 663 1042 l 518 1042 l 426 1153 l 338 1042 l 194 1042 z "},"Ế":{"ha":854,"x_min":101,"x_max":786,"o":"m 101 0 l 101 956 l 779 956 l 779 760 l 343 760 l 343 581 l 713 581 l 713 385 l 343 385 l 343 196 l 779 196 l 779 0 l 101 0 m 192 1031 l 192 1040 l 321 1233 l 528 1233 l 660 1040 l 660 1031 l 515 1031 l 424 1142 l 335 1031 l 192 1031 m 444 1271 l 444 1278 l 571 1474 l 786 1474 l 786 1467 l 603 1271 l 444 1271 z "},"Ệ":{"ha":854,"x_min":101,"x_max":779,"o":"m 101 0 l 101 956 l 779 956 l 779 760 l 343 760 l 343 581 l 713 581 l 713 385 l 343 385 l 343 196 l 779 196 l 779 0 l 101 0 m 308 -293 l 308 -86 l 546 -86 l 546 -293 l 308 -293 m 194 1031 l 194 1040 l 324 1233 l 531 1233 l 663 1040 l 663 1031 l 518 1031 l 426 1142 l 338 1031 l 194 1031 z "},"Ề":{"ha":854,"x_min":101,"x_max":779,"o":"m 101 0 l 101 956 l 779 956 l 779 760 l 343 760 l 343 581 l 713 581 l 713 385 l 343 385 l 343 196 l 779 196 l 779 0 l 101 0 m 186 1031 l 186 1040 l 315 1233 l 522 1233 l 654 1040 l 654 1031 l 510 1031 l 418 1142 l 329 1031 l 186 1031 m 504 1271 l 321 1467 l 321 1474 l 536 1474 l 663 1278 l 663 1271 l 504 1271 z "},"Ể":{"ha":854,"x_min":101,"x_max":779,"o":"m 101 0 l 101 956 l 779 956 l 779 760 l 343 760 l 343 581 l 713 581 l 713 385 l 343 385 l 343 196 l 779 196 l 779 0 l 101 0 m 194 1031 l 194 1040 l 324 1233 l 531 1233 l 663 1040 l 663 1031 l 518 1031 l 426 1142 l 338 1031 l 194 1031 m 486 1268 q 499 1333 486 1315 q 553 1361 511 1350 l 578 1368 q 619 1384 610 1376 q 628 1410 628 1392 q 611 1444 628 1438 q 538 1450 594 1450 q 393 1443 458 1450 l 393 1547 q 478 1557 428 1553 q 572 1561 529 1561 q 682 1553 642 1561 q 746 1516 722 1546 q 769 1425 769 1486 q 759 1363 769 1385 q 728 1329 749 1340 q 671 1308 708 1318 l 650 1301 q 612 1286 619 1293 q 604 1261 604 1279 l 486 1261 l 486 1268 z "},"Ễ":{"ha":854,"x_min":101,"x_max":779,"o":"m 101 0 l 101 956 l 779 956 l 779 760 l 343 760 l 343 581 l 713 581 l 713 385 l 343 385 l 343 196 l 779 196 l 779 0 l 101 0 m 192 1031 l 192 1040 l 321 1233 l 528 1233 l 660 1040 l 660 1031 l 515 1031 l 424 1142 l 335 1031 l 192 1031 m 697 1474 q 690 1359 697 1399 q 656 1297 683 1319 q 569 1275 629 1275 q 497 1281 533 1275 q 407 1300 461 1288 q 303 1318 329 1318 q 274 1307 279 1318 q 268 1258 268 1296 l 156 1258 q 163 1374 156 1335 q 197 1436 169 1414 q 285 1458 225 1458 q 360 1451 322 1458 q 447 1432 397 1444 q 495 1422 460 1429 q 551 1414 531 1414 q 581 1425 575 1414 q 586 1474 586 1436 l 697 1474 z "},"Ȅ":{"ha":854,"x_min":90,"x_max":779,"o":"m 101 0 l 101 956 l 779 956 l 779 760 l 343 760 l 343 581 l 713 581 l 713 385 l 343 385 l 343 196 l 779 196 l 779 0 l 101 0 m 378 1047 l 246 1047 l 90 1213 l 90 1218 l 268 1218 l 378 1054 l 378 1047 m 640 1047 l 510 1047 l 356 1213 l 356 1218 l 533 1218 l 640 1054 l 640 1047 z "},"Ë":{"ha":838,"x_min":101,"x_max":779,"o":"m 101 0 l 101 956 l 779 956 l 779 760 l 343 760 l 343 581 l 713 581 l 713 385 l 343 385 l 343 196 l 779 196 l 779 0 l 101 0 m 200 1060 l 200 1214 l 382 1214 l 382 1060 l 200 1060 m 486 1060 l 486 1214 l 668 1214 l 668 1060 l 486 1060 z "},"Ė":{"ha":854,"x_min":101,"x_max":779,"o":"m 101 0 l 101 956 l 779 956 l 779 760 l 343 760 l 343 581 l 713 581 l 713 385 l 343 385 l 343 196 l 779 196 l 779 0 l 101 0 m 336 1061 l 336 1215 l 518 1215 l 518 1061 l 336 1061 z "},"Ẹ":{"ha":854,"x_min":101,"x_max":779,"o":"m 101 0 l 101 956 l 779 956 l 779 760 l 343 760 l 343 581 l 713 581 l 713 385 l 343 385 l 343 196 l 779 196 l 779 0 l 101 0 m 308 -293 l 308 -86 l 546 -86 l 546 -293 l 308 -293 z "},"È":{"ha":838,"x_min":101,"x_max":779,"o":"m 101 0 l 101 956 l 779 956 l 779 760 l 343 760 l 343 581 l 713 581 l 713 385 l 343 385 l 343 196 l 779 196 l 779 0 l 101 0 m 388 1042 l 204 1238 l 204 1244 l 419 1244 l 546 1049 l 546 1042 l 388 1042 z "},"Ẻ":{"ha":854,"x_min":101,"x_max":779,"o":"m 101 0 l 101 956 l 779 956 l 779 760 l 343 760 l 343 581 l 713 581 l 713 385 l 343 385 l 343 196 l 779 196 l 779 0 l 101 0 m 332 1018 q 344 1083 332 1065 q 399 1111 357 1100 l 424 1118 q 465 1134 456 1126 q 474 1160 474 1142 q 457 1194 474 1188 q 383 1200 440 1200 q 239 1193 304 1200 l 239 1297 q 324 1307 274 1303 q 418 1311 375 1311 q 528 1303 488 1311 q 592 1266 568 1296 q 615 1175 615 1236 q 605 1113 615 1135 q 574 1079 594 1090 q 517 1058 554 1068 l 496 1051 q 458 1036 465 1043 q 450 1011 450 1029 l 332 1011 l 332 1018 z "},"Ȇ":{"ha":854,"x_min":101,"x_max":779,"o":"m 101 0 l 101 956 l 779 956 l 779 760 l 343 760 l 343 581 l 713 581 l 713 385 l 343 385 l 343 196 l 779 196 l 779 0 l 101 0 m 217 1033 q 232 1147 217 1103 q 294 1216 247 1190 q 429 1242 340 1242 q 564 1216 518 1242 q 624 1147 610 1190 q 639 1033 639 1103 l 517 1033 q 513 1082 517 1065 q 490 1109 508 1099 q 429 1119 471 1119 q 369 1109 388 1119 q 345 1082 350 1099 q 340 1033 340 1065 l 217 1033 z "},"Ē":{"ha":854,"x_min":101,"x_max":779,"o":"m 101 0 l 101 956 l 779 956 l 779 760 l 343 760 l 343 581 l 713 581 l 713 385 l 343 385 l 343 196 l 779 196 l 779 0 l 101 0 m 238 1049 l 238 1233 l 619 1233 l 619 1049 l 238 1049 z "},"Ę":{"ha":838,"x_min":99,"x_max":765,"o":"m 660 -272 q 524 -240 564 -272 q 483 -158 483 -208 q 582 0 483 -81 l 99 0 l 99 956 l 765 956 l 765 764 l 340 764 l 340 576 l 700 576 l 700 388 l 340 388 l 340 192 l 765 192 l 765 0 q 696 -51 726 -21 q 665 -111 665 -81 q 729 -154 665 -154 q 754 -153 749 -154 l 754 -268 q 660 -272 708 -272 z "},"Ẽ":{"ha":854,"x_min":101,"x_max":779,"o":"m 101 0 l 101 956 l 779 956 l 779 760 l 343 760 l 343 581 l 713 581 l 713 385 l 343 385 l 343 196 l 779 196 l 779 0 l 101 0 m 697 1233 q 690 1119 697 1158 q 656 1057 683 1079 q 569 1035 629 1035 q 497 1041 533 1035 q 407 1060 461 1047 q 303 1078 329 1078 q 274 1067 279 1078 q 268 1018 268 1056 l 156 1018 q 163 1134 156 1094 q 197 1196 169 1174 q 285 1218 225 1218 q 360 1211 322 1218 q 447 1192 397 1204 q 495 1181 460 1189 q 551 1174 531 1174 q 581 1185 575 1174 q 586 1233 586 1196 l 697 1233 z "},"F":{"ha":801,"x_min":101,"x_max":751,"o":"m 101 0 l 101 956 l 751 956 l 751 760 l 343 760 l 343 550 l 699 550 l 699 354 l 343 354 l 343 0 l 101 0 z "},"G":{"ha":929,"x_min":76,"x_max":836,"o":"m 479 375 l 479 558 l 836 558 l 836 21 q 670 -2 764 7 q 506 -11 576 -11 q 232 27 321 -11 q 110 166 143 65 q 76 478 76 267 q 110 777 76 675 q 235 923 144 879 q 504 967 325 967 q 708 954 607 967 q 832 935 810 942 l 832 751 q 593 771 676 771 q 405 756 456 771 q 338 685 354 742 q 321 478 321 628 q 333 283 321 342 q 385 201 346 224 q 515 179 425 179 q 611 183 565 179 l 611 375 l 479 375 z "},"Ǵ":{"ha":929,"x_min":76,"x_max":836,"o":"m 479 375 l 479 558 l 836 558 l 836 21 q 670 -2 764 7 q 506 -11 576 -11 q 232 27 321 -11 q 110 166 143 65 q 76 478 76 267 q 110 777 76 675 q 235 923 144 879 q 504 967 325 967 q 708 954 607 967 q 832 935 810 942 l 832 751 q 593 771 676 771 q 405 756 456 771 q 338 685 354 742 q 321 478 321 628 q 333 283 321 342 q 385 201 346 224 q 515 179 425 179 q 611 183 565 179 l 611 375 l 479 375 m 376 1031 l 376 1038 l 503 1233 l 718 1233 l 718 1226 l 535 1031 l 376 1031 z "},"Ğ":{"ha":929,"x_min":76,"x_max":836,"o":"m 479 375 l 479 558 l 836 558 l 836 21 q 670 -2 764 7 q 506 -11 576 -11 q 232 27 321 -11 q 110 166 143 65 q 76 478 76 267 q 110 777 76 675 q 235 923 144 879 q 504 967 325 967 q 708 954 607 967 q 832 935 810 942 l 832 751 q 593 771 676 771 q 405 756 456 771 q 338 685 354 742 q 321 478 321 628 q 333 283 321 342 q 385 201 346 224 q 515 179 425 179 q 611 183 565 179 l 611 375 l 479 375 m 675 1233 q 660 1120 675 1164 q 598 1051 644 1076 q 463 1025 551 1025 q 328 1051 374 1025 q 267 1120 282 1076 q 253 1233 253 1164 l 375 1233 q 379 1185 375 1201 q 402 1158 383 1168 q 463 1147 421 1147 q 523 1158 504 1147 q 547 1185 542 1168 q 551 1233 551 1201 l 675 1233 z "},"Ǧ":{"ha":929,"x_min":76,"x_max":836,"o":"m 479 375 l 479 558 l 836 558 l 836 21 q 670 -2 764 7 q 506 -11 576 -11 q 232 27 321 -11 q 110 166 143 65 q 76 478 76 267 q 110 777 76 675 q 235 923 144 879 q 504 967 325 967 q 708 954 607 967 q 832 935 810 942 l 832 751 q 593 771 676 771 q 405 756 456 771 q 338 685 354 742 q 321 478 321 628 q 333 283 321 342 q 385 201 346 224 q 515 179 425 179 q 611 183 565 179 l 611 375 l 479 375 m 360 1031 l 231 1224 l 231 1233 l 374 1233 l 465 1122 l 554 1233 l 699 1233 l 699 1224 l 567 1031 l 360 1031 z "},"Ĝ":{"ha":929,"x_min":76,"x_max":836,"o":"m 479 375 l 479 558 l 836 558 l 836 21 q 670 -2 764 7 q 506 -11 576 -11 q 232 27 321 -11 q 110 166 143 65 q 76 478 76 267 q 110 777 76 675 q 235 923 144 879 q 504 967 325 967 q 708 954 607 967 q 832 935 810 942 l 832 751 q 593 771 676 771 q 405 756 456 771 q 338 685 354 742 q 321 478 321 628 q 333 283 321 342 q 385 201 346 224 q 515 179 425 179 q 611 183 565 179 l 611 375 l 479 375 m 231 1031 l 231 1040 l 360 1233 l 567 1233 l 699 1040 l 699 1031 l 554 1031 l 463 1142 l 374 1031 l 231 1031 z "},"Ģ":{"ha":929,"x_min":76,"x_max":836,"o":"m 479 375 l 479 558 l 836 558 l 836 21 q 670 -2 764 7 q 506 -11 576 -11 q 232 27 321 -11 q 110 166 143 65 q 76 478 76 267 q 110 777 76 675 q 235 923 144 879 q 504 967 325 967 q 708 954 607 967 q 832 935 810 942 l 832 751 q 593 771 676 771 q 405 756 456 771 q 338 685 354 742 q 321 478 321 628 q 333 283 321 342 q 385 201 346 224 q 515 179 425 179 q 611 183 565 179 l 611 375 l 479 375 m 346 -315 q 422 -305 404 -315 q 439 -262 439 -294 l 439 -247 l 356 -247 l 356 -82 l 581 -82 l 581 -193 q 565 -324 581 -282 q 500 -384 549 -367 q 346 -401 451 -401 l 346 -315 z "},"Ġ":{"ha":929,"x_min":76,"x_max":836,"o":"m 479 375 l 479 558 l 836 558 l 836 21 q 670 -2 764 7 q 506 -11 576 -11 q 232 27 321 -11 q 110 166 143 65 q 76 478 76 267 q 110 777 76 675 q 235 923 144 879 q 504 967 325 967 q 708 954 607 967 q 832 935 810 942 l 832 751 q 593 771 676 771 q 405 756 456 771 q 338 685 354 742 q 321 478 321 628 q 333 283 321 342 q 385 201 346 224 q 515 179 425 179 q 611 183 565 179 l 611 375 l 479 375 m 372 1061 l 372 1215 l 554 1215 l 554 1061 l 372 1061 z "},"H":{"ha":986,"x_min":99,"x_max":888,"o":"m 646 0 l 646 375 l 340 375 l 340 0 l 99 0 l 99 956 l 340 956 l 340 583 l 646 583 l 646 956 l 888 956 l 888 0 l 646 0 z "},"Ħ":{"ha":986,"x_min":99,"x_max":888,"o":"m 646 956 l 888 956 l 888 0 l 646 0 l 646 319 l 340 319 l 340 0 l 99 0 l 99 956 l 340 956 l 340 821 l 646 821 l 646 956 m 340 528 l 646 528 l 646 657 l 340 657 l 340 528 z "},"Ĥ":{"ha":986,"x_min":99,"x_max":888,"o":"m 646 0 l 646 375 l 340 375 l 340 0 l 99 0 l 99 956 l 340 956 l 340 583 l 646 583 l 646 956 l 888 956 l 888 0 l 646 0 m 260 1031 l 260 1040 l 389 1233 l 596 1233 l 728 1040 l 728 1031 l 583 1031 l 492 1142 l 403 1031 l 260 1031 z "},"Ḥ":{"ha":986,"x_min":99,"x_max":888,"o":"m 646 0 l 646 375 l 340 375 l 340 0 l 99 0 l 99 956 l 340 956 l 340 583 l 646 583 l 646 956 l 888 956 l 888 0 l 646 0 m 374 -293 l 374 -86 l 611 -86 l 611 -293 l 374 -293 z "},"I":{"ha":439,"x_min":99,"x_max":340,"o":"m 99 0 l 99 956 l 340 956 l 340 0 l 99 0 z "},"Ĳ":{"ha":1000,"x_min":99,"x_max":906,"o":"m 99 0 l 99 956 l 340 956 l 340 0 l 99 0 m 471 181 q 610 192 574 182 q 655 235 646 201 q 664 368 664 269 l 664 956 l 906 956 l 906 432 q 883 125 906 206 q 779 22 860 44 q 471 0 699 0 l 471 181 z "},"Í":{"ha":439,"x_min":99,"x_max":444,"o":"m 99 0 l 99 956 l 340 956 l 340 0 l 99 0 m 103 1040 l 103 1047 l 229 1243 l 444 1243 l 444 1236 l 261 1040 l 103 1040 z "},"Ĭ":{"ha":439,"x_min":8,"x_max":431,"o":"m 99 0 l 99 956 l 340 956 l 340 0 l 99 0 m 431 1233 q 415 1120 431 1164 q 353 1051 400 1076 q 218 1025 307 1025 q 83 1051 129 1025 q 23 1120 38 1076 q 8 1233 8 1164 l 131 1233 q 135 1185 131 1201 q 158 1158 139 1168 q 218 1147 176 1147 q 278 1158 260 1147 q 302 1185 297 1168 q 307 1233 307 1201 l 431 1233 z "},"Ǐ":{"ha":439,"x_min":-14,"x_max":454,"o":"m 99 0 l 99 956 l 340 956 l 340 0 l 99 0 m 115 1031 l -14 1224 l -14 1233 l 129 1233 l 221 1122 l 310 1233 l 454 1233 l 454 1224 l 322 1031 l 115 1031 z "},"Î":{"ha":439,"x_min":-14,"x_max":454,"o":"m 99 0 l 99 956 l 340 956 l 340 0 l 99 0 m -14 1042 l -14 1051 l 115 1244 l 322 1244 l 454 1051 l 454 1042 l 310 1042 l 218 1153 l 129 1042 l -14 1042 z "},"Ȉ":{"ha":439,"x_min":-118,"x_max":432,"o":"m 99 0 l 99 956 l 340 956 l 340 0 l 99 0 m 169 1047 l 38 1047 l -118 1213 l -118 1218 l 60 1218 l 169 1054 l 169 1047 m 432 1047 l 301 1047 l 147 1213 l 147 1218 l 325 1218 l 432 1054 l 432 1047 z "},"Ï":{"ha":439,"x_min":-14,"x_max":454,"o":"m 99 0 l 99 956 l 340 956 l 340 0 l 99 0 m -14 1079 l -14 1233 l 168 1233 l 168 1079 l -14 1079 m 272 1079 l 272 1233 l 454 1233 l 454 1079 l 272 1079 z "},"İ":{"ha":439,"x_min":99,"x_max":340,"o":"m 99 0 l 99 956 l 340 956 l 340 0 l 99 0 m 128 1061 l 128 1215 l 310 1215 l 310 1061 l 128 1061 z "},"Ị":{"ha":439,"x_min":99,"x_max":340,"o":"m 99 0 l 99 956 l 340 956 l 340 0 l 99 0 m 100 -293 l 100 -86 l 338 -86 l 338 -293 l 100 -293 z "},"Ì":{"ha":439,"x_min":0,"x_max":342,"o":"m 99 0 l 99 956 l 340 956 l 340 0 l 99 0 m 183 1042 l 0 1238 l 0 1244 l 215 1244 l 342 1049 l 342 1042 l 183 1042 z "},"Ỉ":{"ha":439,"x_min":31,"x_max":407,"o":"m 99 0 l 99 956 l 340 956 l 340 0 l 99 0 m 124 1018 q 136 1083 124 1065 q 190 1111 149 1100 l 215 1118 q 256 1134 247 1126 q 265 1160 265 1142 q 249 1194 265 1188 q 175 1200 232 1200 q 31 1193 96 1200 l 31 1297 q 116 1307 65 1303 q 210 1311 167 1311 q 319 1303 279 1311 q 383 1266 360 1296 q 407 1175 407 1236 q 397 1113 407 1135 q 366 1079 386 1090 q 308 1058 346 1068 l 288 1051 q 249 1036 257 1043 q 242 1011 242 1029 l 124 1011 l 124 1018 z "},"Ȋ":{"ha":439,"x_min":8,"x_max":431,"o":"m 99 0 l 99 956 l 340 956 l 340 0 l 99 0 m 8 1033 q 24 1147 8 1103 q 85 1216 39 1190 q 221 1242 132 1242 q 356 1216 310 1242 q 416 1147 401 1190 q 431 1033 431 1103 l 308 1033 q 304 1082 308 1065 q 281 1109 300 1099 q 221 1119 263 1119 q 160 1109 179 1119 q 137 1082 142 1099 q 132 1033 132 1065 l 8 1033 z "},"Ī":{"ha":439,"x_min":29,"x_max":411,"o":"m 99 0 l 99 956 l 340 956 l 340 0 l 99 0 m 29 1049 l 29 1233 l 411 1233 l 411 1049 l 29 1049 z "},"Į":{"ha":439,"x_min":72,"x_max":342,"o":"m 247 -272 q 72 -156 72 -272 q 157 0 72 -81 l 99 0 l 99 956 l 340 956 l 340 0 q 281 -49 308 -18 q 253 -108 253 -79 q 267 -142 253 -131 q 318 -154 282 -154 q 342 -153 336 -154 l 342 -268 q 247 -272 300 -272 z "},"Ĩ":{"ha":439,"x_min":-53,"x_max":489,"o":"m 99 0 l 99 956 l 340 956 l 340 0 l 99 0 m 489 1233 q 482 1119 489 1158 q 448 1057 475 1079 q 361 1035 421 1035 q 289 1041 325 1035 q 199 1060 253 1047 q 94 1078 121 1078 q 65 1067 71 1078 q 60 1018 60 1056 l -53 1018 q -46 1134 -53 1094 q -11 1196 -39 1174 q 76 1218 17 1218 q 151 1211 114 1218 q 239 1192 189 1204 q 287 1181 251 1189 q 343 1174 322 1174 q 372 1185 367 1174 q 378 1233 378 1196 l 489 1233 z "},"J":{"ha":561,"x_min":32,"x_max":467,"o":"m 32 181 q 171 192 135 182 q 216 235 207 201 q 225 368 225 269 l 225 956 l 467 956 l 467 432 q 444 125 467 206 q 340 22 421 44 q 32 0 260 0 l 32 181 z "},"Ĵ":{"ha":561,"x_min":32,"x_max":581,"o":"m 32 181 q 171 192 135 182 q 216 235 207 201 q 225 368 225 269 l 225 956 l 467 956 l 467 432 q 444 125 467 206 q 340 22 421 44 q 32 0 260 0 l 32 181 m 113 1031 l 113 1040 l 242 1233 l 449 1233 l 581 1040 l 581 1031 l 436 1031 l 344 1142 l 256 1031 l 113 1031 z "},"K":{"ha":953,"x_min":101,"x_max":946,"o":"m 674 0 l 403 389 l 343 389 l 343 0 l 101 0 l 101 956 l 343 956 l 343 583 l 403 583 l 676 956 l 942 956 l 596 503 l 946 0 l 674 0 z "},"Ķ":{"ha":953,"x_min":101,"x_max":946,"o":"m 674 0 l 403 389 l 343 389 l 343 0 l 101 0 l 101 956 l 343 956 l 343 583 l 403 583 l 676 956 l 942 956 l 596 503 l 946 0 l 674 0 m 358 -315 q 434 -305 417 -315 q 451 -262 451 -294 l 451 -247 l 368 -247 l 368 -82 l 593 -82 l 593 -193 q 577 -324 593 -282 q 513 -384 561 -367 q 358 -401 464 -401 l 358 -315 z "},"L":{"ha":754,"x_min":101,"x_max":722,"o":"m 101 0 l 101 956 l 343 956 l 343 206 l 722 206 l 722 0 l 101 0 z "},"Ǉ":{"ha":1315,"x_min":101,"x_max":1221,"o":"m 101 0 l 101 956 l 343 956 l 343 206 l 722 206 l 722 0 l 101 0 m 786 181 q 925 192 889 182 q 970 235 961 201 q 979 368 979 269 l 979 956 l 1221 956 l 1221 432 q 1198 125 1221 206 q 1094 22 1175 44 q 786 0 1014 0 l 786 181 z "},"Ĺ":{"ha":754,"x_min":101,"x_max":722,"o":"m 101 0 l 101 956 l 343 956 l 343 206 l 722 206 l 722 0 l 101 0 m 272 1031 l 272 1038 l 399 1233 l 614 1233 l 614 1226 l 431 1031 l 272 1031 z "},"Ľ":{"ha":754,"x_min":101,"x_max":943,"o":"m 101 0 l 101 956 l 343 956 l 343 206 l 722 206 l 722 0 l 101 0 m 726 788 l 744 1072 l 744 1149 l 943 1149 l 943 1072 l 878 788 l 726 788 z "},"Ļ":{"ha":754,"x_min":101,"x_max":722,"o":"m 101 0 l 101 956 l 343 956 l 343 206 l 722 206 l 722 0 l 101 0 m 261 -315 q 337 -305 319 -315 q 354 -262 354 -294 l 354 -247 l 271 -247 l 271 -82 l 496 -82 l 496 -193 q 480 -324 496 -282 q 415 -384 464 -367 q 261 -401 367 -401 l 261 -315 z "},"Ŀ":{"ha":754,"x_min":101,"x_max":722,"o":"m 101 0 l 101 956 l 343 956 l 343 206 l 722 206 l 722 0 l 101 0 m 478 426 l 478 633 l 715 633 l 715 426 l 478 426 z "},"ǈ":{"ha":1150,"x_min":101,"x_max":1067,"o":"m 101 0 l 101 956 l 343 956 l 343 206 l 722 206 l 722 0 l 101 0 m 838 849 l 838 1032 l 1067 1032 l 1067 849 l 838 849 m 725 -117 q 801 -110 778 -117 q 832 -88 825 -103 q 839 -44 839 -74 l 839 708 l 1065 708 l 1065 6 q 1038 -184 1065 -126 q 944 -260 1011 -242 q 725 -278 876 -278 l 725 -117 z "},"Ł":{"ha":742,"x_min":21,"x_max":722,"o":"m 343 206 l 722 206 l 722 0 l 101 0 l 101 364 l 21 333 l 21 499 l 101 529 l 101 956 l 343 956 l 343 619 l 547 696 l 547 531 l 343 454 l 343 206 z "},"M":{"ha":1246,"x_min":99,"x_max":1147,"o":"m 915 0 l 915 608 l 906 608 l 701 0 l 538 0 l 333 608 l 324 608 l 324 0 l 99 0 l 99 956 l 431 956 l 619 404 l 629 404 l 817 956 l 1147 956 l 1147 0 l 915 0 z "},"N":{"ha":992,"x_min":99,"x_max":893,"o":"m 667 0 l 336 546 l 329 546 l 329 0 l 99 0 l 99 956 l 347 956 l 654 460 l 661 460 l 661 956 l 893 956 l 893 0 l 667 0 z "},"Ǌ":{"ha":1553,"x_min":99,"x_max":1458,"o":"m 667 0 l 336 546 l 329 546 l 329 0 l 99 0 l 99 956 l 347 956 l 654 460 l 661 460 l 661 956 l 893 956 l 893 0 l 667 0 m 1024 181 q 1163 192 1126 182 q 1208 235 1199 201 q 1217 368 1217 269 l 1217 956 l 1458 956 l 1458 432 q 1435 125 1458 206 q 1332 22 1413 44 q 1024 0 1251 0 l 1024 181 z "},"Ń":{"ha":992,"x_min":99,"x_max":893,"o":"m 667 0 l 336 546 l 329 546 l 329 0 l 99 0 l 99 956 l 347 956 l 654 460 l 661 460 l 661 956 l 893 956 l 893 0 l 667 0 m 408 1031 l 408 1038 l 535 1233 l 750 1233 l 750 1226 l 567 1031 l 408 1031 z "},"Ň":{"ha":992,"x_min":99,"x_max":893,"o":"m 667 0 l 336 546 l 329 546 l 329 0 l 99 0 l 99 956 l 347 956 l 654 460 l 661 460 l 661 956 l 893 956 l 893 0 l 667 0 m 392 1031 l 263 1224 l 263 1233 l 406 1233 l 497 1122 l 586 1233 l 731 1233 l 731 1224 l 599 1031 l 392 1031 z "},"Ņ":{"ha":992,"x_min":99,"x_max":893,"o":"m 667 0 l 336 546 l 329 546 l 329 0 l 99 0 l 99 956 l 347 956 l 654 460 l 661 460 l 661 956 l 893 956 l 893 0 l 667 0 m 378 -315 q 453 -305 436 -315 q 471 -262 471 -294 l 471 -247 l 388 -247 l 388 -82 l 613 -82 l 613 -193 q 597 -324 613 -282 q 532 -384 581 -367 q 378 -401 483 -401 l 378 -315 z "},"Ṅ":{"ha":992,"x_min":99,"x_max":893,"o":"m 667 0 l 336 546 l 329 546 l 329 0 l 99 0 l 99 956 l 347 956 l 654 460 l 661 460 l 661 956 l 893 956 l 893 0 l 667 0 m 404 1061 l 404 1215 l 586 1215 l 586 1061 l 404 1061 z "},"Ŋ":{"ha":992,"x_min":99,"x_max":893,"o":"m 893 956 l 893 7 q 866 -183 893 -125 q 770 -260 839 -242 q 549 -278 701 -278 l 549 -117 q 625 -110 601 -117 q 655 -89 649 -103 q 661 -44 661 -75 l 661 11 l 336 546 l 329 546 l 329 0 l 99 0 l 99 956 l 347 956 l 654 460 l 661 460 l 661 956 l 893 956 z "},"Ɲ":{"ha":992,"x_min":-15,"x_max":893,"o":"m 893 956 l 893 0 l 667 0 l 336 546 l 329 546 l 329 6 q 302 -184 329 -126 q 207 -260 275 -242 q -15 -278 139 -278 l -15 -117 q 61 -110 38 -117 q 92 -88 85 -103 q 99 -44 99 -74 l 99 956 l 347 956 l 654 460 l 661 460 l 661 956 l 893 956 z "},"ǋ":{"ha":1388,"x_min":99,"x_max":1304,"o":"m 667 0 l 336 546 l 329 546 l 329 0 l 99 0 l 99 956 l 347 956 l 654 460 l 661 460 l 661 956 l 893 956 l 893 0 l 667 0 m 1075 849 l 1075 1032 l 1304 1032 l 1304 849 l 1075 849 m 963 -117 q 1039 -110 1015 -117 q 1069 -88 1063 -103 q 1076 -44 1076 -74 l 1076 708 l 1303 708 l 1303 6 q 1276 -184 1303 -126 q 1181 -260 1249 -242 q 963 -278 1114 -278 l 963 -117 z "},"Ñ":{"ha":992,"x_min":99,"x_max":893,"o":"m 667 0 l 336 546 l 329 546 l 329 0 l 99 0 l 99 956 l 347 956 l 654 460 l 661 460 l 661 956 l 893 956 l 893 0 l 667 0 m 765 1258 q 758 1144 765 1183 q 724 1082 751 1104 q 638 1060 697 1060 q 565 1066 601 1060 q 475 1085 529 1072 q 371 1103 397 1103 q 342 1092 347 1103 q 336 1043 336 1081 l 224 1043 q 231 1159 224 1119 q 265 1221 238 1199 q 353 1243 293 1243 q 428 1236 390 1243 q 515 1217 465 1229 q 563 1206 528 1214 q 619 1199 599 1199 q 649 1210 643 1199 q 654 1258 654 1221 l 765 1258 z "},"O":{"ha":982,"x_min":76,"x_max":906,"o":"m 492 -11 q 205 31 290 -11 q 98 167 119 74 q 76 478 76 260 q 98 789 76 696 q 205 924 119 882 q 492 967 290 967 q 778 924 693 967 q 885 789 864 882 q 906 478 906 696 q 885 167 906 260 q 778 31 864 74 q 492 -11 693 -11 m 492 185 q 613 199 582 185 q 651 267 643 214 q 660 478 660 319 q 651 689 660 636 q 613 756 643 742 q 492 771 582 771 q 369 756 401 771 q 329 688 338 742 q 321 478 321 633 q 329 268 321 322 q 369 199 338 214 q 492 185 401 185 z "},"Ó":{"ha":972,"x_min":76,"x_max":906,"o":"m 492 -11 q 205 31 290 -11 q 98 167 119 74 q 76 478 76 260 q 98 789 76 696 q 205 924 119 882 q 492 967 290 967 q 778 924 693 967 q 885 789 864 882 q 906 478 906 696 q 885 167 906 260 q 778 31 864 74 q 492 -11 693 -11 m 492 185 q 613 199 582 185 q 651 267 643 214 q 660 478 660 319 q 651 689 660 636 q 613 756 643 742 q 492 771 582 771 q 369 756 401 771 q 329 688 338 742 q 321 478 321 633 q 329 268 321 322 q 369 199 338 214 q 492 185 401 185 m 389 1042 l 389 1049 l 515 1244 l 731 1244 l 731 1238 l 547 1042 l 389 1042 z "},"Ŏ":{"ha":982,"x_min":76,"x_max":906,"o":"m 492 -11 q 205 31 290 -11 q 98 167 119 74 q 76 478 76 260 q 98 789 76 696 q 205 924 119 882 q 492 967 290 967 q 778 924 693 967 q 885 789 864 882 q 906 478 906 696 q 885 167 906 260 q 778 31 864 74 q 492 -11 693 -11 m 492 185 q 613 199 582 185 q 651 267 643 214 q 660 478 660 319 q 651 689 660 636 q 613 756 643 742 q 492 771 582 771 q 369 756 401 771 q 329 688 338 742 q 321 478 321 633 q 329 268 321 322 q 369 199 338 214 q 492 185 401 185 m 703 1233 q 688 1120 703 1164 q 626 1051 672 1076 q 490 1025 579 1025 q 356 1051 401 1025 q 295 1120 310 1076 q 281 1233 281 1164 l 403 1233 q 407 1185 403 1201 q 430 1158 411 1168 q 490 1147 449 1147 q 551 1158 532 1147 q 574 1185 569 1168 q 579 1233 579 1201 l 703 1233 z "},"Ǒ":{"ha":982,"x_min":76,"x_max":906,"o":"m 492 -11 q 205 31 290 -11 q 98 167 119 74 q 76 478 76 260 q 98 789 76 696 q 205 924 119 882 q 492 967 290 967 q 778 924 693 967 q 885 789 864 882 q 906 478 906 696 q 885 167 906 260 q 778 31 864 74 q 492 -11 693 -11 m 492 185 q 613 199 582 185 q 651 267 643 214 q 660 478 660 319 q 651 689 660 636 q 613 756 643 742 q 492 771 582 771 q 369 756 401 771 q 329 688 338 742 q 321 478 321 633 q 329 268 321 322 q 369 199 338 214 q 492 185 401 185 m 388 1031 l 258 1224 l 258 1233 l 401 1233 l 493 1122 l 582 1233 l 726 1233 l 726 1224 l 594 1031 l 388 1031 z "},"Ô":{"ha":972,"x_min":76,"x_max":906,"o":"m 492 -11 q 205 31 290 -11 q 98 167 119 74 q 76 478 76 260 q 98 789 76 696 q 205 924 119 882 q 492 967 290 967 q 778 924 693 967 q 885 789 864 882 q 906 478 906 696 q 885 167 906 260 q 778 31 864 74 q 492 -11 693 -11 m 492 185 q 613 199 582 185 q 651 267 643 214 q 660 478 660 319 q 651 689 660 636 q 613 756 643 742 q 492 771 582 771 q 369 756 401 771 q 329 688 338 742 q 321 478 321 633 q 329 268 321 322 q 369 199 338 214 q 492 185 401 185 m 251 1042 l 251 1051 l 381 1244 l 588 1244 l 719 1051 l 719 1042 l 575 1042 l 483 1153 l 394 1042 l 251 1042 z "},"Ố":{"ha":982,"x_min":76,"x_max":906,"o":"m 492 -11 q 205 31 290 -11 q 98 167 119 74 q 76 478 76 260 q 98 789 76 696 q 205 924 119 882 q 492 967 290 967 q 778 924 693 967 q 885 789 864 882 q 906 478 906 696 q 885 167 906 260 q 778 31 864 74 q 492 -11 693 -11 m 492 185 q 613 199 582 185 q 651 267 643 214 q 660 478 660 319 q 651 689 660 636 q 613 756 643 742 q 492 771 582 771 q 369 756 401 771 q 329 688 338 742 q 321 478 321 633 q 329 268 321 322 q 369 199 338 214 q 492 185 401 185 m 256 1031 l 256 1040 l 385 1233 l 592 1233 l 724 1040 l 724 1031 l 579 1031 l 488 1142 l 399 1031 l 256 1031 m 508 1271 l 508 1278 l 635 1474 l 850 1474 l 850 1467 l 667 1271 l 508 1271 z "},"Ộ":{"ha":982,"x_min":76,"x_max":906,"o":"m 492 -11 q 205 31 290 -11 q 98 167 119 74 q 76 478 76 260 q 98 789 76 696 q 205 924 119 882 q 492 967 290 967 q 778 924 693 967 q 885 789 864 882 q 906 478 906 696 q 885 167 906 260 q 778 31 864 74 q 492 -11 693 -11 m 492 185 q 613 199 582 185 q 651 267 643 214 q 660 478 660 319 q 651 689 660 636 q 613 756 643 742 q 492 771 582 771 q 369 756 401 771 q 329 688 338 742 q 321 478 321 633 q 329 268 321 322 q 369 199 338 214 q 492 185 401 185 m 372 -293 l 372 -86 l 610 -86 l 610 -293 l 372 -293 m 258 1031 l 258 1040 l 388 1233 l 594 1233 l 726 1040 l 726 1031 l 582 1031 l 490 1142 l 401 1031 l 258 1031 z "},"Ồ":{"ha":982,"x_min":76,"x_max":906,"o":"m 492 -11 q 205 31 290 -11 q 98 167 119 74 q 76 478 76 260 q 98 789 76 696 q 205 924 119 882 q 492 967 290 967 q 778 924 693 967 q 885 789 864 882 q 906 478 906 696 q 885 167 906 260 q 778 31 864 74 q 492 -11 693 -11 m 492 185 q 613 199 582 185 q 651 267 643 214 q 660 478 660 319 q 651 689 660 636 q 613 756 643 742 q 492 771 582 771 q 369 756 401 771 q 329 688 338 742 q 321 478 321 633 q 329 268 321 322 q 369 199 338 214 q 492 185 401 185 m 250 1031 l 250 1040 l 379 1233 l 586 1233 l 718 1040 l 718 1031 l 574 1031 l 482 1142 l 393 1031 l 250 1031 m 568 1271 l 385 1467 l 385 1474 l 600 1474 l 726 1278 l 726 1271 l 568 1271 z "},"Ổ":{"ha":982,"x_min":76,"x_max":906,"o":"m 492 -11 q 205 31 290 -11 q 98 167 119 74 q 76 478 76 260 q 98 789 76 696 q 205 924 119 882 q 492 967 290 967 q 778 924 693 967 q 885 789 864 882 q 906 478 906 696 q 885 167 906 260 q 778 31 864 74 q 492 -11 693 -11 m 492 185 q 613 199 582 185 q 651 267 643 214 q 660 478 660 319 q 651 689 660 636 q 613 756 643 742 q 492 771 582 771 q 369 756 401 771 q 329 688 338 742 q 321 478 321 633 q 329 268 321 322 q 369 199 338 214 q 492 185 401 185 m 258 1031 l 258 1040 l 388 1233 l 594 1233 l 726 1040 l 726 1031 l 582 1031 l 490 1142 l 401 1031 l 258 1031 m 550 1268 q 563 1333 550 1315 q 617 1361 575 1350 l 642 1368 q 683 1384 674 1376 q 692 1410 692 1392 q 675 1444 692 1438 q 601 1450 658 1450 q 457 1443 522 1450 l 457 1547 q 542 1557 492 1553 q 636 1561 593 1561 q 746 1553 706 1561 q 810 1516 786 1546 q 833 1425 833 1486 q 823 1363 833 1385 q 792 1329 813 1340 q 735 1308 772 1318 l 714 1301 q 676 1286 683 1293 q 668 1261 668 1279 l 550 1261 l 550 1268 z "},"Ỗ":{"ha":982,"x_min":76,"x_max":906,"o":"m 492 -11 q 205 31 290 -11 q 98 167 119 74 q 76 478 76 260 q 98 789 76 696 q 205 924 119 882 q 492 967 290 967 q 778 924 693 967 q 885 789 864 882 q 906 478 906 696 q 885 167 906 260 q 778 31 864 74 q 492 -11 693 -11 m 492 185 q 613 199 582 185 q 651 267 643 214 q 660 478 660 319 q 651 689 660 636 q 613 756 643 742 q 492 771 582 771 q 369 756 401 771 q 329 688 338 742 q 321 478 321 633 q 329 268 321 322 q 369 199 338 214 q 492 185 401 185 m 256 1031 l 256 1040 l 385 1233 l 592 1233 l 724 1040 l 724 1031 l 579 1031 l 488 1142 l 399 1031 l 256 1031 m 761 1474 q 754 1359 761 1399 q 720 1297 747 1319 q 633 1275 693 1275 q 561 1281 597 1275 q 471 1300 525 1288 q 367 1318 393 1318 q 338 1307 343 1318 q 332 1258 332 1296 l 219 1258 q 226 1374 219 1335 q 261 1436 233 1414 q 349 1458 289 1458 q 424 1451 386 1458 q 511 1432 461 1444 q 559 1422 524 1429 q 615 1414 594 1414 q 644 1425 639 1414 q 650 1474 650 1436 l 761 1474 z "},"Ȍ":{"ha":982,"x_min":76,"x_max":906,"o":"m 492 -11 q 205 31 290 -11 q 98 167 119 74 q 76 478 76 260 q 98 789 76 696 q 205 924 119 882 q 492 967 290 967 q 778 924 693 967 q 885 789 864 882 q 906 478 906 696 q 885 167 906 260 q 778 31 864 74 q 492 -11 693 -11 m 492 185 q 613 199 582 185 q 651 267 643 214 q 660 478 660 319 q 651 689 660 636 q 613 756 643 742 q 492 771 582 771 q 369 756 401 771 q 329 688 338 742 q 321 478 321 633 q 329 268 321 322 q 369 199 338 214 q 492 185 401 185 m 442 1047 l 310 1047 l 154 1213 l 154 1218 l 332 1218 l 442 1054 l 442 1047 m 704 1047 l 574 1047 l 419 1213 l 419 1218 l 597 1218 l 704 1054 l 704 1047 z "},"Ö":{"ha":972,"x_min":76,"x_max":906,"o":"m 492 -11 q 205 31 290 -11 q 98 167 119 74 q 76 478 76 260 q 98 789 76 696 q 205 924 119 882 q 492 967 290 967 q 778 924 693 967 q 885 789 864 882 q 906 478 906 696 q 885 167 906 260 q 778 31 864 74 q 492 -11 693 -11 m 492 185 q 613 199 582 185 q 651 267 643 214 q 660 478 660 319 q 651 689 660 636 q 613 756 643 742 q 492 771 582 771 q 369 756 401 771 q 329 688 338 742 q 321 478 321 633 q 329 268 321 322 q 369 199 338 214 q 492 185 401 185 m 253 1079 l 253 1233 l 435 1233 l 435 1079 l 253 1079 m 539 1079 l 539 1233 l 721 1233 l 721 1079 l 539 1079 z "},"Ọ":{"ha":982,"x_min":76,"x_max":906,"o":"m 492 -11 q 205 31 290 -11 q 98 167 119 74 q 76 478 76 260 q 98 789 76 696 q 205 924 119 882 q 492 967 290 967 q 778 924 693 967 q 885 789 864 882 q 906 478 906 696 q 885 167 906 260 q 778 31 864 74 q 492 -11 693 -11 m 492 185 q 613 199 582 185 q 651 267 643 214 q 660 478 660 319 q 651 689 660 636 q 613 756 643 742 q 492 771 582 771 q 369 756 401 771 q 329 688 338 742 q 321 478 321 633 q 329 268 321 322 q 369 199 338 214 q 492 185 401 185 m 372 -293 l 372 -86 l 610 -86 l 610 -293 l 372 -293 z "},"Ò":{"ha":972,"x_min":76,"x_max":906,"o":"m 492 -11 q 205 31 290 -11 q 98 167 119 74 q 76 478 76 260 q 98 789 76 696 q 205 924 119 882 q 492 967 290 967 q 778 924 693 967 q 885 789 864 882 q 906 478 906 696 q 885 167 906 260 q 778 31 864 74 q 492 -11 693 -11 m 492 185 q 613 199 582 185 q 651 267 643 214 q 660 478 660 319 q 651 689 660 636 q 613 756 643 742 q 492 771 582 771 q 369 756 401 771 q 329 688 338 742 q 321 478 321 633 q 329 268 321 322 q 369 199 338 214 q 492 185 401 185 m 421 1042 l 238 1238 l 238 1244 l 453 1244 l 579 1049 l 579 1042 l 421 1042 z "},"Ỏ":{"ha":982,"x_min":76,"x_max":906,"o":"m 492 -11 q 205 31 290 -11 q 98 167 119 74 q 76 478 76 260 q 98 789 76 696 q 205 924 119 882 q 492 967 290 967 q 778 924 693 967 q 885 789 864 882 q 906 478 906 696 q 885 167 906 260 q 778 31 864 74 q 492 -11 693 -11 m 492 185 q 613 199 582 185 q 651 267 643 214 q 660 478 660 319 q 651 689 660 636 q 613 756 643 742 q 492 771 582 771 q 369 756 401 771 q 329 688 338 742 q 321 478 321 633 q 329 268 321 322 q 369 199 338 214 q 492 185 401 185 m 396 1018 q 408 1083 396 1065 q 463 1111 421 1100 l 488 1118 q 528 1134 519 1126 q 538 1160 538 1142 q 521 1194 538 1188 q 447 1200 504 1200 q 303 1193 368 1200 l 303 1297 q 388 1307 338 1303 q 482 1311 439 1311 q 592 1303 551 1311 q 656 1266 632 1296 q 679 1175 679 1236 q 669 1113 679 1135 q 638 1079 658 1090 q 581 1058 618 1068 l 560 1051 q 522 1036 529 1043 q 514 1011 514 1029 l 396 1011 l 396 1018 z "},"Ơ":{"ha":982,"x_min":76,"x_max":1006,"o":"m 1006 1081 l 1006 1057 q 994 953 1006 989 q 948 897 982 917 q 843 874 914 878 q 895 737 885 822 q 906 478 906 651 q 885 167 906 260 q 778 31 864 74 q 492 -11 693 -11 q 205 31 290 -11 q 98 167 119 74 q 76 478 76 260 q 98 789 76 696 q 205 924 119 882 q 492 967 290 967 q 699 950 618 967 l 699 956 l 771 956 q 829 964 811 956 q 853 990 847 972 q 860 1046 860 1008 l 860 1081 l 1006 1081 m 492 185 q 613 199 582 185 q 651 267 643 214 q 660 478 660 319 q 651 689 660 636 q 613 756 643 742 q 492 771 582 771 q 369 756 401 771 q 329 688 338 742 q 321 478 321 633 q 329 268 321 322 q 369 199 338 214 q 492 185 401 185 z "},"Ớ":{"ha":982,"x_min":76,"x_max":1006,"o":"m 1006 1081 l 1006 1057 q 994 953 1006 989 q 948 897 982 917 q 843 874 914 878 q 895 737 885 822 q 906 478 906 651 q 885 167 906 260 q 778 31 864 74 q 492 -11 693 -11 q 205 31 290 -11 q 98 167 119 74 q 76 478 76 260 q 98 789 76 696 q 205 924 119 882 q 492 967 290 967 q 699 950 618 967 l 699 956 l 771 956 q 829 964 811 956 q 853 990 847 972 q 860 1046 860 1008 l 860 1081 l 1006 1081 m 492 185 q 613 199 582 185 q 651 267 643 214 q 660 478 660 319 q 651 689 660 636 q 613 756 643 742 q 492 771 582 771 q 369 756 401 771 q 329 688 338 742 q 321 478 321 633 q 329 268 321 322 q 369 199 338 214 q 492 185 401 185 m 404 1031 l 404 1038 l 531 1233 l 746 1233 l 746 1226 l 563 1031 l 404 1031 z "},"Ợ":{"ha":982,"x_min":76,"x_max":1006,"o":"m 1006 1081 l 1006 1057 q 994 953 1006 989 q 948 897 982 917 q 843 874 914 878 q 895 737 885 822 q 906 478 906 651 q 885 167 906 260 q 778 31 864 74 q 492 -11 693 -11 q 205 31 290 -11 q 98 167 119 74 q 76 478 76 260 q 98 789 76 696 q 205 924 119 882 q 492 967 290 967 q 699 950 618 967 l 699 956 l 771 956 q 829 964 811 956 q 853 990 847 972 q 860 1046 860 1008 l 860 1081 l 1006 1081 m 492 185 q 613 199 582 185 q 651 267 643 214 q 660 478 660 319 q 651 689 660 636 q 613 756 643 742 q 492 771 582 771 q 369 756 401 771 q 329 688 338 742 q 321 478 321 633 q 329 268 321 322 q 369 199 338 214 q 492 185 401 185 m 372 -293 l 372 -86 l 610 -86 l 610 -293 l 372 -293 z "},"Ờ":{"ha":982,"x_min":76,"x_max":1006,"o":"m 1006 1081 l 1006 1057 q 994 953 1006 989 q 948 897 982 917 q 843 874 914 878 q 895 737 885 822 q 906 478 906 651 q 885 167 906 260 q 778 31 864 74 q 492 -11 693 -11 q 205 31 290 -11 q 98 167 119 74 q 76 478 76 260 q 98 789 76 696 q 205 924 119 882 q 492 967 290 967 q 699 950 618 967 l 699 956 l 771 956 q 829 964 811 956 q 853 990 847 972 q 860 1046 860 1008 l 860 1081 l 1006 1081 m 492 185 q 613 199 582 185 q 651 267 643 214 q 660 478 660 319 q 651 689 660 636 q 613 756 643 742 q 492 771 582 771 q 369 756 401 771 q 329 688 338 742 q 321 478 321 633 q 329 268 321 322 q 369 199 338 214 q 492 185 401 185 m 422 1031 l 239 1226 l 239 1233 l 454 1233 l 581 1038 l 581 1031 l 422 1031 z "},"Ở":{"ha":982,"x_min":76,"x_max":1006,"o":"m 1006 1081 l 1006 1057 q 994 953 1006 989 q 948 897 982 917 q 843 874 914 878 q 895 737 885 822 q 906 478 906 651 q 885 167 906 260 q 778 31 864 74 q 492 -11 693 -11 q 205 31 290 -11 q 98 167 119 74 q 76 478 76 260 q 98 789 76 696 q 205 924 119 882 q 492 967 290 967 q 699 950 618 967 l 699 956 l 771 956 q 829 964 811 956 q 853 990 847 972 q 860 1046 860 1008 l 860 1081 l 1006 1081 m 492 185 q 613 199 582 185 q 651 267 643 214 q 660 478 660 319 q 651 689 660 636 q 613 756 643 742 q 492 771 582 771 q 369 756 401 771 q 329 688 338 742 q 321 478 321 633 q 329 268 321 322 q 369 199 338 214 q 492 185 401 185 m 396 1018 q 408 1083 396 1065 q 463 1111 421 1100 l 488 1118 q 528 1134 519 1126 q 538 1160 538 1142 q 521 1194 538 1188 q 447 1200 504 1200 q 303 1193 368 1200 l 303 1297 q 388 1307 338 1303 q 482 1311 439 1311 q 592 1303 551 1311 q 656 1266 632 1296 q 679 1175 679 1236 q 669 1113 679 1135 q 638 1079 658 1090 q 581 1058 618 1068 l 560 1051 q 522 1036 529 1043 q 514 1011 514 1029 l 396 1011 l 396 1018 z "},"Ỡ":{"ha":982,"x_min":76,"x_max":1006,"o":"m 1006 1081 l 1006 1057 q 994 953 1006 989 q 948 897 982 917 q 843 874 914 878 q 895 737 885 822 q 906 478 906 651 q 885 167 906 260 q 778 31 864 74 q 492 -11 693 -11 q 205 31 290 -11 q 98 167 119 74 q 76 478 76 260 q 98 789 76 696 q 205 924 119 882 q 492 967 290 967 q 699 950 618 967 l 699 956 l 771 956 q 829 964 811 956 q 853 990 847 972 q 860 1046 860 1008 l 860 1081 l 1006 1081 m 492 185 q 613 199 582 185 q 651 267 643 214 q 660 478 660 319 q 651 689 660 636 q 613 756 643 742 q 492 771 582 771 q 369 756 401 771 q 329 688 338 742 q 321 478 321 633 q 329 268 321 322 q 369 199 338 214 q 492 185 401 185 m 761 1233 q 754 1119 761 1158 q 720 1057 747 1079 q 633 1035 693 1035 q 561 1041 597 1035 q 471 1060 525 1047 q 367 1078 393 1078 q 338 1067 343 1078 q 332 1018 332 1056 l 219 1018 q 226 1134 219 1094 q 261 1196 233 1174 q 349 1218 289 1218 q 424 1211 386 1218 q 511 1192 461 1204 q 559 1181 524 1189 q 615 1174 594 1174 q 644 1185 639 1174 q 650 1233 650 1196 l 761 1233 z "},"Ő":{"ha":982,"x_min":76,"x_max":906,"o":"m 492 -11 q 205 31 290 -11 q 98 167 119 74 q 76 478 76 260 q 98 789 76 696 q 205 924 119 882 q 492 967 290 967 q 778 924 693 967 q 885 789 864 882 q 906 478 906 696 q 885 167 906 260 q 778 31 864 74 q 492 -11 693 -11 m 492 185 q 613 199 582 185 q 651 267 643 214 q 660 478 660 319 q 651 689 660 636 q 613 756 643 742 q 492 771 582 771 q 369 756 401 771 q 329 688 338 742 q 321 478 321 633 q 329 268 321 322 q 369 199 338 214 q 492 185 401 185 m 293 1047 l 293 1054 l 400 1218 l 578 1218 l 578 1213 l 424 1047 l 293 1047 m 556 1047 l 556 1054 l 665 1218 l 843 1218 l 843 1213 l 688 1047 l 556 1047 z "},"Ȏ":{"ha":982,"x_min":76,"x_max":906,"o":"m 492 -11 q 205 31 290 -11 q 98 167 119 74 q 76 478 76 260 q 98 789 76 696 q 205 924 119 882 q 492 967 290 967 q 778 924 693 967 q 885 789 864 882 q 906 478 906 696 q 885 167 906 260 q 778 31 864 74 q 492 -11 693 -11 m 492 185 q 613 199 582 185 q 651 267 643 214 q 660 478 660 319 q 651 689 660 636 q 613 756 643 742 q 492 771 582 771 q 369 756 401 771 q 329 688 338 742 q 321 478 321 633 q 329 268 321 322 q 369 199 338 214 q 492 185 401 185 m 281 1033 q 296 1147 281 1103 q 358 1216 311 1190 q 493 1242 404 1242 q 628 1216 582 1242 q 688 1147 674 1190 q 703 1033 703 1103 l 581 1033 q 576 1082 581 1065 q 553 1109 572 1099 q 493 1119 535 1119 q 433 1109 451 1119 q 409 1082 414 1099 q 404 1033 404 1065 l 281 1033 z "},"Ō":{"ha":982,"x_min":76,"x_max":906,"o":"m 492 -11 q 205 31 290 -11 q 98 167 119 74 q 76 478 76 260 q 98 789 76 696 q 205 924 119 882 q 492 967 290 967 q 778 924 693 967 q 885 789 864 882 q 906 478 906 696 q 885 167 906 260 q 778 31 864 74 q 492 -11 693 -11 m 492 185 q 613 199 582 185 q 651 267 643 214 q 660 478 660 319 q 651 689 660 636 q 613 756 643 742 q 492 771 582 771 q 369 756 401 771 q 329 688 338 742 q 321 478 321 633 q 329 268 321 322 q 369 199 338 214 q 492 185 401 185 m 301 1049 l 301 1233 l 683 1233 l 683 1049 l 301 1049 z "},"Ǫ":{"ha":972,"x_min":76,"x_max":896,"o":"m 656 -272 q 481 -156 481 -272 q 549 -10 481 -82 q 485 -11 529 -11 q 202 31 286 -11 q 97 165 118 72 q 76 478 76 258 q 97 790 76 697 q 202 925 118 883 q 485 967 286 967 q 768 925 683 967 q 874 790 853 883 q 896 478 896 696 q 889 250 896 329 q 856 116 882 171 q 774 32 831 61 q 691 -31 721 6 q 661 -110 661 -68 q 725 -154 661 -154 q 750 -153 742 -154 l 750 -268 l 714 -269 q 656 -272 669 -272 m 485 181 q 605 195 574 181 q 644 265 636 210 q 653 478 653 319 q 644 691 653 636 q 605 760 636 746 q 485 775 574 775 q 365 760 396 775 q 326 691 335 746 q 318 478 318 636 q 326 265 318 319 q 365 195 335 210 q 485 181 396 181 z "},"Ø":{"ha":972,"x_min":76,"x_max":906,"o":"m 818 899 q 877 810 858 865 q 901 683 896 756 q 906 478 906 610 q 885 167 906 260 q 778 31 864 74 q 492 -11 693 -11 q 308 0 389 -11 l 264 -76 l 76 -76 l 157 64 q 102 152 119 97 q 81 278 85 207 q 76 478 76 350 q 98 789 76 696 q 205 924 119 882 q 492 967 290 967 q 663 957 596 967 l 707 1032 l 896 1032 l 818 899 m 492 185 q 613 199 582 185 q 651 267 643 214 q 660 478 660 319 q 651 689 660 636 q 613 756 643 742 q 492 771 582 771 q 369 756 401 771 q 329 688 338 742 q 321 478 321 633 q 329 268 321 322 q 369 199 338 214 q 492 185 401 185 z "},"Ǿ":{"ha":972,"x_min":76,"x_max":906,"o":"m 818 899 q 877 810 858 865 q 901 683 896 756 q 906 478 906 610 q 885 167 906 260 q 778 31 864 74 q 492 -11 693 -11 q 308 0 389 -11 l 264 -76 l 76 -76 l 157 64 q 102 152 119 97 q 81 278 85 207 q 76 478 76 350 q 98 789 76 696 q 205 924 119 882 q 492 967 290 967 q 663 957 596 967 l 707 1032 l 896 1032 l 818 899 m 492 185 q 613 199 582 185 q 651 267 643 214 q 660 478 660 319 q 651 689 660 636 q 613 756 643 742 q 492 771 582 771 q 369 756 401 771 q 329 688 338 742 q 321 478 321 633 q 329 268 321 322 q 369 199 338 214 q 492 185 401 185 m 399 1031 l 399 1038 l 525 1233 l 740 1233 l 740 1226 l 557 1031 l 399 1031 z "},"Õ":{"ha":972,"x_min":76,"x_max":906,"o":"m 492 -11 q 205 31 290 -11 q 98 167 119 74 q 76 478 76 260 q 98 789 76 696 q 205 924 119 882 q 492 967 290 967 q 778 924 693 967 q 885 789 864 882 q 906 478 906 696 q 885 167 906 260 q 778 31 864 74 q 492 -11 693 -11 m 492 185 q 613 199 582 185 q 651 267 643 214 q 660 478 660 319 q 651 689 660 636 q 613 756 643 742 q 492 771 582 771 q 369 756 401 771 q 329 688 338 742 q 321 478 321 633 q 329 268 321 322 q 369 199 338 214 q 492 185 401 185 m 758 1257 q 751 1142 758 1182 q 717 1081 744 1103 q 631 1058 690 1058 q 558 1065 594 1058 q 468 1083 522 1071 q 364 1101 390 1101 q 335 1090 340 1101 q 329 1042 329 1079 l 217 1042 q 224 1158 217 1118 q 258 1219 231 1197 q 346 1242 286 1242 q 421 1235 383 1242 q 508 1215 458 1228 q 556 1205 521 1213 q 613 1197 592 1197 q 642 1208 636 1197 q 647 1257 647 1219 l 758 1257 z "},"Œ":{"ha":1403,"x_min":76,"x_max":1328,"o":"m 492 0 q 205 42 290 0 q 98 174 119 83 q 76 478 76 265 q 98 781 76 690 q 205 914 119 872 q 492 956 290 956 l 1328 956 l 1328 760 l 972 760 q 874 771 914 760 q 904 581 900 706 l 1261 581 l 1261 385 l 906 385 q 896 270 903 318 q 874 185 889 222 q 972 196 914 196 l 1328 196 l 1328 0 l 492 0 m 492 196 q 613 210 582 196 q 651 275 643 224 q 660 478 660 326 q 651 681 660 629 q 613 746 643 732 q 492 760 582 760 q 369 746 401 760 q 329 680 338 732 q 321 478 321 628 q 329 276 321 328 q 369 210 338 224 q 492 196 401 196 z "},"P":{"ha":903,"x_min":101,"x_max":857,"o":"m 101 956 l 556 956 q 749 918 683 956 q 835 813 814 881 q 857 631 857 744 q 837 456 857 524 q 751 347 817 388 q 556 307 685 307 l 343 307 l 343 0 l 101 0 l 101 956 m 456 500 q 561 509 529 500 q 603 544 593 518 q 613 631 613 569 q 603 717 613 692 q 562 752 593 743 q 456 761 531 761 l 343 761 l 343 500 l 456 500 z "},"Þ":{"ha":903,"x_min":101,"x_max":857,"o":"m 101 956 l 343 956 l 343 813 l 556 813 q 749 775 683 813 q 835 669 814 738 q 857 488 857 600 q 837 313 857 381 q 751 204 817 244 q 556 164 685 164 l 343 164 l 343 0 l 101 0 l 101 956 m 456 357 q 561 366 529 357 q 603 401 593 375 q 613 488 613 426 q 603 574 613 549 q 562 608 593 599 q 456 617 531 617 l 343 617 l 343 357 l 456 357 z "},"Q":{"ha":972,"x_min":76,"x_max":943,"o":"m 583 -7 q 485 -11 540 -11 q 202 31 286 -11 q 97 165 118 72 q 76 478 76 258 q 97 790 76 697 q 202 925 118 883 q 485 967 286 967 q 768 925 683 967 q 874 790 853 883 q 896 478 896 696 q 889 270 896 347 q 861 140 882 193 q 797 57 840 88 l 943 -151 l 943 -160 l 686 -160 l 583 -7 m 485 181 q 605 195 574 181 q 644 265 636 210 q 653 478 653 319 q 644 691 653 636 q 605 760 636 746 q 485 775 574 775 q 365 760 396 775 q 326 691 335 746 q 318 478 318 636 q 326 265 318 319 q 365 195 335 210 q 485 181 396 181 z "},"R":{"ha":943,"x_min":101,"x_max":889,"o":"m 636 0 l 511 335 l 343 335 l 343 0 l 101 0 l 101 956 l 560 956 q 759 919 692 956 q 848 817 826 882 q 869 644 869 753 q 844 471 869 544 q 742 364 818 397 l 889 0 l 636 0 m 468 526 q 574 535 543 526 q 615 566 606 543 q 625 643 625 589 q 617 722 625 699 q 577 753 608 744 q 471 761 546 761 l 343 761 l 343 526 l 468 526 z "},"Ŕ":{"ha":943,"x_min":101,"x_max":889,"o":"m 636 0 l 511 335 l 343 335 l 343 0 l 101 0 l 101 956 l 560 956 q 759 919 692 956 q 848 817 826 882 q 869 644 869 753 q 844 471 869 544 q 742 364 818 397 l 889 0 l 636 0 m 468 526 q 574 535 543 526 q 615 566 606 543 q 625 643 625 589 q 617 722 625 699 q 577 753 608 744 q 471 761 546 761 l 343 761 l 343 526 l 468 526 m 385 1031 l 385 1038 l 511 1233 l 726 1233 l 726 1226 l 543 1031 l 385 1031 z "},"Ř":{"ha":943,"x_min":101,"x_max":889,"o":"m 636 0 l 511 335 l 343 335 l 343 0 l 101 0 l 101 956 l 560 956 q 759 919 692 956 q 848 817 826 882 q 869 644 869 753 q 844 471 869 544 q 742 364 818 397 l 889 0 l 636 0 m 468 526 q 574 535 543 526 q 615 566 606 543 q 625 643 625 589 q 617 722 625 699 q 577 753 608 744 q 471 761 546 761 l 343 761 l 343 526 l 468 526 m 368 1031 l 239 1224 l 239 1233 l 382 1233 l 474 1122 l 563 1233 l 707 1233 l 707 1224 l 575 1031 l 368 1031 z "},"Ŗ":{"ha":943,"x_min":101,"x_max":889,"o":"m 636 0 l 511 335 l 343 335 l 343 0 l 101 0 l 101 956 l 560 956 q 759 919 692 956 q 848 817 826 882 q 869 644 869 753 q 844 471 869 544 q 742 364 818 397 l 889 0 l 636 0 m 468 526 q 574 535 543 526 q 615 566 606 543 q 625 643 625 589 q 617 722 625 699 q 577 753 608 744 q 471 761 546 761 l 343 761 l 343 526 l 468 526 m 354 -315 q 430 -305 413 -315 q 447 -262 447 -294 l 447 -247 l 364 -247 l 364 -82 l 589 -82 l 589 -193 q 573 -324 589 -282 q 508 -384 557 -367 q 354 -401 460 -401 l 354 -315 z "},"Ȑ":{"ha":943,"x_min":101,"x_max":889,"o":"m 636 0 l 511 335 l 343 335 l 343 0 l 101 0 l 101 956 l 560 956 q 759 919 692 956 q 848 817 826 882 q 869 644 869 753 q 844 471 869 544 q 742 364 818 397 l 889 0 l 636 0 m 468 526 q 574 535 543 526 q 615 566 606 543 q 625 643 625 589 q 617 722 625 699 q 577 753 608 744 q 471 761 546 761 l 343 761 l 343 526 l 468 526 m 422 1047 l 290 1047 l 135 1213 l 135 1218 l 313 1218 l 422 1054 l 422 1047 m 685 1047 l 554 1047 l 400 1213 l 400 1218 l 578 1218 l 685 1054 l 685 1047 z "},"Ṛ":{"ha":943,"x_min":101,"x_max":889,"o":"m 636 0 l 511 335 l 343 335 l 343 0 l 101 0 l 101 956 l 560 956 q 759 919 692 956 q 848 817 826 882 q 869 644 869 753 q 844 471 869 544 q 742 364 818 397 l 889 0 l 636 0 m 468 526 q 574 535 543 526 q 615 566 606 543 q 625 643 625 589 q 617 722 625 699 q 577 753 608 744 q 471 761 546 761 l 343 761 l 343 526 l 468 526 m 353 -293 l 353 -86 l 590 -86 l 590 -293 l 353 -293 z "},"Ȓ":{"ha":943,"x_min":101,"x_max":889,"o":"m 636 0 l 511 335 l 343 335 l 343 0 l 101 0 l 101 956 l 560 956 q 759 919 692 956 q 848 817 826 882 q 869 644 869 753 q 844 471 869 544 q 742 364 818 397 l 889 0 l 636 0 m 468 526 q 574 535 543 526 q 615 566 606 543 q 625 643 625 589 q 617 722 625 699 q 577 753 608 744 q 471 761 546 761 l 343 761 l 343 526 l 468 526 m 261 1033 q 276 1147 261 1103 q 338 1216 292 1190 q 474 1242 385 1242 q 608 1216 563 1242 q 669 1147 654 1190 q 683 1033 683 1103 l 561 1033 q 557 1082 561 1065 q 534 1109 553 1099 q 474 1119 515 1119 q 413 1109 432 1119 q 390 1082 394 1099 q 385 1033 385 1065 l 261 1033 z "},"S":{"ha":861,"x_min":64,"x_max":797,"o":"m 451 -11 q 92 13 249 -11 l 92 201 q 378 185 261 185 q 482 190 446 185 q 533 208 518 196 q 551 235 547 219 q 554 281 554 251 q 549 331 554 315 q 526 352 543 346 q 468 364 510 358 l 292 386 q 148 434 197 397 q 81 529 99 471 q 64 675 64 588 q 110 863 64 799 q 233 947 156 926 q 429 967 310 967 q 590 960 517 967 q 749 938 663 953 l 749 753 q 478 771 583 771 q 333 754 367 771 q 310 731 315 746 q 306 688 306 715 q 310 638 306 653 q 331 617 315 624 q 388 606 347 611 l 590 581 q 691 556 651 574 q 757 494 731 538 q 797 304 797 435 q 754 99 797 168 q 639 10 711 31 q 451 -11 567 -11 z "},"Ś":{"ha":861,"x_min":64,"x_max":797,"o":"m 451 -11 q 92 13 249 -11 l 92 201 q 378 185 261 185 q 482 190 446 185 q 533 208 518 196 q 551 235 547 219 q 554 281 554 251 q 549 331 554 315 q 526 352 543 346 q 468 364 510 358 l 292 386 q 148 434 197 397 q 81 529 99 471 q 64 675 64 588 q 110 863 64 799 q 233 947 156 926 q 429 967 310 967 q 590 960 517 967 q 749 938 663 953 l 749 753 q 478 771 583 771 q 333 754 367 771 q 310 731 315 746 q 306 688 306 715 q 310 638 306 653 q 331 617 315 624 q 388 606 347 611 l 590 581 q 691 556 651 574 q 757 494 731 538 q 797 304 797 435 q 754 99 797 168 q 639 10 711 31 q 451 -11 567 -11 m 343 1031 l 343 1038 l 469 1233 l 685 1233 l 685 1226 l 501 1031 l 343 1031 z "},"Ꞌ":{"ha":290,"x_min":46,"x_max":244,"o":"m 46 372 l 46 956 l 244 956 l 244 717 l 197 372 l 46 372 z "},"Š":{"ha":851,"x_min":64,"x_max":797,"o":"m 451 -11 q 92 13 249 -11 l 92 201 q 378 185 261 185 q 482 190 446 185 q 533 208 518 196 q 551 235 547 219 q 554 281 554 251 q 549 331 554 315 q 526 352 543 346 q 468 364 510 358 l 292 386 q 148 434 197 397 q 81 529 99 471 q 64 675 64 588 q 110 863 64 799 q 233 947 156 926 q 429 967 310 967 q 590 960 517 967 q 749 938 663 953 l 749 753 q 478 771 583 771 q 333 754 367 771 q 310 731 315 746 q 306 688 306 715 q 310 638 306 653 q 331 617 315 624 q 388 606 347 611 l 590 581 q 691 556 651 574 q 757 494 731 538 q 797 304 797 435 q 754 99 797 168 q 639 10 711 31 q 451 -11 567 -11 m 329 1042 l 200 1235 l 200 1244 l 343 1244 l 435 1133 l 524 1244 l 668 1244 l 668 1235 l 536 1042 l 329 1042 z "},"Ş":{"ha":861,"x_min":64,"x_max":797,"o":"m 797 304 q 761 112 797 179 q 662 19 725 44 q 503 -10 599 -7 l 456 -264 l 253 -264 l 253 -257 l 350 -10 q 92 13 218 -6 l 92 201 q 378 185 261 185 q 482 190 446 185 q 533 208 518 196 q 551 235 547 219 q 554 281 554 251 q 549 331 554 315 q 526 352 543 346 q 468 364 510 358 l 292 386 q 148 434 197 397 q 81 529 99 471 q 64 675 64 588 q 110 863 64 799 q 233 947 156 926 q 429 967 310 967 q 590 960 517 967 q 749 938 663 953 l 749 753 q 478 771 583 771 q 333 754 367 771 q 310 731 315 746 q 306 688 306 715 q 310 638 306 653 q 331 617 315 624 q 388 606 347 611 l 590 581 q 691 556 651 574 q 757 494 731 538 q 797 304 797 435 z "},"Ŝ":{"ha":861,"x_min":64,"x_max":797,"o":"m 451 -11 q 92 13 249 -11 l 92 201 q 378 185 261 185 q 482 190 446 185 q 533 208 518 196 q 551 235 547 219 q 554 281 554 251 q 549 331 554 315 q 526 352 543 346 q 468 364 510 358 l 292 386 q 148 434 197 397 q 81 529 99 471 q 64 675 64 588 q 110 863 64 799 q 233 947 156 926 q 429 967 310 967 q 590 960 517 967 q 749 938 663 953 l 749 753 q 478 771 583 771 q 333 754 367 771 q 310 731 315 746 q 306 688 306 715 q 310 638 306 653 q 331 617 315 624 q 388 606 347 611 l 590 581 q 691 556 651 574 q 757 494 731 538 q 797 304 797 435 q 754 99 797 168 q 639 10 711 31 q 451 -11 567 -11 m 197 1031 l 197 1040 l 326 1233 l 533 1233 l 665 1040 l 665 1031 l 521 1031 l 429 1142 l 340 1031 l 197 1031 z "},"Ș":{"ha":861,"x_min":64,"x_max":797,"o":"m 451 -11 q 92 13 249 -11 l 92 201 q 378 185 261 185 q 482 190 446 185 q 533 208 518 196 q 551 235 547 219 q 554 281 554 251 q 549 331 554 315 q 526 352 543 346 q 468 364 510 358 l 292 386 q 148 434 197 397 q 81 529 99 471 q 64 675 64 588 q 110 863 64 799 q 233 947 156 926 q 429 967 310 967 q 590 960 517 967 q 749 938 663 953 l 749 753 q 478 771 583 771 q 333 754 367 771 q 310 731 315 746 q 306 688 306 715 q 310 638 306 653 q 331 617 315 624 q 388 606 347 611 l 590 581 q 691 556 651 574 q 757 494 731 538 q 797 304 797 435 q 754 99 797 168 q 639 10 711 31 q 451 -11 567 -11 m 313 -315 q 388 -305 371 -315 q 406 -262 406 -294 l 406 -247 l 322 -247 l 322 -82 l 547 -82 l 547 -193 q 531 -324 547 -282 q 467 -384 515 -367 q 313 -401 418 -401 l 313 -315 z "},"Ṣ":{"ha":861,"x_min":64,"x_max":797,"o":"m 451 -11 q 92 13 249 -11 l 92 201 q 378 185 261 185 q 482 190 446 185 q 533 208 518 196 q 551 235 547 219 q 554 281 554 251 q 549 331 554 315 q 526 352 543 346 q 468 364 510 358 l 292 386 q 148 434 197 397 q 81 529 99 471 q 64 675 64 588 q 110 863 64 799 q 233 947 156 926 q 429 967 310 967 q 590 960 517 967 q 749 938 663 953 l 749 753 q 478 771 583 771 q 333 754 367 771 q 310 731 315 746 q 306 688 306 715 q 310 638 306 653 q 331 617 315 624 q 388 606 347 611 l 590 581 q 691 556 651 574 q 757 494 731 538 q 797 304 797 435 q 754 99 797 168 q 639 10 711 31 q 451 -11 567 -11 m 311 -293 l 311 -86 l 549 -86 l 549 -293 l 311 -293 z "},"ẞ":{"ha":1035,"x_min":93,"x_max":965,"o":"m 719 526 q 861 492 808 519 q 940 409 914 465 q 965 256 965 353 q 933 107 965 165 q 824 19 900 49 q 617 -11 747 -11 q 517 -2 572 -11 q 424 19 463 7 l 424 197 q 579 181 514 181 q 672 188 643 181 q 711 215 700 194 q 722 281 722 236 q 712 349 722 326 q 676 381 701 372 q 601 389 651 389 l 465 389 l 465 553 l 654 769 q 549 775 593 775 q 399 756 440 775 q 347 678 358 736 q 335 464 335 619 l 335 0 l 93 0 l 93 464 q 123 780 93 676 q 238 925 153 883 q 503 967 324 967 q 717 953 606 967 q 917 919 828 940 l 917 756 l 719 526 z "},"Ə":{"ha":947,"x_min":76,"x_max":869,"o":"m 460 967 q 726 922 640 967 q 841 778 813 878 q 869 478 869 678 q 849 166 869 260 q 746 31 828 72 q 471 -11 664 -11 q 198 31 279 -11 q 97 165 117 72 q 76 478 76 258 l 76 581 l 626 581 q 607 708 624 669 q 546 759 590 747 q 400 771 501 771 q 183 757 285 771 l 183 943 q 313 960 235 953 q 460 967 390 967 m 472 179 q 576 190 547 179 q 617 241 606 200 q 629 385 628 282 l 317 385 q 329 241 318 282 q 369 190 340 200 q 472 179 397 179 z "},"T":{"ha":814,"x_min":22,"x_max":793,"o":"m 286 0 l 286 750 l 22 750 l 22 956 l 793 956 l 793 750 l 528 750 l 528 0 l 286 0 z "},"Ŧ":{"ha":813,"x_min":22,"x_max":793,"o":"m 793 750 l 528 750 l 528 528 l 758 528 l 758 364 l 528 364 l 528 0 l 286 0 l 286 364 l 53 364 l 53 528 l 286 528 l 286 750 l 22 750 l 22 956 l 793 956 l 793 750 z "},"Ť":{"ha":814,"x_min":22,"x_max":793,"o":"m 286 0 l 286 750 l 22 750 l 22 956 l 793 956 l 793 750 l 528 750 l 528 0 l 286 0 m 303 1031 l 174 1224 l 174 1233 l 317 1233 l 408 1122 l 497 1233 l 642 1233 l 642 1224 l 510 1031 l 303 1031 z "},"Ţ":{"ha":814,"x_min":22,"x_max":793,"o":"m 22 956 l 793 956 l 793 750 l 528 750 l 528 0 l 481 0 l 432 -264 l 229 -264 l 229 -257 l 331 0 l 286 0 l 286 750 l 22 750 l 22 956 z "},"Ț":{"ha":814,"x_min":22,"x_max":793,"o":"m 286 0 l 286 750 l 22 750 l 22 956 l 793 956 l 793 750 l 528 750 l 528 0 l 286 0 m 289 -315 q 365 -305 347 -315 q 382 -262 382 -294 l 382 -247 l 299 -247 l 299 -82 l 524 -82 l 524 -193 q 508 -324 524 -282 q 443 -384 492 -367 q 289 -401 394 -401 l 289 -315 z "},"Ṭ":{"ha":814,"x_min":22,"x_max":793,"o":"m 286 0 l 286 750 l 22 750 l 22 956 l 793 956 l 793 750 l 528 750 l 528 0 l 286 0 m 288 -293 l 288 -86 l 525 -86 l 525 -293 l 288 -293 z "},"U":{"ha":954,"x_min":93,"x_max":860,"o":"m 860 956 l 860 432 q 837 152 860 240 q 735 26 814 64 q 476 -11 656 -11 q 218 26 297 -11 q 116 152 139 64 q 93 432 93 240 l 93 956 l 335 956 l 335 381 q 342 244 335 282 q 376 194 349 207 q 476 182 404 182 q 576 194 549 182 q 611 244 604 207 q 618 381 618 282 l 618 956 l 860 956 z "},"Ú":{"ha":954,"x_min":93,"x_max":860,"o":"m 860 956 l 860 432 q 837 152 860 240 q 735 26 814 64 q 476 -11 656 -11 q 218 26 297 -11 q 116 152 139 64 q 93 432 93 240 l 93 956 l 335 956 l 335 381 q 342 244 335 282 q 376 194 349 207 q 476 182 404 182 q 576 194 549 182 q 611 244 604 207 q 618 381 618 282 l 618 956 l 860 956 m 394 1042 l 394 1049 l 521 1244 l 736 1244 l 736 1238 l 553 1042 l 394 1042 z "},"Ŭ":{"ha":954,"x_min":93,"x_max":860,"o":"m 860 956 l 860 432 q 837 152 860 240 q 735 26 814 64 q 476 -11 656 -11 q 218 26 297 -11 q 116 152 139 64 q 93 432 93 240 l 93 956 l 335 956 l 335 381 q 342 244 335 282 q 376 194 349 207 q 476 182 404 182 q 576 194 549 182 q 611 244 604 207 q 618 381 618 282 l 618 956 l 860 956 m 689 1233 q 674 1120 689 1164 q 612 1051 658 1076 q 476 1025 565 1025 q 342 1051 388 1025 q 281 1120 296 1076 q 267 1233 267 1164 l 389 1233 q 393 1185 389 1201 q 416 1158 397 1168 q 476 1147 435 1147 q 537 1158 518 1147 q 560 1185 556 1168 q 565 1233 565 1201 l 689 1233 z "},"Ǔ":{"ha":954,"x_min":93,"x_max":860,"o":"m 860 956 l 860 432 q 837 152 860 240 q 735 26 814 64 q 476 -11 656 -11 q 218 26 297 -11 q 116 152 139 64 q 93 432 93 240 l 93 956 l 335 956 l 335 381 q 342 244 335 282 q 376 194 349 207 q 476 182 404 182 q 576 194 549 182 q 611 244 604 207 q 618 381 618 282 l 618 956 l 860 956 m 374 1031 l 244 1224 l 244 1233 l 388 1233 l 479 1122 l 568 1233 l 713 1233 l 713 1224 l 581 1031 l 374 1031 z "},"Û":{"ha":954,"x_min":93,"x_max":860,"o":"m 860 956 l 860 432 q 837 152 860 240 q 735 26 814 64 q 476 -11 656 -11 q 218 26 297 -11 q 116 152 139 64 q 93 432 93 240 l 93 956 l 335 956 l 335 381 q 342 244 335 282 q 376 194 349 207 q 476 182 404 182 q 576 194 549 182 q 611 244 604 207 q 618 381 618 282 l 618 956 l 860 956 m 246 1042 l 246 1051 l 375 1244 l 582 1244 l 714 1051 l 714 1042 l 569 1042 l 478 1153 l 389 1042 l 246 1042 z "},"Ȕ":{"ha":954,"x_min":93,"x_max":860,"o":"m 860 956 l 860 432 q 837 152 860 240 q 735 26 814 64 q 476 -11 656 -11 q 218 26 297 -11 q 116 152 139 64 q 93 432 93 240 l 93 956 l 335 956 l 335 381 q 342 244 335 282 q 376 194 349 207 q 476 182 404 182 q 576 194 549 182 q 611 244 604 207 q 618 381 618 282 l 618 956 l 860 956 m 428 1047 l 296 1047 l 140 1213 l 140 1218 l 318 1218 l 428 1054 l 428 1047 m 690 1047 l 560 1047 l 406 1213 l 406 1218 l 583 1218 l 690 1054 l 690 1047 z "},"Ü":{"ha":954,"x_min":93,"x_max":860,"o":"m 860 956 l 860 432 q 837 152 860 240 q 735 26 814 64 q 476 -11 656 -11 q 218 26 297 -11 q 116 152 139 64 q 93 432 93 240 l 93 956 l 335 956 l 335 381 q 342 244 335 282 q 376 194 349 207 q 476 182 404 182 q 576 194 549 182 q 611 244 604 207 q 618 381 618 282 l 618 956 l 860 956 m 243 1079 l 243 1233 l 425 1233 l 425 1079 l 243 1079 m 529 1079 l 529 1233 l 711 1233 l 711 1079 l 529 1079 z "},"Ǘ":{"ha":954,"x_min":93,"x_max":860,"o":"m 425 1207 l 425 1061 l 243 1061 l 243 1215 l 394 1215 l 519 1410 l 735 1410 l 735 1403 l 560 1215 l 711 1215 l 711 1061 l 529 1061 l 529 1207 l 425 1207 m 860 956 l 860 432 q 837 152 860 240 q 735 26 814 64 q 476 -11 656 -11 q 218 26 297 -11 q 116 152 139 64 q 93 432 93 240 l 93 956 l 335 956 l 335 381 q 342 244 335 282 q 376 194 349 207 q 476 182 404 182 q 576 194 549 182 q 611 244 604 207 q 618 381 618 282 l 618 956 l 860 956 z "},"Ǚ":{"ha":954,"x_min":93,"x_max":860,"o":"m 425 1207 l 425 1061 l 243 1061 l 243 1215 l 371 1215 l 247 1400 l 247 1410 l 390 1410 l 482 1299 l 571 1410 l 715 1410 l 715 1400 l 589 1215 l 711 1215 l 711 1061 l 529 1061 l 529 1207 l 425 1207 m 860 956 l 860 432 q 837 152 860 240 q 735 26 814 64 q 476 -11 656 -11 q 218 26 297 -11 q 116 152 139 64 q 93 432 93 240 l 93 956 l 335 956 l 335 381 q 342 244 335 282 q 376 194 349 207 q 476 182 404 182 q 576 194 549 182 q 611 244 604 207 q 618 381 618 282 l 618 956 l 860 956 z "},"Ǜ":{"ha":954,"x_min":93,"x_max":860,"o":"m 243 1215 l 403 1215 l 228 1403 l 228 1410 l 443 1410 l 568 1215 l 711 1215 l 711 1061 l 529 1061 l 529 1207 l 425 1207 l 425 1061 l 243 1061 l 243 1215 m 860 956 l 860 432 q 837 152 860 240 q 735 26 814 64 q 476 -11 656 -11 q 218 26 297 -11 q 116 152 139 64 q 93 432 93 240 l 93 956 l 335 956 l 335 381 q 342 244 335 282 q 376 194 349 207 q 476 182 404 182 q 576 194 549 182 q 611 244 604 207 q 618 381 618 282 l 618 956 l 860 956 z "},"Ǖ":{"ha":954,"x_min":93,"x_max":860,"o":"m 425 1213 l 425 1061 l 243 1061 l 243 1215 l 290 1215 l 290 1374 l 672 1374 l 672 1215 l 711 1215 l 711 1061 l 529 1061 l 529 1213 l 425 1213 m 860 956 l 860 432 q 837 152 860 240 q 735 26 814 64 q 476 -11 656 -11 q 218 26 297 -11 q 116 152 139 64 q 93 432 93 240 l 93 956 l 335 956 l 335 381 q 342 244 335 282 q 376 194 349 207 q 476 182 404 182 q 576 194 549 182 q 611 244 604 207 q 618 381 618 282 l 618 956 l 860 956 z "},"Ụ":{"ha":954,"x_min":93,"x_max":860,"o":"m 860 956 l 860 432 q 837 152 860 240 q 735 26 814 64 q 476 -11 656 -11 q 218 26 297 -11 q 116 152 139 64 q 93 432 93 240 l 93 956 l 335 956 l 335 381 q 342 244 335 282 q 376 194 349 207 q 476 182 404 182 q 576 194 549 182 q 611 244 604 207 q 618 381 618 282 l 618 956 l 860 956 m 358 -293 l 358 -86 l 596 -86 l 596 -293 l 358 -293 z "},"Ù":{"ha":954,"x_min":93,"x_max":860,"o":"m 860 956 l 860 432 q 837 152 860 240 q 735 26 814 64 q 476 -11 656 -11 q 218 26 297 -11 q 116 152 139 64 q 93 432 93 240 l 93 956 l 335 956 l 335 381 q 342 244 335 282 q 376 194 349 207 q 476 182 404 182 q 576 194 549 182 q 611 244 604 207 q 618 381 618 282 l 618 956 l 860 956 m 415 1042 l 232 1238 l 232 1244 l 447 1244 l 574 1049 l 574 1042 l 415 1042 z "},"Ủ":{"ha":954,"x_min":93,"x_max":860,"o":"m 860 956 l 860 432 q 837 152 860 240 q 735 26 814 64 q 476 -11 656 -11 q 218 26 297 -11 q 116 152 139 64 q 93 432 93 240 l 93 956 l 335 956 l 335 381 q 342 244 335 282 q 376 194 349 207 q 476 182 404 182 q 576 194 549 182 q 611 244 604 207 q 618 381 618 282 l 618 956 l 860 956 m 382 1018 q 394 1083 382 1065 q 449 1111 407 1100 l 474 1118 q 515 1134 506 1126 q 524 1160 524 1142 q 507 1194 524 1188 q 433 1200 490 1200 q 289 1193 354 1200 l 289 1297 q 374 1307 324 1303 q 468 1311 425 1311 q 578 1303 538 1311 q 642 1266 618 1296 q 665 1175 665 1236 q 655 1113 665 1135 q 624 1079 644 1090 q 567 1058 604 1068 l 546 1051 q 508 1036 515 1043 q 500 1011 500 1029 l 382 1011 l 382 1018 z "},"Ư":{"ha":954,"x_min":93,"x_max":988,"o":"m 988 1081 l 988 1057 q 978 960 988 996 q 941 905 968 925 q 860 876 914 885 l 860 432 q 837 152 860 240 q 735 26 814 64 q 476 -11 656 -11 q 218 26 297 -11 q 116 152 139 64 q 93 432 93 240 l 93 956 l 335 956 l 335 381 q 342 244 335 282 q 376 194 349 207 q 476 182 404 182 q 576 194 549 182 q 611 244 604 207 q 618 381 618 282 l 618 956 l 753 956 q 811 964 793 956 q 835 990 829 972 q 842 1046 842 1008 l 842 1081 l 988 1081 z "},"Ứ":{"ha":954,"x_min":93,"x_max":988,"o":"m 988 1081 l 988 1057 q 978 960 988 996 q 941 905 968 925 q 860 876 914 885 l 860 432 q 837 152 860 240 q 735 26 814 64 q 476 -11 656 -11 q 218 26 297 -11 q 116 152 139 64 q 93 432 93 240 l 93 956 l 335 956 l 335 381 q 342 244 335 282 q 376 194 349 207 q 476 182 404 182 q 576 194 549 182 q 611 244 604 207 q 618 381 618 282 l 618 956 l 753 956 q 811 964 793 956 q 835 990 829 972 q 842 1046 842 1008 l 842 1081 l 988 1081 m 390 1031 l 390 1038 l 517 1233 l 732 1233 l 732 1226 l 549 1031 l 390 1031 z "},"Ự":{"ha":954,"x_min":93,"x_max":988,"o":"m 988 1081 l 988 1057 q 978 960 988 996 q 941 905 968 925 q 860 876 914 885 l 860 432 q 837 152 860 240 q 735 26 814 64 q 476 -11 656 -11 q 218 26 297 -11 q 116 152 139 64 q 93 432 93 240 l 93 956 l 335 956 l 335 381 q 342 244 335 282 q 376 194 349 207 q 476 182 404 182 q 576 194 549 182 q 611 244 604 207 q 618 381 618 282 l 618 956 l 753 956 q 811 964 793 956 q 835 990 829 972 q 842 1046 842 1008 l 842 1081 l 988 1081 m 358 -293 l 358 -86 l 596 -86 l 596 -293 l 358 -293 z "},"Ừ":{"ha":954,"x_min":93,"x_max":988,"o":"m 988 1081 l 988 1057 q 978 960 988 996 q 941 905 968 925 q 860 876 914 885 l 860 432 q 837 152 860 240 q 735 26 814 64 q 476 -11 656 -11 q 218 26 297 -11 q 116 152 139 64 q 93 432 93 240 l 93 956 l 335 956 l 335 381 q 342 244 335 282 q 376 194 349 207 q 476 182 404 182 q 576 194 549 182 q 611 244 604 207 q 618 381 618 282 l 618 956 l 753 956 q 811 964 793 956 q 835 990 829 972 q 842 1046 842 1008 l 842 1081 l 988 1081 m 408 1031 l 225 1226 l 225 1233 l 440 1233 l 567 1038 l 567 1031 l 408 1031 z "},"Ử":{"ha":954,"x_min":93,"x_max":988,"o":"m 988 1081 l 988 1057 q 978 960 988 996 q 941 905 968 925 q 860 876 914 885 l 860 432 q 837 152 860 240 q 735 26 814 64 q 476 -11 656 -11 q 218 26 297 -11 q 116 152 139 64 q 93 432 93 240 l 93 956 l 335 956 l 335 381 q 342 244 335 282 q 376 194 349 207 q 476 182 404 182 q 576 194 549 182 q 611 244 604 207 q 618 381 618 282 l 618 956 l 753 956 q 811 964 793 956 q 835 990 829 972 q 842 1046 842 1008 l 842 1081 l 988 1081 m 382 1018 q 394 1083 382 1065 q 449 1111 407 1100 l 474 1118 q 515 1134 506 1126 q 524 1160 524 1142 q 507 1194 524 1188 q 433 1200 490 1200 q 289 1193 354 1200 l 289 1297 q 374 1307 324 1303 q 468 1311 425 1311 q 578 1303 538 1311 q 642 1266 618 1296 q 665 1175 665 1236 q 655 1113 665 1135 q 624 1079 644 1090 q 567 1058 604 1068 l 546 1051 q 508 1036 515 1043 q 500 1011 500 1029 l 382 1011 l 382 1018 z "},"Ữ":{"ha":954,"x_min":93,"x_max":988,"o":"m 988 1081 l 988 1057 q 978 960 988 996 q 941 905 968 925 q 860 876 914 885 l 860 432 q 837 152 860 240 q 735 26 814 64 q 476 -11 656 -11 q 218 26 297 -11 q 116 152 139 64 q 93 432 93 240 l 93 956 l 335 956 l 335 381 q 342 244 335 282 q 376 194 349 207 q 476 182 404 182 q 576 194 549 182 q 611 244 604 207 q 618 381 618 282 l 618 956 l 753 956 q 811 964 793 956 q 835 990 829 972 q 842 1046 842 1008 l 842 1081 l 988 1081 m 747 1233 q 740 1119 747 1158 q 706 1057 733 1079 q 619 1035 679 1035 q 547 1041 583 1035 q 457 1060 511 1047 q 353 1078 379 1078 q 324 1067 329 1078 q 318 1018 318 1056 l 206 1018 q 213 1134 206 1094 q 247 1196 219 1174 q 335 1218 275 1218 q 410 1211 372 1218 q 497 1192 447 1204 q 545 1181 510 1189 q 601 1174 581 1174 q 631 1185 625 1174 q 636 1233 636 1196 l 747 1233 z "},"Ű":{"ha":954,"x_min":93,"x_max":860,"o":"m 860 956 l 860 432 q 837 152 860 240 q 735 26 814 64 q 476 -11 656 -11 q 218 26 297 -11 q 116 152 139 64 q 93 432 93 240 l 93 956 l 335 956 l 335 381 q 342 244 335 282 q 376 194 349 207 q 476 182 404 182 q 576 194 549 182 q 611 244 604 207 q 618 381 618 282 l 618 956 l 860 956 m 279 1047 l 279 1054 l 386 1218 l 564 1218 l 564 1213 l 410 1047 l 279 1047 m 542 1047 l 542 1054 l 651 1218 l 829 1218 l 829 1213 l 674 1047 l 542 1047 z "},"Ȗ":{"ha":954,"x_min":93,"x_max":860,"o":"m 860 956 l 860 432 q 837 152 860 240 q 735 26 814 64 q 476 -11 656 -11 q 218 26 297 -11 q 116 152 139 64 q 93 432 93 240 l 93 956 l 335 956 l 335 381 q 342 244 335 282 q 376 194 349 207 q 476 182 404 182 q 576 194 549 182 q 611 244 604 207 q 618 381 618 282 l 618 956 l 860 956 m 267 1033 q 282 1147 267 1103 q 344 1216 297 1190 q 479 1242 390 1242 q 614 1216 568 1242 q 674 1147 660 1190 q 689 1033 689 1103 l 567 1033 q 563 1082 567 1065 q 540 1109 558 1099 q 479 1119 521 1119 q 419 1109 438 1119 q 395 1082 400 1099 q 390 1033 390 1065 l 267 1033 z "},"Ū":{"ha":954,"x_min":93,"x_max":860,"o":"m 860 956 l 860 432 q 837 152 860 240 q 735 26 814 64 q 476 -11 656 -11 q 218 26 297 -11 q 116 152 139 64 q 93 432 93 240 l 93 956 l 335 956 l 335 381 q 342 244 335 282 q 376 194 349 207 q 476 182 404 182 q 576 194 549 182 q 611 244 604 207 q 618 381 618 282 l 618 956 l 860 956 m 288 1049 l 288 1233 l 669 1233 l 669 1049 l 288 1049 z "},"Ų":{"ha":954,"x_min":93,"x_max":860,"o":"m 860 956 l 860 432 q 852 228 860 303 q 818 103 844 153 q 738 26 792 53 q 657 -29 686 1 q 628 -107 628 -60 q 642 -142 628 -131 q 692 -154 656 -154 q 715 -153 707 -154 l 715 -268 l 679 -269 q 621 -272 638 -272 q 446 -154 446 -272 q 515 -11 446 -83 l 475 -11 q 218 26 297 -11 q 116 152 139 64 q 93 432 93 240 l 93 956 l 335 956 l 335 381 q 342 244 335 282 q 376 194 349 207 q 476 182 404 182 q 576 194 549 182 q 611 244 604 207 q 618 381 618 282 l 618 956 l 860 956 z "},"Ů":{"ha":954,"x_min":93,"x_max":860,"o":"m 860 956 l 860 432 q 837 152 860 240 q 735 26 814 64 q 476 -11 656 -11 q 218 26 297 -11 q 116 152 139 64 q 93 432 93 240 l 93 956 l 335 956 l 335 381 q 342 244 335 282 q 376 194 349 207 q 476 182 404 182 q 576 194 549 182 q 611 244 604 207 q 618 381 618 282 l 618 956 l 860 956 m 475 983 q 341 999 383 983 q 286 1048 299 1015 q 274 1147 274 1081 q 286 1248 274 1214 q 341 1298 299 1282 q 475 1314 383 1314 q 610 1298 567 1314 q 667 1248 654 1282 q 679 1147 679 1214 q 667 1049 679 1082 q 610 999 654 1015 q 475 983 567 983 m 475 1075 q 535 1081 518 1075 q 557 1101 553 1088 q 561 1147 561 1114 q 557 1195 561 1182 q 535 1215 553 1208 q 475 1221 518 1221 q 417 1215 433 1221 q 396 1195 400 1208 q 392 1147 392 1182 q 396 1101 392 1114 q 417 1081 400 1088 q 475 1075 433 1075 z "},"Ũ":{"ha":954,"x_min":93,"x_max":860,"o":"m 860 956 l 860 432 q 837 152 860 240 q 735 26 814 64 q 476 -11 656 -11 q 218 26 297 -11 q 116 152 139 64 q 93 432 93 240 l 93 956 l 335 956 l 335 381 q 342 244 335 282 q 376 194 349 207 q 476 182 404 182 q 576 194 549 182 q 611 244 604 207 q 618 381 618 282 l 618 956 l 860 956 m 747 1233 q 740 1119 747 1158 q 706 1057 733 1079 q 619 1035 679 1035 q 547 1041 583 1035 q 457 1060 511 1047 q 353 1078 379 1078 q 324 1067 329 1078 q 318 1018 318 1056 l 206 1018 q 213 1134 206 1094 q 247 1196 219 1174 q 335 1218 275 1218 q 410 1211 372 1218 q 497 1192 447 1204 q 545 1181 510 1189 q 601 1174 581 1174 q 631 1185 625 1174 q 636 1233 636 1196 l 747 1233 z "},"V":{"ha":917,"x_min":14,"x_max":903,"o":"m 297 0 l 14 956 l 261 956 l 456 268 l 467 268 l 660 956 l 903 956 l 618 0 l 297 0 z "},"W":{"ha":1351,"x_min":21,"x_max":1364,"o":"m 840 0 l 697 574 l 689 574 l 546 0 l 240 0 l 21 956 l 263 956 l 406 286 l 413 286 l 572 956 l 819 956 l 982 286 l 990 286 l 1124 956 l 1364 956 l 1144 0 l 840 0 z "},"Ẃ":{"ha":1351,"x_min":21,"x_max":1364,"o":"m 840 0 l 697 574 l 689 574 l 546 0 l 240 0 l 21 956 l 263 956 l 406 286 l 413 286 l 572 956 l 819 956 l 982 286 l 990 286 l 1124 956 l 1364 956 l 1144 0 l 840 0 m 589 1031 l 589 1038 l 715 1233 l 931 1233 l 931 1226 l 747 1031 l 589 1031 z "},"Ŵ":{"ha":1351,"x_min":21,"x_max":1364,"o":"m 840 0 l 697 574 l 689 574 l 546 0 l 240 0 l 21 956 l 263 956 l 406 286 l 413 286 l 572 956 l 819 956 l 982 286 l 990 286 l 1124 956 l 1364 956 l 1144 0 l 840 0 m 443 1031 l 443 1040 l 572 1233 l 779 1233 l 911 1040 l 911 1031 l 767 1031 l 675 1142 l 586 1031 l 443 1031 z "},"Ẅ":{"ha":1351,"x_min":21,"x_max":1364,"o":"m 840 0 l 697 574 l 689 574 l 546 0 l 240 0 l 21 956 l 263 956 l 406 286 l 413 286 l 572 956 l 819 956 l 982 286 l 990 286 l 1124 956 l 1364 956 l 1144 0 l 840 0 m 442 1061 l 442 1215 l 624 1215 l 624 1061 l 442 1061 m 728 1061 l 728 1215 l 910 1215 l 910 1061 l 728 1061 z "},"Ẁ":{"ha":1351,"x_min":21,"x_max":1364,"o":"m 840 0 l 697 574 l 689 574 l 546 0 l 240 0 l 21 956 l 263 956 l 406 286 l 413 286 l 572 956 l 819 956 l 982 286 l 990 286 l 1124 956 l 1364 956 l 1144 0 l 840 0 m 607 1031 l 424 1226 l 424 1233 l 639 1233 l 765 1038 l 765 1031 l 607 1031 z "},"X":{"ha":950,"x_min":18,"x_max":932,"o":"m 657 0 l 476 290 l 464 290 l 282 0 l 18 0 l 325 481 l 24 956 l 299 956 l 474 672 l 485 672 l 663 956 l 928 956 l 626 485 l 932 0 l 657 0 z "},"Y":{"ha":882,"x_min":1,"x_max":879,"o":"m 319 0 l 319 325 l 1 956 l 251 956 l 439 561 l 449 561 l 635 956 l 879 956 l 561 325 l 561 0 l 319 0 z "},"Ý":{"ha":882,"x_min":1,"x_max":879,"o":"m 319 0 l 319 325 l 1 956 l 251 956 l 439 561 l 449 561 l 635 956 l 879 956 l 561 325 l 561 0 l 319 0 m 367 1042 l 367 1049 l 493 1244 l 708 1244 l 708 1238 l 525 1042 l 367 1042 z "},"Ŷ":{"ha":882,"x_min":1,"x_max":879,"o":"m 319 0 l 319 325 l 1 956 l 251 956 l 439 561 l 449 561 l 635 956 l 879 956 l 561 325 l 561 0 l 319 0 m 207 1031 l 207 1040 l 336 1233 l 543 1233 l 675 1040 l 675 1031 l 531 1031 l 439 1142 l 350 1031 l 207 1031 z "},"Ÿ":{"ha":882,"x_min":1,"x_max":879,"o":"m 319 0 l 319 325 l 1 956 l 251 956 l 439 561 l 449 561 l 635 956 l 879 956 l 561 325 l 561 0 l 319 0 m 213 1079 l 213 1233 l 394 1233 l 394 1079 l 213 1079 m 499 1079 l 499 1233 l 681 1233 l 681 1079 l 499 1079 z "},"Ỵ":{"ha":882,"x_min":1,"x_max":879,"o":"m 319 0 l 319 325 l 1 956 l 251 956 l 439 561 l 449 561 l 635 956 l 879 956 l 561 325 l 561 0 l 319 0 m 321 -293 l 321 -86 l 558 -86 l 558 -293 l 321 -293 z "},"Ỳ":{"ha":882,"x_min":1,"x_max":879,"o":"m 319 0 l 319 325 l 1 956 l 251 956 l 439 561 l 449 561 l 635 956 l 879 956 l 561 325 l 561 0 l 319 0 m 371 1031 l 188 1226 l 188 1233 l 403 1233 l 529 1038 l 529 1031 l 371 1031 z "},"Ỷ":{"ha":882,"x_min":1,"x_max":879,"o":"m 319 0 l 319 325 l 1 956 l 251 956 l 439 561 l 449 561 l 635 956 l 879 956 l 561 325 l 561 0 l 319 0 m 344 1018 q 357 1083 344 1065 q 411 1111 369 1100 l 436 1118 q 477 1134 468 1126 q 486 1160 486 1142 q 469 1194 486 1188 q 396 1200 453 1200 q 251 1193 317 1200 l 251 1297 q 337 1307 286 1303 q 431 1311 388 1311 q 540 1303 500 1311 q 604 1266 581 1296 q 628 1175 628 1236 q 617 1113 628 1135 q 587 1079 607 1090 q 529 1058 567 1068 l 508 1051 q 470 1036 478 1043 q 463 1011 463 1029 l 344 1011 l 344 1018 z "},"Ȳ":{"ha":882,"x_min":1,"x_max":879,"o":"m 319 0 l 319 325 l 1 956 l 251 956 l 439 561 l 449 561 l 635 956 l 879 956 l 561 325 l 561 0 l 319 0 m 250 1049 l 250 1233 l 632 1233 l 632 1049 l 250 1049 z "},"Ỹ":{"ha":882,"x_min":1,"x_max":879,"o":"m 319 0 l 319 325 l 1 956 l 251 956 l 439 561 l 449 561 l 635 956 l 879 956 l 561 325 l 561 0 l 319 0 m 710 1233 q 703 1119 710 1158 q 669 1057 696 1079 q 582 1035 642 1035 q 510 1041 546 1035 q 419 1060 474 1047 q 315 1078 342 1078 q 286 1067 292 1078 q 281 1018 281 1056 l 168 1018 q 175 1134 168 1094 q 210 1196 182 1174 q 297 1218 238 1218 q 372 1211 335 1218 q 460 1192 410 1204 q 508 1181 472 1189 q 564 1174 543 1174 q 593 1185 588 1174 q 599 1233 599 1196 l 710 1233 z "},"Z":{"ha":860,"x_min":60,"x_max":800,"o":"m 60 0 l 60 189 l 497 760 l 76 760 l 76 956 l 799 956 l 799 774 l 357 196 l 800 196 l 800 0 l 60 0 z "},"Ź":{"ha":860,"x_min":60,"x_max":800,"o":"m 60 0 l 60 189 l 497 760 l 76 760 l 76 956 l 799 956 l 799 774 l 357 196 l 800 196 l 800 0 l 60 0 m 343 1031 l 343 1038 l 469 1233 l 685 1233 l 685 1226 l 501 1031 l 343 1031 z "},"Ž":{"ha":850,"x_min":60,"x_max":800,"o":"m 60 0 l 60 189 l 497 760 l 76 760 l 76 956 l 799 956 l 799 774 l 357 196 l 800 196 l 800 0 l 60 0 m 332 1043 l 203 1236 l 203 1246 l 346 1246 l 438 1135 l 526 1246 l 671 1246 l 671 1236 l 539 1043 l 332 1043 z "},"Ż":{"ha":860,"x_min":60,"x_max":800,"o":"m 60 0 l 60 189 l 497 760 l 76 760 l 76 956 l 799 956 l 799 774 l 357 196 l 800 196 l 800 0 l 60 0 m 339 1061 l 339 1215 l 521 1215 l 521 1061 l 339 1061 z "},"Ẓ":{"ha":860,"x_min":60,"x_max":800,"o":"m 60 0 l 60 189 l 497 760 l 76 760 l 76 956 l 799 956 l 799 774 l 357 196 l 800 196 l 800 0 l 60 0 m 311 -293 l 311 -86 l 549 -86 l 549 -293 l 311 -293 z "},"a":{"ha":783,"x_min":53,"x_max":697,"o":"m 257 -11 q 103 39 153 -11 q 53 203 53 89 q 72 332 53 286 q 140 399 92 378 q 278 419 188 419 q 474 414 346 419 l 474 439 q 462 513 474 492 q 417 540 450 535 q 301 546 385 546 q 94 535 197 546 l 94 696 q 372 719 225 719 q 587 689 518 719 q 676 599 656 658 q 697 426 697 539 l 697 0 l 483 0 l 478 82 l 467 82 q 379 7 431 25 q 257 -11 328 -11 m 363 151 q 424 160 401 151 q 458 189 446 168 q 474 275 474 215 l 474 303 l 347 303 q 293 297 310 303 q 270 276 276 292 q 264 224 264 260 q 271 178 264 193 q 298 157 278 163 q 363 151 318 151 z "},"á":{"ha":783,"x_min":53,"x_max":697,"o":"m 257 -11 q 103 39 153 -11 q 53 203 53 89 q 72 332 53 286 q 140 399 92 378 q 278 419 188 419 q 474 414 346 419 l 474 439 q 462 513 474 492 q 417 540 450 535 q 301 546 385 546 q 94 535 197 546 l 94 696 q 372 719 225 719 q 587 689 518 719 q 676 599 656 658 q 697 426 697 539 l 697 0 l 483 0 l 478 82 l 467 82 q 379 7 431 25 q 257 -11 328 -11 m 363 151 q 424 160 401 151 q 458 189 446 168 q 474 275 474 215 l 474 303 l 347 303 q 293 297 310 303 q 270 276 276 292 q 264 224 264 260 q 271 178 264 193 q 298 157 278 163 q 363 151 318 151 m 303 829 l 303 836 l 429 1032 l 644 1032 l 644 1025 l 461 829 l 303 829 z "},"ă":{"ha":783,"x_min":53,"x_max":697,"o":"m 257 -11 q 103 39 153 -11 q 53 203 53 89 q 72 332 53 286 q 140 399 92 378 q 278 419 188 419 q 474 414 346 419 l 474 439 q 462 513 474 492 q 417 540 450 535 q 301 546 385 546 q 94 535 197 546 l 94 696 q 372 719 225 719 q 587 689 518 719 q 676 599 656 658 q 697 426 697 539 l 697 0 l 483 0 l 478 82 l 467 82 q 379 7 431 25 q 257 -11 328 -11 m 363 151 q 424 160 401 151 q 458 189 446 168 q 474 275 474 215 l 474 303 l 347 303 q 293 297 310 303 q 270 276 276 292 q 264 224 264 260 q 271 178 264 193 q 298 157 278 163 q 363 151 318 151 m 603 1032 q 588 919 603 963 q 526 849 572 875 q 390 824 479 824 q 256 849 301 824 q 195 919 210 875 q 181 1032 181 963 l 303 1032 q 307 983 303 1000 q 330 956 311 967 q 390 946 349 946 q 451 956 432 946 q 474 983 469 967 q 479 1032 479 1000 l 603 1032 z "},"ắ":{"ha":783,"x_min":53,"x_max":697,"o":"m 257 -11 q 103 39 153 -11 q 53 203 53 89 q 72 332 53 286 q 140 399 92 378 q 278 419 188 419 q 474 414 346 419 l 474 439 q 462 513 474 492 q 417 540 450 535 q 301 546 385 546 q 94 535 197 546 l 94 696 q 372 719 225 719 q 587 689 518 719 q 676 599 656 658 q 697 426 697 539 l 697 0 l 483 0 l 478 82 l 467 82 q 379 7 431 25 q 257 -11 328 -11 m 363 151 q 424 160 401 151 q 458 189 446 168 q 474 275 474 215 l 474 303 l 347 303 q 293 297 310 303 q 270 276 276 292 q 264 224 264 260 q 271 178 264 193 q 298 157 278 163 q 363 151 318 151 m 585 1032 q 569 919 585 963 q 508 849 554 875 q 372 824 461 824 q 238 849 283 824 q 177 919 192 875 q 163 1032 163 963 l 285 1032 q 289 983 285 1000 q 312 956 293 967 q 372 946 331 946 q 433 956 414 946 q 456 983 451 967 q 461 1032 461 1000 l 585 1032 m 279 1069 l 279 1076 l 406 1272 l 621 1272 l 621 1265 l 438 1069 l 279 1069 z "},"ặ":{"ha":783,"x_min":53,"x_max":697,"o":"m 257 -11 q 103 39 153 -11 q 53 203 53 89 q 72 332 53 286 q 140 399 92 378 q 278 419 188 419 q 474 414 346 419 l 474 439 q 462 513 474 492 q 417 540 450 535 q 301 546 385 546 q 94 535 197 546 l 94 696 q 372 719 225 719 q 587 689 518 719 q 676 599 656 658 q 697 426 697 539 l 697 0 l 483 0 l 478 82 l 467 82 q 379 7 431 25 q 257 -11 328 -11 m 363 151 q 424 160 401 151 q 458 189 446 168 q 474 275 474 215 l 474 303 l 347 303 q 293 297 310 303 q 270 276 276 292 q 264 224 264 260 q 271 178 264 193 q 298 157 278 163 q 363 151 318 151 m 272 -293 l 272 -86 l 510 -86 l 510 -293 l 272 -293 m 603 1032 q 588 919 603 963 q 526 849 572 875 q 390 824 479 824 q 256 849 301 824 q 195 919 210 875 q 181 1032 181 963 l 303 1032 q 307 983 303 1000 q 330 956 311 967 q 390 946 349 946 q 451 956 432 946 q 474 983 469 967 q 479 1032 479 1000 l 603 1032 z "},"ằ":{"ha":783,"x_min":53,"x_max":697,"o":"m 257 -11 q 103 39 153 -11 q 53 203 53 89 q 72 332 53 286 q 140 399 92 378 q 278 419 188 419 q 474 414 346 419 l 474 439 q 462 513 474 492 q 417 540 450 535 q 301 546 385 546 q 94 535 197 546 l 94 696 q 372 719 225 719 q 587 689 518 719 q 676 599 656 658 q 697 426 697 539 l 697 0 l 483 0 l 478 82 l 467 82 q 379 7 431 25 q 257 -11 328 -11 m 363 151 q 424 160 401 151 q 458 189 446 168 q 474 275 474 215 l 474 303 l 347 303 q 293 297 310 303 q 270 276 276 292 q 264 224 264 260 q 271 178 264 193 q 298 157 278 163 q 363 151 318 151 m 622 1032 q 607 919 622 963 q 545 849 592 875 q 410 824 499 824 q 275 849 321 824 q 215 919 229 875 q 200 1032 200 963 l 322 1032 q 326 983 322 1000 q 349 956 331 967 q 410 946 368 946 q 470 956 451 946 q 494 983 489 967 q 499 1032 499 1000 l 622 1032 m 344 1069 l 161 1265 l 161 1272 l 376 1272 l 503 1076 l 503 1069 l 344 1069 z "},"ẳ":{"ha":783,"x_min":53,"x_max":697,"o":"m 257 -11 q 103 39 153 -11 q 53 203 53 89 q 72 332 53 286 q 140 399 92 378 q 278 419 188 419 q 474 414 346 419 l 474 439 q 462 513 474 492 q 417 540 450 535 q 301 546 385 546 q 94 535 197 546 l 94 696 q 372 719 225 719 q 587 689 518 719 q 676 599 656 658 q 697 426 697 539 l 697 0 l 483 0 l 478 82 l 467 82 q 379 7 431 25 q 257 -11 328 -11 m 363 151 q 424 160 401 151 q 458 189 446 168 q 474 275 474 215 l 474 303 l 347 303 q 293 297 310 303 q 270 276 276 292 q 264 224 264 260 q 271 178 264 193 q 298 157 278 163 q 363 151 318 151 m 600 1032 q 585 919 600 963 q 523 849 569 875 q 388 824 476 824 q 253 849 299 824 q 192 919 207 875 q 178 1032 178 963 l 300 1032 q 304 983 300 1000 q 327 956 308 967 q 388 946 346 946 q 448 956 429 946 q 472 983 467 967 q 476 1032 476 1000 l 600 1032 m 311 1046 q 324 1110 311 1093 q 378 1139 336 1128 l 403 1146 q 444 1162 435 1154 q 453 1188 453 1169 q 436 1222 453 1215 q 363 1228 419 1228 q 218 1221 283 1228 l 218 1325 q 303 1335 253 1331 q 397 1339 354 1339 q 507 1331 467 1339 q 571 1294 547 1324 q 594 1203 594 1264 q 584 1140 594 1163 q 553 1107 574 1118 q 496 1086 533 1096 l 475 1079 q 437 1064 444 1071 q 429 1039 429 1057 l 311 1039 l 311 1046 z "},"ẵ":{"ha":783,"x_min":53,"x_max":697,"o":"m 257 -11 q 103 39 153 -11 q 53 203 53 89 q 72 332 53 286 q 140 399 92 378 q 278 419 188 419 q 474 414 346 419 l 474 439 q 462 513 474 492 q 417 540 450 535 q 301 546 385 546 q 94 535 197 546 l 94 696 q 372 719 225 719 q 587 689 518 719 q 676 599 656 658 q 697 426 697 539 l 697 0 l 483 0 l 478 82 l 467 82 q 379 7 431 25 q 257 -11 328 -11 m 363 151 q 424 160 401 151 q 458 189 446 168 q 474 275 474 215 l 474 303 l 347 303 q 293 297 310 303 q 270 276 276 292 q 264 224 264 260 q 271 178 264 193 q 298 157 278 163 q 363 151 318 151 m 600 1032 q 585 919 600 963 q 523 849 569 875 q 388 824 476 824 q 253 849 299 824 q 192 919 207 875 q 178 1032 178 963 l 300 1032 q 304 983 300 1000 q 327 956 308 967 q 388 946 346 946 q 448 956 429 946 q 472 983 467 967 q 476 1032 476 1000 l 600 1032 m 663 1321 q 656 1206 663 1246 q 622 1144 649 1167 q 535 1122 594 1122 q 463 1128 499 1122 q 372 1147 426 1135 q 268 1165 294 1165 q 239 1154 244 1165 q 233 1106 233 1143 l 121 1106 q 128 1222 121 1182 q 163 1283 135 1261 q 250 1306 190 1306 q 325 1299 288 1306 q 413 1279 363 1292 q 460 1269 425 1276 q 517 1261 496 1261 q 546 1272 540 1261 q 551 1321 551 1283 l 663 1321 z "},"ǎ":{"ha":783,"x_min":53,"x_max":697,"o":"m 257 -11 q 103 39 153 -11 q 53 203 53 89 q 72 332 53 286 q 140 399 92 378 q 278 419 188 419 q 474 414 346 419 l 474 439 q 462 513 474 492 q 417 540 450 535 q 301 546 385 546 q 94 535 197 546 l 94 696 q 372 719 225 719 q 587 689 518 719 q 676 599 656 658 q 697 426 697 539 l 697 0 l 483 0 l 478 82 l 467 82 q 379 7 431 25 q 257 -11 328 -11 m 363 151 q 424 160 401 151 q 458 189 446 168 q 474 275 474 215 l 474 303 l 347 303 q 293 297 310 303 q 270 276 276 292 q 264 224 264 260 q 271 178 264 193 q 298 157 278 163 q 363 151 318 151 m 288 829 l 158 1022 l 158 1032 l 301 1032 l 393 921 l 482 1032 l 626 1032 l 626 1022 l 494 829 l 288 829 z "},"â":{"ha":783,"x_min":53,"x_max":697,"o":"m 257 -11 q 103 39 153 -11 q 53 203 53 89 q 72 332 53 286 q 140 399 92 378 q 278 419 188 419 q 474 414 346 419 l 474 439 q 462 513 474 492 q 417 540 450 535 q 301 546 385 546 q 94 535 197 546 l 94 696 q 372 719 225 719 q 587 689 518 719 q 676 599 656 658 q 697 426 697 539 l 697 0 l 483 0 l 478 82 l 467 82 q 379 7 431 25 q 257 -11 328 -11 m 363 151 q 424 160 401 151 q 458 189 446 168 q 474 275 474 215 l 474 303 l 347 303 q 293 297 310 303 q 270 276 276 292 q 264 224 264 260 q 271 178 264 193 q 298 157 278 163 q 363 151 318 151 m 161 829 l 161 839 l 290 1032 l 497 1032 l 629 839 l 629 829 l 485 829 l 393 940 l 304 829 l 161 829 z "},"ấ":{"ha":783,"x_min":53,"x_max":750,"o":"m 257 -11 q 103 39 153 -11 q 53 203 53 89 q 72 332 53 286 q 140 399 92 378 q 278 419 188 419 q 474 414 346 419 l 474 439 q 462 513 474 492 q 417 540 450 535 q 301 546 385 546 q 94 535 197 546 l 94 696 q 372 719 225 719 q 587 689 518 719 q 676 599 656 658 q 697 426 697 539 l 697 0 l 483 0 l 478 82 l 467 82 q 379 7 431 25 q 257 -11 328 -11 m 363 151 q 424 160 401 151 q 458 189 446 168 q 474 275 474 215 l 474 303 l 347 303 q 293 297 310 303 q 270 276 276 292 q 264 224 264 260 q 271 178 264 193 q 298 157 278 163 q 363 151 318 151 m 156 829 l 156 839 l 285 1032 l 492 1032 l 624 839 l 624 829 l 479 829 l 388 940 l 299 829 l 156 829 m 408 1069 l 408 1076 l 535 1272 l 750 1272 l 750 1265 l 567 1069 l 408 1069 z "},"ậ":{"ha":783,"x_min":53,"x_max":697,"o":"m 257 -11 q 103 39 153 -11 q 53 203 53 89 q 72 332 53 286 q 140 399 92 378 q 278 419 188 419 q 474 414 346 419 l 474 439 q 462 513 474 492 q 417 540 450 535 q 301 546 385 546 q 94 535 197 546 l 94 696 q 372 719 225 719 q 587 689 518 719 q 676 599 656 658 q 697 426 697 539 l 697 0 l 483 0 l 478 82 l 467 82 q 379 7 431 25 q 257 -11 328 -11 m 363 151 q 424 160 401 151 q 458 189 446 168 q 474 275 474 215 l 474 303 l 347 303 q 293 297 310 303 q 270 276 276 292 q 264 224 264 260 q 271 178 264 193 q 298 157 278 163 q 363 151 318 151 m 272 -293 l 272 -86 l 510 -86 l 510 -293 l 272 -293 m 158 829 l 158 839 l 288 1032 l 494 1032 l 626 839 l 626 829 l 482 829 l 390 940 l 301 829 l 158 829 z "},"ầ":{"ha":783,"x_min":53,"x_max":697,"o":"m 257 -11 q 103 39 153 -11 q 53 203 53 89 q 72 332 53 286 q 140 399 92 378 q 278 419 188 419 q 474 414 346 419 l 474 439 q 462 513 474 492 q 417 540 450 535 q 301 546 385 546 q 94 535 197 546 l 94 696 q 372 719 225 719 q 587 689 518 719 q 676 599 656 658 q 697 426 697 539 l 697 0 l 483 0 l 478 82 l 467 82 q 379 7 431 25 q 257 -11 328 -11 m 363 151 q 424 160 401 151 q 458 189 446 168 q 474 275 474 215 l 474 303 l 347 303 q 293 297 310 303 q 270 276 276 292 q 264 224 264 260 q 271 178 264 193 q 298 157 278 163 q 363 151 318 151 m 150 829 l 150 839 l 279 1032 l 486 1032 l 618 839 l 618 829 l 474 829 l 382 940 l 293 829 l 150 829 m 468 1069 l 285 1265 l 285 1272 l 500 1272 l 626 1076 l 626 1069 l 468 1069 z "},"ẩ":{"ha":783,"x_min":53,"x_max":733,"o":"m 257 -11 q 103 39 153 -11 q 53 203 53 89 q 72 332 53 286 q 140 399 92 378 q 278 419 188 419 q 474 414 346 419 l 474 439 q 462 513 474 492 q 417 540 450 535 q 301 546 385 546 q 94 535 197 546 l 94 696 q 372 719 225 719 q 587 689 518 719 q 676 599 656 658 q 697 426 697 539 l 697 0 l 483 0 l 478 82 l 467 82 q 379 7 431 25 q 257 -11 328 -11 m 363 151 q 424 160 401 151 q 458 189 446 168 q 474 275 474 215 l 474 303 l 347 303 q 293 297 310 303 q 270 276 276 292 q 264 224 264 260 q 271 178 264 193 q 298 157 278 163 q 363 151 318 151 m 158 829 l 158 839 l 288 1032 l 494 1032 l 626 839 l 626 829 l 482 829 l 390 940 l 301 829 l 158 829 m 450 1065 q 463 1130 450 1113 q 517 1158 475 1147 l 542 1165 q 583 1181 574 1174 q 592 1207 592 1189 q 575 1241 592 1235 q 501 1247 558 1247 q 357 1240 422 1247 l 357 1344 q 442 1354 392 1350 q 536 1358 493 1358 q 646 1351 606 1358 q 710 1313 686 1343 q 733 1222 733 1283 q 723 1160 733 1182 q 692 1126 713 1138 q 635 1106 672 1115 l 614 1099 q 576 1083 583 1090 q 568 1058 568 1076 l 450 1058 l 450 1065 z "},"ẫ":{"ha":783,"x_min":53,"x_max":697,"o":"m 257 -11 q 103 39 153 -11 q 53 203 53 89 q 72 332 53 286 q 140 399 92 378 q 278 419 188 419 q 474 414 346 419 l 474 439 q 462 513 474 492 q 417 540 450 535 q 301 546 385 546 q 94 535 197 546 l 94 696 q 372 719 225 719 q 587 689 518 719 q 676 599 656 658 q 697 426 697 539 l 697 0 l 483 0 l 478 82 l 467 82 q 379 7 431 25 q 257 -11 328 -11 m 363 151 q 424 160 401 151 q 458 189 446 168 q 474 275 474 215 l 474 303 l 347 303 q 293 297 310 303 q 270 276 276 292 q 264 224 264 260 q 271 178 264 193 q 298 157 278 163 q 363 151 318 151 m 156 829 l 156 839 l 285 1032 l 492 1032 l 624 839 l 624 829 l 479 829 l 388 940 l 299 829 l 156 829 m 661 1272 q 654 1158 661 1197 q 620 1096 647 1118 q 533 1074 593 1074 q 461 1080 497 1074 q 371 1099 425 1086 q 267 1117 293 1117 q 238 1106 243 1117 q 232 1057 232 1094 l 119 1057 q 126 1173 119 1133 q 161 1235 133 1213 q 249 1257 189 1257 q 324 1250 286 1257 q 411 1231 361 1243 q 459 1220 424 1228 q 515 1213 494 1213 q 544 1224 539 1213 q 550 1272 550 1235 l 661 1272 z "},"ȁ":{"ha":783,"x_min":53,"x_max":697,"o":"m 257 -11 q 103 39 153 -11 q 53 203 53 89 q 72 332 53 286 q 140 399 92 378 q 278 419 188 419 q 474 414 346 419 l 474 439 q 462 513 474 492 q 417 540 450 535 q 301 546 385 546 q 94 535 197 546 l 94 696 q 372 719 225 719 q 587 689 518 719 q 676 599 656 658 q 697 426 697 539 l 697 0 l 483 0 l 478 82 l 467 82 q 379 7 431 25 q 257 -11 328 -11 m 363 151 q 424 160 401 151 q 458 189 446 168 q 474 275 474 215 l 474 303 l 347 303 q 293 297 310 303 q 270 276 276 292 q 264 224 264 260 q 271 178 264 193 q 298 157 278 163 q 363 151 318 151 m 342 846 l 210 846 l 54 1011 l 54 1017 l 232 1017 l 342 853 l 342 846 m 604 846 l 474 846 l 319 1011 l 319 1017 l 497 1017 l 604 853 l 604 846 z "},"ä":{"ha":783,"x_min":53,"x_max":697,"o":"m 257 -11 q 103 39 153 -11 q 53 203 53 89 q 72 332 53 286 q 140 399 92 378 q 278 419 188 419 q 474 414 346 419 l 474 439 q 462 513 474 492 q 417 540 450 535 q 301 546 385 546 q 94 535 197 546 l 94 696 q 372 719 225 719 q 587 689 518 719 q 676 599 656 658 q 697 426 697 539 l 697 0 l 483 0 l 478 82 l 467 82 q 379 7 431 25 q 257 -11 328 -11 m 363 151 q 424 160 401 151 q 458 189 446 168 q 474 275 474 215 l 474 303 l 347 303 q 293 297 310 303 q 270 276 276 292 q 264 224 264 260 q 271 178 264 193 q 298 157 278 163 q 363 151 318 151 m 160 860 l 160 1014 l 342 1014 l 342 860 l 160 860 m 446 860 l 446 1014 l 628 1014 l 628 860 l 446 860 z "},"ạ":{"ha":783,"x_min":53,"x_max":697,"o":"m 257 -11 q 103 39 153 -11 q 53 203 53 89 q 72 332 53 286 q 140 399 92 378 q 278 419 188 419 q 474 414 346 419 l 474 439 q 462 513 474 492 q 417 540 450 535 q 301 546 385 546 q 94 535 197 546 l 94 696 q 372 719 225 719 q 587 689 518 719 q 676 599 656 658 q 697 426 697 539 l 697 0 l 483 0 l 478 82 l 467 82 q 379 7 431 25 q 257 -11 328 -11 m 363 151 q 424 160 401 151 q 458 189 446 168 q 474 275 474 215 l 474 303 l 347 303 q 293 297 310 303 q 270 276 276 292 q 264 224 264 260 q 271 178 264 193 q 298 157 278 163 q 363 151 318 151 m 272 -293 l 272 -86 l 510 -86 l 510 -293 l 272 -293 z "},"à":{"ha":783,"x_min":53,"x_max":697,"o":"m 257 -11 q 103 39 153 -11 q 53 203 53 89 q 72 332 53 286 q 140 399 92 378 q 278 419 188 419 q 474 414 346 419 l 474 439 q 462 513 474 492 q 417 540 450 535 q 301 546 385 546 q 94 535 197 546 l 94 696 q 372 719 225 719 q 587 689 518 719 q 676 599 656 658 q 697 426 697 539 l 697 0 l 483 0 l 478 82 l 467 82 q 379 7 431 25 q 257 -11 328 -11 m 363 151 q 424 160 401 151 q 458 189 446 168 q 474 275 474 215 l 474 303 l 347 303 q 293 297 310 303 q 270 276 276 292 q 264 224 264 260 q 271 178 264 193 q 298 157 278 163 q 363 151 318 151 m 322 829 l 139 1025 l 139 1032 l 354 1032 l 481 836 l 481 829 l 322 829 z "},"ả":{"ha":783,"x_min":53,"x_max":697,"o":"m 257 -11 q 103 39 153 -11 q 53 203 53 89 q 72 332 53 286 q 140 399 92 378 q 278 419 188 419 q 474 414 346 419 l 474 439 q 462 513 474 492 q 417 540 450 535 q 301 546 385 546 q 94 535 197 546 l 94 696 q 372 719 225 719 q 587 689 518 719 q 676 599 656 658 q 697 426 697 539 l 697 0 l 483 0 l 478 82 l 467 82 q 379 7 431 25 q 257 -11 328 -11 m 363 151 q 424 160 401 151 q 458 189 446 168 q 474 275 474 215 l 474 303 l 347 303 q 293 297 310 303 q 270 276 276 292 q 264 224 264 260 q 271 178 264 193 q 298 157 278 163 q 363 151 318 151 m 296 853 q 308 917 296 900 q 363 946 321 935 l 388 953 q 428 969 419 961 q 438 994 438 976 q 421 1028 438 1022 q 347 1035 404 1035 q 203 1028 268 1035 l 203 1132 q 288 1142 238 1138 q 382 1146 339 1146 q 492 1138 451 1146 q 556 1101 532 1131 q 579 1010 579 1071 q 569 947 579 969 q 538 914 558 925 q 481 893 518 903 l 460 886 q 422 871 429 878 q 414 846 414 864 l 296 846 l 296 853 z "},"ȃ":{"ha":783,"x_min":53,"x_max":697,"o":"m 257 -11 q 103 39 153 -11 q 53 203 53 89 q 72 332 53 286 q 140 399 92 378 q 278 419 188 419 q 474 414 346 419 l 474 439 q 462 513 474 492 q 417 540 450 535 q 301 546 385 546 q 94 535 197 546 l 94 696 q 372 719 225 719 q 587 689 518 719 q 676 599 656 658 q 697 426 697 539 l 697 0 l 483 0 l 478 82 l 467 82 q 379 7 431 25 q 257 -11 328 -11 m 363 151 q 424 160 401 151 q 458 189 446 168 q 474 275 474 215 l 474 303 l 347 303 q 293 297 310 303 q 270 276 276 292 q 264 224 264 260 q 271 178 264 193 q 298 157 278 163 q 363 151 318 151 m 181 832 q 196 945 181 901 q 258 1015 211 989 q 393 1040 304 1040 q 528 1015 482 1040 q 588 945 574 989 q 603 832 603 901 l 481 832 q 476 881 481 864 q 453 908 472 897 q 393 918 435 918 q 333 908 351 918 q 309 881 314 897 q 304 832 304 864 l 181 832 z "},"ā":{"ha":783,"x_min":53,"x_max":697,"o":"m 257 -11 q 103 39 153 -11 q 53 203 53 89 q 72 332 53 286 q 140 399 92 378 q 278 419 188 419 q 474 414 346 419 l 474 439 q 462 513 474 492 q 417 540 450 535 q 301 546 385 546 q 94 535 197 546 l 94 696 q 372 719 225 719 q 587 689 518 719 q 676 599 656 658 q 697 426 697 539 l 697 0 l 483 0 l 478 82 l 467 82 q 379 7 431 25 q 257 -11 328 -11 m 363 151 q 424 160 401 151 q 458 189 446 168 q 474 275 474 215 l 474 303 l 347 303 q 293 297 310 303 q 270 276 276 292 q 264 224 264 260 q 271 178 264 193 q 298 157 278 163 q 363 151 318 151 m 201 847 l 201 1032 l 583 1032 l 583 847 l 201 847 z "},"ą":{"ha":783,"x_min":53,"x_max":697,"o":"m 697 0 q 635 -47 663 -15 q 608 -110 608 -79 q 672 -154 608 -154 q 697 -153 689 -154 l 697 -268 l 661 -269 q 603 -272 619 -272 q 428 -157 428 -272 q 514 0 428 -79 l 483 0 l 478 82 l 467 82 q 379 7 431 25 q 257 -11 328 -11 q 103 39 153 -11 q 53 203 53 89 q 72 332 53 286 q 140 399 92 378 q 278 419 188 419 q 474 414 346 419 l 474 439 q 462 513 474 492 q 417 540 450 535 q 301 546 385 546 q 194 542 260 546 q 94 535 129 538 l 94 696 q 372 719 225 719 q 587 689 518 719 q 676 599 656 658 q 697 426 697 539 l 697 0 m 474 303 l 347 303 q 293 297 310 303 q 270 276 276 292 q 264 224 264 260 q 271 178 264 193 q 298 157 278 163 q 363 151 318 151 q 424 160 401 151 q 458 189 446 168 q 474 275 474 215 l 474 303 z "},"å":{"ha":783,"x_min":53,"x_max":697,"o":"m 257 -11 q 103 39 153 -11 q 53 203 53 89 q 72 332 53 286 q 140 399 92 378 q 278 419 188 419 q 474 414 346 419 l 474 439 q 462 513 474 492 q 417 540 450 535 q 301 546 385 546 q 94 535 197 546 l 94 696 q 372 719 225 719 q 587 689 518 719 q 676 599 656 658 q 697 426 697 539 l 697 0 l 483 0 l 478 82 l 467 82 q 379 7 431 25 q 257 -11 328 -11 m 363 151 q 424 160 401 151 q 458 189 446 168 q 474 275 474 215 l 474 303 l 347 303 q 293 297 310 303 q 270 276 276 292 q 264 224 264 260 q 271 178 264 193 q 298 157 278 163 q 363 151 318 151 m 394 804 q 260 820 303 804 q 206 869 218 836 q 193 968 193 901 q 206 1069 193 1035 q 260 1119 218 1103 q 394 1135 303 1135 q 530 1119 486 1135 q 586 1069 574 1103 q 599 968 599 1035 q 586 869 599 903 q 530 820 574 836 q 394 804 486 804 m 394 896 q 455 902 438 896 q 476 922 472 908 q 481 968 481 935 q 476 1016 481 1003 q 455 1035 472 1029 q 394 1042 438 1042 q 336 1035 353 1042 q 315 1016 319 1029 q 311 968 311 1003 q 315 922 311 935 q 336 902 319 908 q 394 896 353 896 z "},"ǻ":{"ha":783,"x_min":53,"x_max":697,"o":"m 257 -11 q 103 39 153 -11 q 53 203 53 89 q 72 332 53 286 q 140 399 92 378 q 278 419 188 419 q 474 414 346 419 l 474 439 q 462 513 474 492 q 417 540 450 535 q 301 546 385 546 q 94 535 197 546 l 94 696 q 372 719 225 719 q 587 689 518 719 q 676 599 656 658 q 697 426 697 539 l 697 0 l 483 0 l 478 82 l 467 82 q 379 7 431 25 q 257 -11 328 -11 m 363 151 q 424 160 401 151 q 458 189 446 168 q 474 275 474 215 l 474 303 l 347 303 q 293 297 310 303 q 270 276 276 292 q 264 224 264 260 q 271 178 264 193 q 298 157 278 163 q 363 151 318 151 m 389 824 q 255 840 297 824 q 200 888 213 856 q 188 988 188 921 q 200 1088 188 1054 q 255 1138 213 1122 q 389 1154 297 1154 q 524 1138 481 1154 q 581 1088 568 1122 q 593 988 593 1054 q 581 889 593 922 q 524 840 568 856 q 389 824 481 824 m 389 915 q 449 922 432 915 q 471 941 467 928 q 475 988 475 954 q 471 1035 475 1022 q 449 1055 467 1049 q 389 1061 432 1061 q 331 1055 347 1061 q 310 1035 314 1049 q 306 988 306 1022 q 310 941 306 954 q 331 922 314 928 q 389 915 347 915 m 308 1192 l 308 1199 l 435 1394 l 650 1394 l 650 1388 l 467 1192 l 308 1192 z "},"ã":{"ha":783,"x_min":53,"x_max":697,"o":"m 257 -11 q 103 39 153 -11 q 53 203 53 89 q 72 332 53 286 q 140 399 92 378 q 278 419 188 419 q 474 414 346 419 l 474 439 q 462 513 474 492 q 417 540 450 535 q 301 546 385 546 q 94 535 197 546 l 94 696 q 372 719 225 719 q 587 689 518 719 q 676 599 656 658 q 697 426 697 539 l 697 0 l 483 0 l 478 82 l 467 82 q 379 7 431 25 q 257 -11 328 -11 m 363 151 q 424 160 401 151 q 458 189 446 168 q 474 275 474 215 l 474 303 l 347 303 q 293 297 310 303 q 270 276 276 292 q 264 224 264 260 q 271 178 264 193 q 298 157 278 163 q 363 151 318 151 m 661 1032 q 654 917 661 957 q 620 856 647 878 q 533 833 593 833 q 461 840 497 833 q 371 858 425 846 q 267 876 293 876 q 238 865 243 876 q 232 817 232 854 l 119 817 q 126 933 119 893 q 161 994 133 972 q 249 1017 189 1017 q 324 1010 286 1017 q 411 990 361 1003 q 459 980 424 988 q 515 972 494 972 q 544 983 539 972 q 550 1032 550 994 l 661 1032 z "},"æ":{"ha":1189,"x_min":53,"x_max":1122,"o":"m 1122 300 l 699 300 q 709 206 699 232 q 756 172 719 181 q 883 163 792 163 q 1094 174 983 163 l 1094 14 q 977 -4 1051 3 q 831 -11 903 -11 q 660 5 725 -11 q 560 57 596 21 q 450 2 513 15 q 303 -11 388 -11 q 154 10 208 -11 q 76 77 100 31 q 53 203 53 124 q 72 332 53 286 q 140 399 92 378 q 278 419 188 419 q 381 417 322 419 q 474 414 439 415 l 474 439 q 462 513 474 492 q 417 540 450 535 q 301 546 385 546 q 196 542 258 546 q 94 535 133 539 l 94 696 q 361 719 228 719 q 593 661 518 719 q 821 719 668 719 q 1028 684 965 719 q 1107 578 1092 649 q 1122 353 1122 508 l 1122 300 m 808 557 q 736 547 758 557 q 707 509 714 538 q 699 414 700 481 l 913 414 q 904 510 913 481 q 875 548 896 539 q 808 557 854 557 m 474 301 l 347 301 q 293 297 310 301 q 270 276 276 292 q 264 224 264 260 q 271 178 264 193 q 298 157 278 163 q 363 151 318 151 q 430 163 406 151 q 464 201 454 175 q 474 275 474 231 l 474 301 z "},"ǽ":{"ha":1189,"x_min":53,"x_max":1122,"o":"m 1122 300 l 699 300 q 709 206 699 232 q 756 172 719 181 q 883 163 792 163 q 1094 174 983 163 l 1094 14 q 977 -4 1051 3 q 831 -11 903 -11 q 660 5 725 -11 q 560 57 596 21 q 450 2 513 15 q 303 -11 388 -11 q 154 10 208 -11 q 76 77 100 31 q 53 203 53 124 q 72 332 53 286 q 140 399 92 378 q 278 419 188 419 q 381 417 322 419 q 474 414 439 415 l 474 439 q 462 513 474 492 q 417 540 450 535 q 301 546 385 546 q 196 542 258 546 q 94 535 133 539 l 94 696 q 361 719 228 719 q 593 661 518 719 q 821 719 668 719 q 1028 684 965 719 q 1107 578 1092 649 q 1122 353 1122 508 l 1122 300 m 808 557 q 736 547 758 557 q 707 509 714 538 q 699 414 700 481 l 913 414 q 904 510 913 481 q 875 548 896 539 q 808 557 854 557 m 474 301 l 347 301 q 293 297 310 301 q 270 276 276 292 q 264 224 264 260 q 271 178 264 193 q 298 157 278 163 q 363 151 318 151 q 430 163 406 151 q 464 201 454 175 q 474 275 474 231 l 474 301 m 508 829 l 508 836 l 635 1032 l 850 1032 l 850 1025 l 667 829 l 508 829 z "},"b":{"ha":808,"x_min":85,"x_max":747,"o":"m 515 -11 q 395 9 446 -11 q 315 83 344 29 l 303 83 l 297 0 l 85 0 l 85 1032 l 308 1032 l 308 633 l 319 633 q 398 701 350 683 q 517 718 446 718 q 652 685 603 718 q 724 574 701 653 q 747 353 747 494 q 724 131 747 210 q 651 21 700 53 q 515 -11 601 -11 m 415 178 q 490 188 469 178 q 517 233 511 199 q 524 354 524 267 q 517 475 524 442 q 490 519 511 508 q 415 529 469 529 q 356 522 376 529 q 325 493 336 514 q 312 440 315 472 q 308 354 308 408 q 312 267 308 300 q 325 215 315 235 q 356 186 336 194 q 415 178 376 178 z "},"c":{"ha":640,"x_min":61,"x_max":585,"o":"m 585 13 q 369 -11 481 -11 q 163 30 229 -11 q 79 144 97 71 q 61 354 61 218 q 80 560 61 486 q 165 677 99 635 q 368 719 231 719 q 579 696 488 719 l 579 535 q 428 546 504 546 q 334 531 363 546 q 297 479 306 517 q 288 354 288 442 q 297 228 288 267 q 334 176 306 190 q 429 163 363 163 q 585 174 503 163 l 585 13 z "},"ć":{"ha":640,"x_min":61,"x_max":585,"o":"m 585 13 q 369 -11 481 -11 q 163 30 229 -11 q 79 144 97 71 q 61 354 61 218 q 80 560 61 486 q 165 677 99 635 q 368 719 231 719 q 579 696 488 719 l 579 535 q 428 546 504 546 q 334 531 363 546 q 297 479 306 517 q 288 354 288 442 q 297 228 288 267 q 334 176 306 190 q 429 163 363 163 q 585 174 503 163 l 585 13 m 235 829 l 235 836 l 361 1032 l 576 1032 l 576 1025 l 393 829 l 235 829 z "},"č":{"ha":640,"x_min":61,"x_max":585,"o":"m 585 13 q 369 -11 481 -11 q 163 30 229 -11 q 79 144 97 71 q 61 354 61 218 q 80 560 61 486 q 165 677 99 635 q 368 719 231 719 q 579 696 488 719 l 579 535 q 428 546 504 546 q 334 531 363 546 q 297 479 306 517 q 288 354 288 442 q 297 228 288 267 q 334 176 306 190 q 429 163 363 163 q 585 174 503 163 l 585 13 m 217 829 l 88 1022 l 88 1032 l 231 1032 l 322 921 l 411 1032 l 556 1032 l 556 1022 l 424 829 l 217 829 z "},"ç":{"ha":640,"x_min":61,"x_max":585,"o":"m 585 13 q 393 -11 503 -7 l 346 -264 l 143 -264 l 143 -257 l 244 0 q 123 63 163 17 q 72 175 83 108 q 61 354 61 242 q 80 560 61 486 q 165 677 99 635 q 368 719 231 719 q 579 696 488 719 l 579 535 q 428 546 504 546 q 334 531 363 546 q 297 479 306 517 q 288 354 288 442 q 297 228 288 267 q 334 176 306 190 q 429 163 363 163 q 585 174 503 163 l 585 13 z "},"ĉ":{"ha":640,"x_min":61,"x_max":585,"o":"m 585 13 q 369 -11 481 -11 q 163 30 229 -11 q 79 144 97 71 q 61 354 61 218 q 80 560 61 486 q 165 677 99 635 q 368 719 231 719 q 579 696 488 719 l 579 535 q 428 546 504 546 q 334 531 363 546 q 297 479 306 517 q 288 354 288 442 q 297 228 288 267 q 334 176 306 190 q 429 163 363 163 q 585 174 503 163 l 585 13 m 88 829 l 88 839 l 217 1032 l 424 1032 l 556 839 l 556 829 l 411 829 l 319 940 l 231 829 l 88 829 z "},"ċ":{"ha":640,"x_min":61,"x_max":585,"o":"m 585 13 q 369 -11 481 -11 q 163 30 229 -11 q 79 144 97 71 q 61 354 61 218 q 80 560 61 486 q 165 677 99 635 q 368 719 231 719 q 579 696 488 719 l 579 535 q 428 546 504 546 q 334 531 363 546 q 297 479 306 517 q 288 354 288 442 q 297 228 288 267 q 334 176 306 190 q 429 163 363 163 q 585 174 503 163 l 585 13 m 229 860 l 229 1014 l 411 1014 l 411 860 l 229 860 z "},"d":{"ha":808,"x_min":61,"x_max":724,"o":"m 293 -11 q 158 21 207 -11 q 85 131 108 53 q 61 351 61 210 q 84 574 61 494 q 156 685 107 653 q 292 718 206 718 q 410 701 363 718 q 489 633 458 683 l 500 633 l 500 1032 l 724 1032 l 724 0 l 511 0 l 506 83 l 494 83 q 414 9 465 29 q 293 -11 363 -11 m 393 178 q 457 188 436 178 q 488 225 478 199 q 498 276 496 247 q 500 354 500 306 q 489 479 500 446 q 458 519 479 508 q 393 529 438 529 q 319 519 340 529 q 292 474 299 508 q 285 354 285 440 q 292 233 285 267 q 319 188 299 199 q 393 178 340 178 z "},"ð":{"ha":796,"x_min":61,"x_max":731,"o":"m 396 -11 q 169 21 239 -11 q 80 124 99 53 q 61 354 61 196 q 78 572 61 499 q 150 683 94 646 q 324 719 206 719 q 393 715 364 719 q 457 700 422 710 l 463 707 q 411 814 440 769 l 240 790 l 240 919 l 332 932 q 233 1026 282 986 l 233 1032 l 474 1032 q 542 964 511 999 l 713 989 l 713 860 l 628 846 q 711 606 683 746 q 731 363 731 497 q 712 126 731 199 q 624 21 693 53 q 396 -11 554 -11 m 396 163 q 476 174 454 163 q 503 220 497 185 q 508 354 508 256 q 503 484 508 449 q 475 533 497 519 q 396 546 453 546 q 316 534 338 546 q 290 488 294 522 q 285 354 285 453 q 290 219 285 254 q 316 174 294 185 q 396 163 338 163 z "},"ď":{"ha":890,"x_min":61,"x_max":983,"o":"m 293 -11 q 158 21 207 -11 q 85 131 108 53 q 61 351 61 210 q 84 574 61 494 q 156 685 107 653 q 292 718 206 718 q 410 701 363 718 q 489 633 458 683 l 500 633 l 500 1032 l 724 1032 l 724 0 l 511 0 l 506 83 l 494 83 q 414 9 465 29 q 293 -11 363 -11 m 393 178 q 457 188 436 178 q 488 225 478 199 q 498 276 496 247 q 500 354 500 306 q 489 479 500 446 q 458 519 479 508 q 393 529 438 529 q 319 519 340 529 q 292 474 299 508 q 285 354 285 440 q 292 233 285 267 q 319 188 299 199 q 393 178 340 178 m 767 594 l 785 879 l 785 956 l 983 956 l 983 879 l 918 594 l 767 594 z "},"đ":{"ha":808,"x_min":61,"x_max":807,"o":"m 807 792 l 724 792 l 724 0 l 511 0 l 506 83 l 494 83 q 414 9 465 29 q 293 -11 363 -11 q 158 21 207 -11 q 85 131 108 53 q 61 351 61 210 q 84 574 61 494 q 156 685 107 653 q 292 718 206 718 q 410 701 363 718 q 489 633 458 683 l 500 633 l 500 792 l 332 792 l 332 956 l 500 956 l 500 1032 l 724 1032 l 724 956 l 807 956 l 807 792 m 488 225 q 498 276 496 247 q 500 354 500 306 q 489 479 500 446 q 458 519 479 508 q 393 529 438 529 q 319 519 340 529 q 292 474 299 508 q 285 354 285 440 q 292 233 285 267 q 319 188 299 199 q 393 178 340 178 q 457 188 436 178 q 488 225 478 199 z "},"ḍ":{"ha":808,"x_min":61,"x_max":724,"o":"m 293 -11 q 158 21 207 -11 q 85 131 108 53 q 61 351 61 210 q 84 574 61 494 q 156 685 107 653 q 292 718 206 718 q 410 701 363 718 q 489 633 458 683 l 500 633 l 500 1032 l 724 1032 l 724 0 l 511 0 l 506 83 l 494 83 q 414 9 465 29 q 293 -11 363 -11 m 393 178 q 457 188 436 178 q 488 225 478 199 q 498 276 496 247 q 500 354 500 306 q 489 479 500 446 q 458 519 479 508 q 393 529 438 529 q 319 519 340 529 q 292 474 299 508 q 285 354 285 440 q 292 233 285 267 q 319 188 299 199 q 393 178 340 178 m 285 -293 l 285 -86 l 522 -86 l 522 -293 l 285 -293 z "},"ǳ":{"ha":1536,"x_min":61,"x_max":1476,"o":"m 293 -11 q 158 21 207 -11 q 85 131 108 53 q 61 351 61 210 q 84 574 61 494 q 156 685 107 653 q 292 718 206 718 q 410 701 363 718 q 489 633 458 683 l 500 633 l 500 1032 l 724 1032 l 724 0 l 511 0 l 506 83 l 494 83 q 414 9 465 29 q 293 -11 363 -11 m 393 178 q 457 188 436 178 q 488 225 478 199 q 498 276 496 247 q 500 354 500 306 q 489 479 500 446 q 458 519 479 508 q 393 529 438 529 q 319 519 340 529 q 292 474 299 508 q 285 354 285 440 q 292 233 285 267 q 319 188 299 199 q 393 178 340 178 m 868 0 l 868 164 l 1192 535 l 885 535 l 885 708 l 1474 708 l 1474 544 l 1150 174 l 1476 174 l 1476 0 l 868 0 z "},"ǆ":{"ha":1536,"x_min":61,"x_max":1476,"o":"m 293 -11 q 158 21 207 -11 q 85 131 108 53 q 61 351 61 210 q 84 574 61 494 q 156 685 107 653 q 292 718 206 718 q 410 701 363 718 q 489 633 458 683 l 500 633 l 500 1032 l 724 1032 l 724 0 l 511 0 l 506 83 l 494 83 q 414 9 465 29 q 293 -11 363 -11 m 393 178 q 457 188 436 178 q 488 225 478 199 q 498 276 496 247 q 500 354 500 306 q 489 479 500 446 q 458 519 479 508 q 393 529 438 529 q 319 519 340 529 q 292 474 299 508 q 285 354 285 440 q 292 233 285 267 q 319 188 299 199 q 393 178 340 178 m 868 0 l 868 164 l 1192 535 l 885 535 l 885 708 l 1474 708 l 1474 544 l 1150 174 l 1476 174 l 1476 0 l 868 0 m 1068 829 l 939 1022 l 939 1032 l 1082 1032 l 1174 921 l 1263 1032 l 1407 1032 l 1407 1022 l 1275 829 l 1068 829 z "},"e":{"ha":771,"x_min":61,"x_max":707,"o":"m 707 299 l 283 299 q 294 206 283 232 q 340 171 304 179 q 467 163 375 163 q 679 174 565 163 l 679 14 q 560 -4 635 3 q 414 -11 486 -11 q 177 24 251 -11 q 82 132 103 60 q 61 353 61 204 q 82 572 61 499 q 173 683 103 646 q 393 719 243 719 q 609 684 543 719 q 691 578 675 649 q 707 353 707 508 l 707 299 m 392 557 q 319 547 342 557 q 290 509 297 538 q 283 414 283 481 l 497 414 q 489 510 497 481 q 460 548 481 539 q 392 557 439 557 z "},"é":{"ha":771,"x_min":61,"x_max":707,"o":"m 707 299 l 283 299 q 294 206 283 232 q 340 171 304 179 q 467 163 375 163 q 679 174 565 163 l 679 14 q 560 -4 635 3 q 414 -11 486 -11 q 177 24 251 -11 q 82 132 103 60 q 61 353 61 204 q 82 572 61 499 q 173 683 103 646 q 393 719 243 719 q 609 684 543 719 q 691 578 675 649 q 707 353 707 508 l 707 299 m 392 557 q 319 547 342 557 q 290 509 297 538 q 283 414 283 481 l 497 414 q 489 510 497 481 q 460 548 481 539 q 392 557 439 557 m 307 829 l 307 836 l 433 1032 l 649 1032 l 649 1025 l 465 829 l 307 829 z "},"ĕ":{"ha":771,"x_min":61,"x_max":707,"o":"m 707 299 l 283 299 q 294 206 283 232 q 340 171 304 179 q 467 163 375 163 q 679 174 565 163 l 679 14 q 560 -4 635 3 q 414 -11 486 -11 q 177 24 251 -11 q 82 132 103 60 q 61 353 61 204 q 82 572 61 499 q 173 683 103 646 q 393 719 243 719 q 609 684 543 719 q 691 578 675 649 q 707 353 707 508 l 707 299 m 392 557 q 319 547 342 557 q 290 509 297 538 q 283 414 283 481 l 497 414 q 489 510 497 481 q 460 548 481 539 q 392 557 439 557 m 597 1032 q 582 919 597 963 q 520 849 567 875 q 385 824 474 824 q 250 849 296 824 q 190 919 204 875 q 175 1032 175 963 l 297 1032 q 301 983 297 1000 q 324 956 306 967 q 385 946 343 946 q 445 956 426 946 q 469 983 464 967 q 474 1032 474 1000 l 597 1032 z "},"ě":{"ha":771,"x_min":61,"x_max":707,"o":"m 707 299 l 283 299 q 294 206 283 232 q 340 171 304 179 q 467 163 375 163 q 679 174 565 163 l 679 14 q 560 -4 635 3 q 414 -11 486 -11 q 177 24 251 -11 q 82 132 103 60 q 61 353 61 204 q 82 572 61 499 q 173 683 103 646 q 393 719 243 719 q 609 684 543 719 q 691 578 675 649 q 707 353 707 508 l 707 299 m 392 557 q 319 547 342 557 q 290 509 297 538 q 283 414 283 481 l 497 414 q 489 510 497 481 q 460 548 481 539 q 392 557 439 557 m 282 829 l 153 1022 l 153 1032 l 296 1032 l 388 921 l 476 1032 l 621 1032 l 621 1022 l 489 829 l 282 829 z "},"ê":{"ha":771,"x_min":61,"x_max":707,"o":"m 707 299 l 283 299 q 294 206 283 232 q 340 171 304 179 q 467 163 375 163 q 679 174 565 163 l 679 14 q 560 -4 635 3 q 414 -11 486 -11 q 177 24 251 -11 q 82 132 103 60 q 61 353 61 204 q 82 572 61 499 q 173 683 103 646 q 393 719 243 719 q 609 684 543 719 q 691 578 675 649 q 707 353 707 508 l 707 299 m 392 557 q 319 547 342 557 q 290 509 297 538 q 283 414 283 481 l 497 414 q 489 510 497 481 q 460 548 481 539 q 392 557 439 557 m 161 829 l 161 839 l 290 1032 l 497 1032 l 629 839 l 629 829 l 485 829 l 393 940 l 304 829 l 161 829 z "},"ế":{"ha":771,"x_min":61,"x_max":744,"o":"m 707 299 l 283 299 q 294 206 283 232 q 340 171 304 179 q 467 163 375 163 q 679 174 565 163 l 679 14 q 560 -4 635 3 q 414 -11 486 -11 q 177 24 251 -11 q 82 132 103 60 q 61 353 61 204 q 82 572 61 499 q 173 683 103 646 q 393 719 243 719 q 609 684 543 719 q 691 578 675 649 q 707 353 707 508 l 707 299 m 392 557 q 319 547 342 557 q 290 509 297 538 q 283 414 283 481 l 497 414 q 489 510 497 481 q 460 548 481 539 q 392 557 439 557 m 150 829 l 150 839 l 279 1032 l 486 1032 l 618 839 l 618 829 l 474 829 l 382 940 l 293 829 l 150 829 m 403 1069 l 403 1076 l 529 1272 l 744 1272 l 744 1265 l 561 1069 l 403 1069 z "},"ệ":{"ha":771,"x_min":61,"x_max":707,"o":"m 707 299 l 283 299 q 294 206 283 232 q 340 171 304 179 q 467 163 375 163 q 679 174 565 163 l 679 14 q 560 -4 635 3 q 414 -11 486 -11 q 177 24 251 -11 q 82 132 103 60 q 61 353 61 204 q 82 572 61 499 q 173 683 103 646 q 393 719 243 719 q 609 684 543 719 q 691 578 675 649 q 707 353 707 508 l 707 299 m 392 557 q 319 547 342 557 q 290 509 297 538 q 283 414 283 481 l 497 414 q 489 510 497 481 q 460 548 481 539 q 392 557 439 557 m 267 -293 l 267 -86 l 504 -86 l 504 -293 l 267 -293 m 153 829 l 153 839 l 282 1032 l 489 1032 l 621 839 l 621 829 l 476 829 l 385 940 l 296 829 l 153 829 z "},"ề":{"ha":771,"x_min":61,"x_max":707,"o":"m 707 299 l 283 299 q 294 206 283 232 q 340 171 304 179 q 467 163 375 163 q 679 174 565 163 l 679 14 q 560 -4 635 3 q 414 -11 486 -11 q 177 24 251 -11 q 82 132 103 60 q 61 353 61 204 q 82 572 61 499 q 173 683 103 646 q 393 719 243 719 q 609 684 543 719 q 691 578 675 649 q 707 353 707 508 l 707 299 m 392 557 q 319 547 342 557 q 290 509 297 538 q 283 414 283 481 l 497 414 q 489 510 497 481 q 460 548 481 539 q 392 557 439 557 m 144 829 l 144 839 l 274 1032 l 481 1032 l 613 839 l 613 829 l 468 829 l 376 940 l 288 829 l 144 829 m 463 1069 l 279 1265 l 279 1272 l 494 1272 l 621 1076 l 621 1069 l 463 1069 z "},"ể":{"ha":771,"x_min":61,"x_max":728,"o":"m 707 299 l 283 299 q 294 206 283 232 q 340 171 304 179 q 467 163 375 163 q 679 174 565 163 l 679 14 q 560 -4 635 3 q 414 -11 486 -11 q 177 24 251 -11 q 82 132 103 60 q 61 353 61 204 q 82 572 61 499 q 173 683 103 646 q 393 719 243 719 q 609 684 543 719 q 691 578 675 649 q 707 353 707 508 l 707 299 m 392 557 q 319 547 342 557 q 290 509 297 538 q 283 414 283 481 l 497 414 q 489 510 497 481 q 460 548 481 539 q 392 557 439 557 m 153 829 l 153 839 l 282 1032 l 489 1032 l 621 839 l 621 829 l 476 829 l 385 940 l 296 829 l 153 829 m 444 1065 q 457 1130 444 1113 q 511 1158 469 1147 l 536 1165 q 577 1181 568 1174 q 586 1207 586 1189 q 569 1241 586 1235 q 496 1247 553 1247 q 351 1240 417 1247 l 351 1344 q 437 1354 386 1350 q 531 1358 488 1358 q 640 1351 600 1358 q 704 1313 681 1343 q 728 1222 728 1283 q 717 1160 728 1182 q 687 1126 707 1138 q 629 1106 667 1115 l 608 1099 q 570 1083 578 1090 q 563 1058 563 1076 l 444 1058 l 444 1065 z "},"ễ":{"ha":771,"x_min":61,"x_max":707,"o":"m 707 299 l 283 299 q 294 206 283 232 q 340 171 304 179 q 467 163 375 163 q 679 174 565 163 l 679 14 q 560 -4 635 3 q 414 -11 486 -11 q 177 24 251 -11 q 82 132 103 60 q 61 353 61 204 q 82 572 61 499 q 173 683 103 646 q 393 719 243 719 q 609 684 543 719 q 691 578 675 649 q 707 353 707 508 l 707 299 m 392 557 q 319 547 342 557 q 290 509 297 538 q 283 414 283 481 l 497 414 q 489 510 497 481 q 460 548 481 539 q 392 557 439 557 m 150 829 l 150 839 l 279 1032 l 486 1032 l 618 839 l 618 829 l 474 829 l 382 940 l 293 829 l 150 829 m 656 1272 q 649 1158 656 1197 q 615 1096 642 1118 q 528 1074 588 1074 q 456 1080 492 1074 q 365 1099 419 1086 q 261 1117 288 1117 q 232 1106 238 1117 q 226 1057 226 1094 l 114 1057 q 121 1173 114 1133 q 156 1235 128 1213 q 243 1257 183 1257 q 318 1250 281 1257 q 406 1231 356 1243 q 453 1220 418 1228 q 510 1213 489 1213 q 539 1224 533 1213 q 544 1272 544 1235 l 656 1272 z "},"ȅ":{"ha":771,"x_min":49,"x_max":707,"o":"m 707 299 l 283 299 q 294 206 283 232 q 340 171 304 179 q 467 163 375 163 q 679 174 565 163 l 679 14 q 560 -4 635 3 q 414 -11 486 -11 q 177 24 251 -11 q 82 132 103 60 q 61 353 61 204 q 82 572 61 499 q 173 683 103 646 q 393 719 243 719 q 609 684 543 719 q 691 578 675 649 q 707 353 707 508 l 707 299 m 392 557 q 319 547 342 557 q 290 509 297 538 q 283 414 283 481 l 497 414 q 489 510 497 481 q 460 548 481 539 q 392 557 439 557 m 336 846 l 204 846 l 49 1011 l 49 1017 l 226 1017 l 336 853 l 336 846 m 599 846 l 468 846 l 314 1011 l 314 1017 l 492 1017 l 599 853 l 599 846 z "},"ë":{"ha":771,"x_min":61,"x_max":707,"o":"m 707 299 l 283 299 q 294 206 283 232 q 340 171 304 179 q 467 163 375 163 q 679 174 565 163 l 679 14 q 560 -4 635 3 q 414 -11 486 -11 q 177 24 251 -11 q 82 132 103 60 q 61 353 61 204 q 82 572 61 499 q 173 683 103 646 q 393 719 243 719 q 609 684 543 719 q 691 578 675 649 q 707 353 707 508 l 707 299 m 392 557 q 319 547 342 557 q 290 509 297 538 q 283 414 283 481 l 497 414 q 489 510 497 481 q 460 548 481 539 q 392 557 439 557 m 163 860 l 163 1014 l 344 1014 l 344 860 l 163 860 m 449 860 l 449 1014 l 631 1014 l 631 860 l 449 860 z "},"ė":{"ha":771,"x_min":61,"x_max":707,"o":"m 707 299 l 283 299 q 294 206 283 232 q 340 171 304 179 q 467 163 375 163 q 679 174 565 163 l 679 14 q 560 -4 635 3 q 414 -11 486 -11 q 177 24 251 -11 q 82 132 103 60 q 61 353 61 204 q 82 572 61 499 q 173 683 103 646 q 393 719 243 719 q 609 684 543 719 q 691 578 675 649 q 707 353 707 508 l 707 299 m 392 557 q 319 547 342 557 q 290 509 297 538 q 283 414 283 481 l 497 414 q 489 510 497 481 q 460 548 481 539 q 392 557 439 557 m 294 860 l 294 1014 l 476 1014 l 476 860 l 294 860 z "},"ẹ":{"ha":771,"x_min":61,"x_max":707,"o":"m 707 299 l 283 299 q 294 206 283 232 q 340 171 304 179 q 467 163 375 163 q 679 174 565 163 l 679 14 q 560 -4 635 3 q 414 -11 486 -11 q 177 24 251 -11 q 82 132 103 60 q 61 353 61 204 q 82 572 61 499 q 173 683 103 646 q 393 719 243 719 q 609 684 543 719 q 691 578 675 649 q 707 353 707 508 l 707 299 m 392 557 q 319 547 342 557 q 290 509 297 538 q 283 414 283 481 l 497 414 q 489 510 497 481 q 460 548 481 539 q 392 557 439 557 m 267 -293 l 267 -86 l 504 -86 l 504 -293 l 267 -293 z "},"è":{"ha":771,"x_min":61,"x_max":707,"o":"m 707 299 l 283 299 q 294 206 283 232 q 340 171 304 179 q 467 163 375 163 q 679 174 565 163 l 679 14 q 560 -4 635 3 q 414 -11 486 -11 q 177 24 251 -11 q 82 132 103 60 q 61 353 61 204 q 82 572 61 499 q 173 683 103 646 q 393 719 243 719 q 609 684 543 719 q 691 578 675 649 q 707 353 707 508 l 707 299 m 392 557 q 319 547 342 557 q 290 509 297 538 q 283 414 283 481 l 497 414 q 489 510 497 481 q 460 548 481 539 q 392 557 439 557 m 328 829 l 144 1025 l 144 1032 l 360 1032 l 486 836 l 486 829 l 328 829 z "},"ẻ":{"ha":771,"x_min":61,"x_max":707,"o":"m 707 299 l 283 299 q 294 206 283 232 q 340 171 304 179 q 467 163 375 163 q 679 174 565 163 l 679 14 q 560 -4 635 3 q 414 -11 486 -11 q 177 24 251 -11 q 82 132 103 60 q 61 353 61 204 q 82 572 61 499 q 173 683 103 646 q 393 719 243 719 q 609 684 543 719 q 691 578 675 649 q 707 353 707 508 l 707 299 m 392 557 q 319 547 342 557 q 290 509 297 538 q 283 414 283 481 l 497 414 q 489 510 497 481 q 460 548 481 539 q 392 557 439 557 m 290 853 q 303 917 290 900 q 357 946 315 935 l 382 953 q 423 969 414 961 q 432 994 432 976 q 415 1028 432 1022 q 342 1035 399 1035 q 197 1028 263 1035 l 197 1132 q 283 1142 232 1138 q 376 1146 333 1146 q 486 1138 446 1146 q 550 1101 526 1131 q 574 1010 574 1071 q 563 947 574 969 q 533 914 553 925 q 475 893 513 903 l 454 886 q 416 871 424 878 q 408 846 408 864 l 290 846 l 290 853 z "},"ȇ":{"ha":771,"x_min":61,"x_max":707,"o":"m 707 299 l 283 299 q 294 206 283 232 q 340 171 304 179 q 467 163 375 163 q 679 174 565 163 l 679 14 q 560 -4 635 3 q 414 -11 486 -11 q 177 24 251 -11 q 82 132 103 60 q 61 353 61 204 q 82 572 61 499 q 173 683 103 646 q 393 719 243 719 q 609 684 543 719 q 691 578 675 649 q 707 353 707 508 l 707 299 m 392 557 q 319 547 342 557 q 290 509 297 538 q 283 414 283 481 l 497 414 q 489 510 497 481 q 460 548 481 539 q 392 557 439 557 m 175 832 q 190 945 175 901 q 252 1015 206 989 q 388 1040 299 1040 q 522 1015 476 1040 q 583 945 568 989 q 597 832 597 901 l 475 832 q 471 881 475 864 q 448 908 467 897 q 388 918 429 918 q 327 908 346 918 q 303 881 308 897 q 299 832 299 864 l 175 832 z "},"ē":{"ha":771,"x_min":61,"x_max":707,"o":"m 707 299 l 283 299 q 294 206 283 232 q 340 171 304 179 q 467 163 375 163 q 679 174 565 163 l 679 14 q 560 -4 635 3 q 414 -11 486 -11 q 177 24 251 -11 q 82 132 103 60 q 61 353 61 204 q 82 572 61 499 q 173 683 103 646 q 393 719 243 719 q 609 684 543 719 q 691 578 675 649 q 707 353 707 508 l 707 299 m 392 557 q 319 547 342 557 q 290 509 297 538 q 283 414 283 481 l 497 414 q 489 510 497 481 q 460 548 481 539 q 392 557 439 557 m 196 847 l 196 1032 l 578 1032 l 578 847 l 196 847 z "},"ę":{"ha":771,"x_min":61,"x_max":707,"o":"m 707 299 l 283 299 q 294 206 283 232 q 340 171 304 179 q 467 163 375 163 q 679 174 565 163 l 679 14 q 593 -42 632 -8 q 554 -111 554 -76 q 618 -154 554 -154 q 643 -153 638 -154 l 643 -268 q 549 -272 601 -272 q 414 -240 454 -272 q 374 -160 374 -208 q 464 -11 374 -82 l 414 -11 q 177 24 251 -11 q 82 132 103 60 q 61 353 61 204 q 82 572 61 499 q 173 683 103 646 q 393 719 243 719 q 609 684 543 719 q 691 578 675 649 q 707 353 707 508 l 707 299 m 392 557 q 319 547 342 557 q 290 509 297 538 q 283 414 283 481 l 497 414 q 489 510 497 481 q 460 548 481 539 q 392 557 439 557 z "},"ẽ":{"ha":771,"x_min":61,"x_max":707,"o":"m 707 299 l 283 299 q 294 206 283 232 q 340 171 304 179 q 467 163 375 163 q 679 174 565 163 l 679 14 q 560 -4 635 3 q 414 -11 486 -11 q 177 24 251 -11 q 82 132 103 60 q 61 353 61 204 q 82 572 61 499 q 173 683 103 646 q 393 719 243 719 q 609 684 543 719 q 691 578 675 649 q 707 353 707 508 l 707 299 m 392 557 q 319 547 342 557 q 290 509 297 538 q 283 414 283 481 l 497 414 q 489 510 497 481 q 460 548 481 539 q 392 557 439 557 m 656 1032 q 649 917 656 957 q 615 856 642 878 q 528 833 588 833 q 456 840 492 833 q 365 858 419 846 q 261 876 288 876 q 232 865 238 876 q 226 817 226 854 l 114 817 q 121 933 114 893 q 156 994 128 972 q 243 1017 183 1017 q 318 1010 281 1017 q 406 990 356 1003 q 453 980 418 988 q 510 972 489 972 q 539 983 533 972 q 544 1032 544 994 l 656 1032 z "},"ə":{"ha":771,"x_min":64,"x_max":710,"o":"m 357 719 q 594 684 519 719 q 689 576 668 649 q 710 356 710 504 q 689 136 710 210 q 598 26 668 63 q 378 -11 528 -11 q 162 24 228 -11 q 80 130 96 60 q 64 356 64 200 l 64 410 l 488 410 q 477 503 488 476 q 431 538 467 529 q 304 546 396 546 q 92 535 206 546 l 92 694 q 210 713 136 706 q 357 719 285 719 m 379 151 q 451 161 429 151 q 481 199 474 171 q 488 294 488 228 l 274 294 q 282 199 274 228 q 311 160 290 169 q 379 151 332 151 z "},"f":{"ha":585,"x_min":28,"x_max":550,"o":"m 157 535 l 28 535 l 28 708 l 157 708 l 157 753 q 188 947 157 890 q 292 1017 218 1003 q 550 1031 367 1031 l 550 872 q 435 867 468 872 q 392 844 403 861 q 382 785 382 828 l 382 708 l 550 708 l 550 535 l 382 535 l 382 0 l 157 0 l 157 535 z "},"g":{"ha":808,"x_min":61,"x_max":724,"o":"m 368 -286 q 232 -281 303 -286 q 118 -268 161 -275 l 118 -110 q 311 -112 232 -112 q 442 -103 406 -112 q 490 -64 479 -93 q 500 39 500 -35 l 500 90 l 490 90 q 413 22 461 40 q 294 4 364 4 q 157 36 207 4 q 84 144 107 68 q 61 361 61 221 q 85 579 61 501 q 158 688 108 657 q 294 719 208 719 q 413 699 361 719 q 494 624 465 678 l 506 624 l 511 708 l 724 708 l 724 81 q 702 -136 724 -62 q 605 -248 681 -210 q 368 -286 529 -286 m 393 192 q 454 201 433 192 q 485 233 475 210 q 497 281 494 253 q 500 361 500 310 q 497 440 500 411 q 485 486 494 468 q 454 521 475 511 q 393 531 433 531 q 319 521 340 531 q 292 478 299 511 q 285 361 285 444 q 292 244 285 278 q 319 201 299 211 q 393 192 340 192 z "},"ǵ":{"ha":808,"x_min":61,"x_max":724,"o":"m 368 -286 q 232 -281 303 -286 q 118 -268 161 -275 l 118 -110 q 311 -112 232 -112 q 442 -103 406 -112 q 490 -64 479 -93 q 500 39 500 -35 l 500 90 l 490 90 q 413 22 461 40 q 294 4 364 4 q 157 36 207 4 q 84 144 107 68 q 61 361 61 221 q 85 579 61 501 q 158 688 108 657 q 294 719 208 719 q 413 699 361 719 q 494 624 465 678 l 506 624 l 511 708 l 724 708 l 724 81 q 702 -136 724 -62 q 605 -248 681 -210 q 368 -286 529 -286 m 393 192 q 454 201 433 192 q 485 233 475 210 q 497 281 494 253 q 500 361 500 310 q 497 440 500 411 q 485 486 494 468 q 454 521 475 511 q 393 531 433 531 q 319 521 340 531 q 292 478 299 511 q 285 361 285 444 q 292 244 285 278 q 319 201 299 211 q 393 192 340 192 m 318 829 l 318 836 l 444 1032 l 660 1032 l 660 1025 l 476 829 l 318 829 z "},"ğ":{"ha":808,"x_min":61,"x_max":724,"o":"m 368 -286 q 232 -281 303 -286 q 118 -268 161 -275 l 118 -110 q 311 -112 232 -112 q 442 -103 406 -112 q 490 -64 479 -93 q 500 39 500 -35 l 500 90 l 490 90 q 413 22 461 40 q 294 4 364 4 q 157 36 207 4 q 84 144 107 68 q 61 361 61 221 q 85 579 61 501 q 158 688 108 657 q 294 719 208 719 q 413 699 361 719 q 494 624 465 678 l 506 624 l 511 708 l 724 708 l 724 81 q 702 -136 724 -62 q 605 -248 681 -210 q 368 -286 529 -286 m 393 192 q 454 201 433 192 q 485 233 475 210 q 497 281 494 253 q 500 361 500 310 q 497 440 500 411 q 485 486 494 468 q 454 521 475 511 q 393 531 433 531 q 319 521 340 531 q 292 478 299 511 q 285 361 285 444 q 292 244 285 278 q 319 201 299 211 q 393 192 340 192 m 615 1032 q 600 919 615 963 q 538 849 585 875 q 403 824 492 824 q 268 849 314 824 q 208 919 222 875 q 193 1032 193 963 l 315 1032 q 319 983 315 1000 q 342 956 324 967 q 403 946 361 946 q 463 956 444 946 q 487 983 482 967 q 492 1032 492 1000 l 615 1032 z "},"ǧ":{"ha":808,"x_min":61,"x_max":724,"o":"m 368 -286 q 232 -281 303 -286 q 118 -268 161 -275 l 118 -110 q 311 -112 232 -112 q 442 -103 406 -112 q 490 -64 479 -93 q 500 39 500 -35 l 500 90 l 490 90 q 413 22 461 40 q 294 4 364 4 q 157 36 207 4 q 84 144 107 68 q 61 361 61 221 q 85 579 61 501 q 158 688 108 657 q 294 719 208 719 q 413 699 361 719 q 494 624 465 678 l 506 624 l 511 708 l 724 708 l 724 81 q 702 -136 724 -62 q 605 -248 681 -210 q 368 -286 529 -286 m 393 192 q 454 201 433 192 q 485 233 475 210 q 497 281 494 253 q 500 361 500 310 q 497 440 500 411 q 485 486 494 468 q 454 521 475 511 q 393 531 433 531 q 319 521 340 531 q 292 478 299 511 q 285 361 285 444 q 292 244 285 278 q 319 201 299 211 q 393 192 340 192 m 300 829 l 171 1022 l 171 1032 l 314 1032 l 406 921 l 494 1032 l 639 1032 l 639 1022 l 507 829 l 300 829 z "},"ĝ":{"ha":808,"x_min":61,"x_max":724,"o":"m 368 -286 q 232 -281 303 -286 q 118 -268 161 -275 l 118 -110 q 311 -112 232 -112 q 442 -103 406 -112 q 490 -64 479 -93 q 500 39 500 -35 l 500 90 l 490 90 q 413 22 461 40 q 294 4 364 4 q 157 36 207 4 q 84 144 107 68 q 61 361 61 221 q 85 579 61 501 q 158 688 108 657 q 294 719 208 719 q 413 699 361 719 q 494 624 465 678 l 506 624 l 511 708 l 724 708 l 724 81 q 702 -136 724 -62 q 605 -248 681 -210 q 368 -286 529 -286 m 393 192 q 454 201 433 192 q 485 233 475 210 q 497 281 494 253 q 500 361 500 310 q 497 440 500 411 q 485 486 494 468 q 454 521 475 511 q 393 531 433 531 q 319 521 340 531 q 292 478 299 511 q 285 361 285 444 q 292 244 285 278 q 319 201 299 211 q 393 192 340 192 m 171 829 l 171 839 l 300 1032 l 507 1032 l 639 839 l 639 829 l 494 829 l 403 940 l 314 829 l 171 829 z "},"ģ":{"ha":808,"x_min":61,"x_max":724,"o":"m 368 -286 q 232 -281 303 -286 q 118 -268 161 -275 l 118 -110 q 311 -112 232 -112 q 442 -103 406 -112 q 490 -64 479 -93 q 500 39 500 -35 l 500 90 l 490 90 q 413 22 461 40 q 294 4 364 4 q 157 36 207 4 q 84 144 107 68 q 61 361 61 221 q 85 579 61 501 q 158 688 108 657 q 294 719 208 719 q 413 699 361 719 q 494 624 465 678 l 506 624 l 511 708 l 724 708 l 724 81 q 702 -136 724 -62 q 605 -248 681 -210 q 368 -286 529 -286 m 393 192 q 454 201 433 192 q 485 233 475 210 q 497 281 494 253 q 500 361 500 310 q 497 440 500 411 q 485 486 494 468 q 454 521 475 511 q 393 531 433 531 q 319 521 340 531 q 292 478 299 511 q 285 361 285 444 q 292 244 285 278 q 319 201 299 211 q 393 192 340 192 m 526 1064 q 451 1053 469 1064 q 433 1011 433 1043 l 433 996 l 517 996 l 517 831 l 292 831 l 292 942 q 308 1073 292 1031 q 372 1133 324 1115 q 526 1150 421 1150 l 526 1064 z "},"ġ":{"ha":808,"x_min":61,"x_max":724,"o":"m 368 -286 q 232 -281 303 -286 q 118 -268 161 -275 l 118 -110 q 311 -112 232 -112 q 442 -103 406 -112 q 490 -64 479 -93 q 500 39 500 -35 l 500 90 l 490 90 q 413 22 461 40 q 294 4 364 4 q 157 36 207 4 q 84 144 107 68 q 61 361 61 221 q 85 579 61 501 q 158 688 108 657 q 294 719 208 719 q 413 699 361 719 q 494 624 465 678 l 506 624 l 511 708 l 724 708 l 724 81 q 702 -136 724 -62 q 605 -248 681 -210 q 368 -286 529 -286 m 393 192 q 454 201 433 192 q 485 233 475 210 q 497 281 494 253 q 500 361 500 310 q 497 440 500 411 q 485 486 494 468 q 454 521 475 511 q 393 531 433 531 q 319 521 340 531 q 292 478 299 511 q 285 361 285 444 q 292 244 285 278 q 319 201 299 211 q 393 192 340 192 m 313 860 l 313 1014 l 494 1014 l 494 860 l 313 860 z "},"h":{"ha":818,"x_min":85,"x_max":733,"o":"m 510 374 q 503 482 510 451 q 479 521 497 513 q 413 529 461 529 q 344 516 365 529 q 315 471 322 503 q 308 369 308 439 l 308 0 l 85 0 l 85 1032 l 308 1032 l 308 626 l 319 626 q 399 698 349 676 q 519 719 450 719 q 656 688 610 719 q 718 599 703 657 q 733 443 733 542 l 733 0 l 510 0 l 510 374 z "},"ħ":{"ha":818,"x_min":3,"x_max":733,"o":"m 519 719 q 656 688 610 719 q 718 599 703 657 q 733 443 733 542 l 733 0 l 510 0 l 510 374 q 503 482 510 451 q 479 521 497 513 q 413 529 461 529 q 344 516 365 529 q 315 471 322 503 q 308 369 308 439 l 308 0 l 85 0 l 85 792 l 3 792 l 3 956 l 85 956 l 85 1032 l 308 1032 l 308 956 l 476 956 l 476 792 l 308 792 l 308 626 l 319 626 q 399 698 349 676 q 519 719 450 719 z "},"ĥ":{"ha":818,"x_min":-36,"x_max":733,"o":"m 510 374 q 503 482 510 451 q 479 521 497 513 q 413 529 461 529 q 344 516 365 529 q 315 471 322 503 q 308 369 308 439 l 308 0 l 85 0 l 85 1032 l 308 1032 l 308 626 l 319 626 q 399 698 349 676 q 519 719 450 719 q 656 688 610 719 q 718 599 703 657 q 733 443 733 542 l 733 0 l 510 0 l 510 374 m -36 1076 l -36 1086 l 93 1279 l 300 1279 l 432 1086 l 432 1076 l 288 1076 l 196 1188 l 107 1076 l -36 1076 z "},"ḥ":{"ha":818,"x_min":85,"x_max":733,"o":"m 510 374 q 503 482 510 451 q 479 521 497 513 q 413 529 461 529 q 344 516 365 529 q 315 471 322 503 q 308 369 308 439 l 308 0 l 85 0 l 85 1032 l 308 1032 l 308 626 l 319 626 q 399 698 349 676 q 519 719 450 719 q 656 688 610 719 q 718 599 703 657 q 733 443 733 542 l 733 0 l 510 0 l 510 374 m 290 -293 l 290 -86 l 528 -86 l 528 -293 l 290 -293 z "},"i":{"ha":396,"x_min":83,"x_max":313,"o":"m 83 849 l 83 1032 l 313 1032 l 313 849 l 83 849 m 85 0 l 85 708 l 311 708 l 311 0 l 85 0 z "},"ı":{"ha":396,"x_min":85,"x_max":311,"o":"m 85 0 l 85 708 l 311 708 l 311 0 l 85 0 z "},"í":{"ha":396,"x_min":85,"x_max":429,"o":"m 85 0 l 85 708 l 311 708 l 311 0 l 85 0 m 88 829 l 88 836 l 214 1032 l 429 1032 l 429 1025 l 246 829 l 88 829 z "},"ĭ":{"ha":396,"x_min":-14,"x_max":408,"o":"m 85 0 l 85 708 l 311 708 l 311 0 l 85 0 m 408 1032 q 393 919 408 963 q 331 849 378 875 q 196 824 285 824 q 61 849 107 824 q 1 919 15 875 q -14 1032 -14 963 l 108 1032 q 113 983 108 1000 q 135 956 117 967 q 196 946 154 946 q 256 956 238 946 q 280 983 275 967 q 285 1032 285 1000 l 408 1032 z "},"ǐ":{"ha":396,"x_min":-36,"x_max":432,"o":"m 85 0 l 85 708 l 311 708 l 311 0 l 85 0 m 93 829 l -36 1022 l -36 1032 l 107 1032 l 199 921 l 288 1032 l 432 1032 l 432 1022 l 300 829 l 93 829 z "},"î":{"ha":396,"x_min":-36,"x_max":432,"o":"m 85 0 l 85 708 l 311 708 l 311 0 l 85 0 m -36 829 l -36 839 l 93 1032 l 300 1032 l 432 839 l 432 829 l 288 829 l 196 940 l 107 829 l -36 829 z "},"ȉ":{"ha":396,"x_min":-140,"x_max":410,"o":"m 85 0 l 85 708 l 311 708 l 311 0 l 85 0 m 147 846 l 15 846 l -140 1011 l -140 1017 l 38 1017 l 147 853 l 147 846 m 410 846 l 279 846 l 125 1011 l 125 1017 l 303 1017 l 410 853 l 410 846 z "},"ï":{"ha":396,"x_min":-36,"x_max":432,"o":"m 85 0 l 85 708 l 311 708 l 311 0 l 85 0 m -36 860 l -36 1014 l 146 1014 l 146 860 l -36 860 m 250 860 l 250 1014 l 432 1014 l 432 860 l 250 860 z "},"ị":{"ha":396,"x_min":83,"x_max":326,"o":"m 83 849 l 83 1032 l 313 1032 l 313 849 l 83 849 m 85 0 l 85 708 l 311 708 l 311 0 l 85 0 m 89 -293 l 89 -86 l 326 -86 l 326 -293 l 89 -293 z "},"ì":{"ha":396,"x_min":-32,"x_max":311,"o":"m 85 0 l 85 708 l 311 708 l 311 0 l 85 0 m 151 829 l -32 1025 l -32 1032 l 183 1032 l 310 836 l 310 829 l 151 829 z "},"ỉ":{"ha":396,"x_min":8,"x_max":385,"o":"m 85 0 l 85 708 l 311 708 l 311 0 l 85 0 m 101 853 q 114 917 101 900 q 168 946 126 935 l 193 953 q 234 969 225 961 q 243 994 243 976 q 226 1028 243 1022 q 153 1035 210 1035 q 8 1028 74 1035 l 8 1132 q 94 1142 43 1138 q 188 1146 144 1146 q 297 1138 257 1146 q 361 1101 338 1131 q 385 1010 385 1071 q 374 947 385 969 q 344 914 364 925 q 286 893 324 903 l 265 886 q 227 871 235 878 q 219 846 219 864 l 101 846 l 101 853 z "},"ȋ":{"ha":396,"x_min":-14,"x_max":408,"o":"m 85 0 l 85 708 l 311 708 l 311 0 l 85 0 m -14 832 q 1 945 -14 901 q 63 1015 17 989 q 199 1040 110 1040 q 333 1015 288 1040 q 394 945 379 989 q 408 832 408 901 l 286 832 q 282 881 286 864 q 259 908 278 897 q 199 918 240 918 q 138 908 157 918 q 115 881 119 897 q 110 832 110 864 l -14 832 z "},"ĳ":{"ha":792,"x_min":83,"x_max":708,"o":"m 83 849 l 83 1032 l 313 1032 l 313 849 l 83 849 m 85 0 l 85 708 l 311 708 l 311 0 l 85 0 m 479 849 l 479 1032 l 708 1032 l 708 849 l 479 849 m 367 -117 q 443 -110 419 -117 q 474 -88 467 -103 q 481 -44 481 -74 l 481 708 l 707 708 l 707 6 q 680 -184 707 -126 q 585 -260 653 -242 q 367 -278 518 -278 l 367 -117 z "},"ī":{"ha":396,"x_min":7,"x_max":389,"o":"m 85 0 l 85 708 l 311 708 l 311 0 l 85 0 m 7 847 l 7 1032 l 389 1032 l 389 847 l 7 847 z "},"į":{"ha":396,"x_min":42,"x_max":311,"o":"m 289 1014 l 289 860 l 106 860 l 106 1014 l 289 1014 m 311 0 q 250 -47 276 -15 q 224 -110 224 -79 q 286 -154 224 -154 q 311 -153 303 -154 l 311 -268 l 275 -269 q 217 -272 233 -272 q 42 -157 42 -272 q 126 0 42 -78 l 85 0 l 85 708 l 311 708 l 311 0 z "},"ĩ":{"ha":396,"x_min":-75,"x_max":467,"o":"m 85 0 l 85 708 l 311 708 l 311 0 l 85 0 m 467 1032 q 460 917 467 957 q 426 856 453 878 q 339 833 399 833 q 267 840 303 833 q 176 858 231 846 q 72 876 99 876 q 43 865 49 876 q 38 817 38 854 l -75 817 q -68 933 -75 893 q -33 994 -61 972 q 54 1017 -6 1017 q 129 1010 92 1017 q 217 990 167 1003 q 265 980 229 988 q 321 972 300 972 q 350 983 344 972 q 356 1032 356 994 l 467 1032 z "},"j":{"ha":396,"x_min":-29,"x_max":313,"o":"m 83 849 l 83 1032 l 313 1032 l 313 849 l 83 849 m -29 -117 q 47 -110 24 -117 q 78 -88 71 -103 q 85 -44 85 -74 l 85 708 l 311 708 l 311 6 q 284 -184 311 -126 q 190 -260 257 -242 q -29 -278 122 -278 l -29 -117 z "},"ȷ":{"ha":396,"x_min":-29,"x_max":311,"o":"m -29 -117 q 47 -110 24 -117 q 78 -88 71 -103 q 85 -44 85 -74 l 85 708 l 311 708 l 311 6 q 284 -184 311 -126 q 190 -260 257 -242 q -29 -278 122 -278 l -29 -117 z "},"ĵ":{"ha":396,"x_min":-36,"x_max":432,"o":"m -29 -117 q 47 -110 24 -117 q 78 -88 71 -103 q 85 -44 85 -74 l 85 708 l 311 708 l 311 6 q 284 -184 311 -126 q 190 -260 257 -242 q -29 -278 122 -278 l -29 -117 m -36 829 l -36 839 l 93 1032 l 300 1032 l 432 839 l 432 829 l 288 829 l 196 940 l 107 829 l -36 829 z "},"k":{"ha":793,"x_min":85,"x_max":776,"o":"m 528 0 l 350 265 l 308 265 l 308 0 l 85 0 l 85 1032 l 308 1032 l 308 440 l 350 440 l 533 708 l 772 708 l 533 371 l 776 0 l 528 0 z "},"ķ":{"ha":793,"x_min":85,"x_max":776,"o":"m 528 0 l 350 265 l 308 265 l 308 0 l 85 0 l 85 1032 l 308 1032 l 308 440 l 350 440 l 533 708 l 772 708 l 533 371 l 776 0 l 528 0 m 279 -315 q 355 -305 338 -315 q 372 -262 372 -294 l 372 -247 l 289 -247 l 289 -82 l 514 -82 l 514 -193 q 498 -324 514 -282 q 433 -384 482 -367 q 279 -401 385 -401 l 279 -315 z "},"ĸ":{"ha":793,"x_min":85,"x_max":776,"o":"m 528 0 l 350 265 l 308 265 l 308 0 l 85 0 l 85 708 l 308 708 l 308 440 l 350 440 l 533 708 l 772 708 l 533 371 l 776 0 l 528 0 z "},"l":{"ha":396,"x_min":85,"x_max":311,"o":"m 85 0 l 85 1032 l 311 1032 l 311 0 l 85 0 z "},"ĺ":{"ha":396,"x_min":85,"x_max":453,"o":"m 85 0 l 85 1032 l 311 1032 l 311 0 l 85 0 m 111 1076 l 111 1083 l 238 1279 l 453 1279 l 453 1272 l 269 1076 l 111 1076 z "},"ľ":{"ha":483,"x_min":85,"x_max":569,"o":"m 85 0 l 85 1032 l 311 1032 l 311 0 l 85 0 m 353 594 l 371 879 l 371 956 l 569 956 l 569 879 l 504 594 l 353 594 z "},"ļ":{"ha":396,"x_min":79,"x_max":314,"o":"m 85 0 l 85 1032 l 311 1032 l 311 0 l 85 0 m 79 -315 q 155 -305 138 -315 q 172 -262 172 -294 l 172 -247 l 89 -247 l 89 -82 l 314 -82 l 314 -193 q 298 -324 314 -282 q 233 -384 282 -367 q 79 -401 185 -401 l 79 -315 z "},"ŀ":{"ha":531,"x_min":85,"x_max":575,"o":"m 85 0 l 85 1032 l 311 1032 l 311 0 l 85 0 m 358 313 l 358 519 l 575 519 l 575 313 l 358 313 z "},"ǉ":{"ha":792,"x_min":85,"x_max":708,"o":"m 85 0 l 85 1032 l 311 1032 l 311 0 l 85 0 m 479 849 l 479 1032 l 708 1032 l 708 849 l 479 849 m 367 -117 q 443 -110 419 -117 q 474 -88 467 -103 q 481 -44 481 -74 l 481 708 l 707 708 l 707 6 q 680 -184 707 -126 q 585 -260 653 -242 q 367 -278 518 -278 l 367 -117 z "},"ł":{"ha":422,"x_min":22,"x_max":400,"o":"m 97 0 l 97 403 l 22 375 l 22 540 l 97 567 l 97 1032 l 324 1032 l 324 647 l 400 675 l 400 510 l 324 482 l 324 0 l 97 0 z "},"m":{"ha":1203,"x_min":85,"x_max":1118,"o":"m 894 374 q 889 481 894 450 q 867 521 883 513 q 807 529 850 529 q 744 517 763 529 q 719 472 725 504 q 713 369 713 440 l 713 0 l 490 0 l 490 374 q 485 481 490 450 q 463 521 479 513 q 403 529 446 529 q 340 516 360 529 q 315 472 321 503 q 308 369 308 440 l 308 0 l 85 0 l 85 708 l 297 708 l 303 624 l 314 624 q 511 719 368 719 q 636 697 593 719 q 699 624 679 674 l 711 624 q 911 719 765 719 q 1042 688 997 719 q 1102 599 1086 657 q 1118 443 1118 540 l 1118 0 l 894 0 l 894 374 z "},"n":{"ha":818,"x_min":85,"x_max":733,"o":"m 510 374 q 503 482 510 451 q 479 521 497 513 q 413 529 461 529 q 344 516 365 529 q 315 471 322 503 q 308 369 308 439 l 308 0 l 85 0 l 85 708 l 297 708 l 303 624 l 315 624 q 519 719 369 719 q 656 688 610 719 q 718 599 703 657 q 733 443 733 542 l 733 0 l 510 0 l 510 374 z "},"ń":{"ha":818,"x_min":85,"x_max":733,"o":"m 510 374 q 503 482 510 451 q 479 521 497 513 q 413 529 461 529 q 344 516 365 529 q 315 471 322 503 q 308 369 308 439 l 308 0 l 85 0 l 85 708 l 297 708 l 303 624 l 315 624 q 519 719 369 719 q 656 688 610 719 q 718 599 703 657 q 733 443 733 542 l 733 0 l 510 0 l 510 374 m 324 829 l 324 836 l 450 1032 l 665 1032 l 665 1025 l 482 829 l 324 829 z "},"ŉ":{"ha":1006,"x_min":24,"x_max":919,"o":"m 24 767 q 83 774 64 767 q 110 800 103 782 q 117 856 117 818 l 117 876 l 33 876 l 33 1032 l 258 1032 l 258 925 q 242 771 258 821 q 178 701 226 721 q 24 681 129 681 l 24 767 m 696 374 q 690 482 696 451 q 665 521 683 513 q 599 529 647 529 q 530 516 551 529 q 501 471 508 503 q 494 369 494 439 l 494 0 l 271 0 l 271 708 l 483 708 l 489 624 l 501 624 q 706 719 556 719 q 842 688 796 719 q 904 599 889 657 q 919 443 919 542 l 919 0 l 696 0 l 696 374 z "},"ň":{"ha":818,"x_min":85,"x_max":733,"o":"m 510 374 q 503 482 510 451 q 479 521 497 513 q 413 529 461 529 q 344 516 365 529 q 315 471 322 503 q 308 369 308 439 l 308 0 l 85 0 l 85 708 l 297 708 l 303 624 l 315 624 q 519 719 369 719 q 656 688 610 719 q 718 599 703 657 q 733 443 733 542 l 733 0 l 510 0 l 510 374 m 306 829 l 176 1022 l 176 1032 l 319 1032 l 411 921 l 500 1032 l 644 1032 l 644 1022 l 513 829 l 306 829 z "},"ņ":{"ha":818,"x_min":85,"x_max":733,"o":"m 510 374 q 503 482 510 451 q 479 521 497 513 q 413 529 461 529 q 344 516 365 529 q 315 471 322 503 q 308 369 308 439 l 308 0 l 85 0 l 85 708 l 297 708 l 303 624 l 315 624 q 519 719 369 719 q 656 688 610 719 q 718 599 703 657 q 733 443 733 542 l 733 0 l 510 0 l 510 374 m 292 -315 q 367 -305 350 -315 q 385 -262 385 -294 l 385 -247 l 301 -247 l 301 -82 l 526 -82 l 526 -193 q 510 -324 526 -282 q 446 -384 494 -367 q 292 -401 397 -401 l 292 -315 z "},"ṅ":{"ha":818,"x_min":85,"x_max":733,"o":"m 510 374 q 503 482 510 451 q 479 521 497 513 q 413 529 461 529 q 344 516 365 529 q 315 471 322 503 q 308 369 308 439 l 308 0 l 85 0 l 85 708 l 297 708 l 303 624 l 315 624 q 519 719 369 719 q 656 688 610 719 q 718 599 703 657 q 733 443 733 542 l 733 0 l 510 0 l 510 374 m 318 860 l 318 1014 l 500 1014 l 500 860 l 318 860 z "},"ŋ":{"ha":818,"x_min":85,"x_max":733,"o":"m 519 719 q 656 688 610 719 q 718 599 703 657 q 733 443 733 542 l 733 6 q 707 -184 733 -126 q 613 -260 681 -242 q 396 -278 546 -278 l 396 -117 q 472 -110 449 -117 q 503 -88 496 -103 q 510 -44 510 -74 l 510 374 q 503 482 510 451 q 479 521 497 513 q 413 529 461 529 q 344 516 365 529 q 315 471 322 503 q 308 369 308 439 l 308 0 l 85 0 l 85 708 l 297 708 l 303 624 l 315 624 q 519 719 369 719 z "},"ɲ":{"ha":818,"x_min":-29,"x_max":733,"o":"m -29 -117 q 47 -110 24 -117 q 78 -88 71 -103 q 85 -44 85 -74 l 85 708 l 297 708 l 303 624 l 315 624 q 519 719 369 719 q 656 688 610 719 q 718 599 703 657 q 733 443 733 542 l 733 0 l 510 0 l 510 374 q 503 482 510 451 q 479 521 497 513 q 413 529 461 529 q 344 516 365 529 q 315 471 322 503 q 308 369 308 439 l 308 6 q 282 -184 308 -126 q 188 -260 256 -242 q -29 -278 121 -278 l -29 -117 z "},"ǌ":{"ha":1214,"x_min":85,"x_max":1131,"o":"m 510 374 q 503 482 510 451 q 479 521 497 513 q 413 529 461 529 q 344 516 365 529 q 315 471 322 503 q 308 369 308 439 l 308 0 l 85 0 l 85 708 l 297 708 l 303 624 l 315 624 q 519 719 369 719 q 656 688 610 719 q 718 599 703 657 q 733 443 733 542 l 733 0 l 510 0 l 510 374 m 901 849 l 901 1032 l 1131 1032 l 1131 849 l 901 849 m 789 -117 q 865 -110 842 -117 q 896 -88 889 -103 q 903 -44 903 -74 l 903 708 l 1129 708 l 1129 6 q 1102 -184 1129 -126 q 1008 -260 1075 -242 q 789 -278 940 -278 l 789 -117 z "},"ñ":{"ha":818,"x_min":85,"x_max":733,"o":"m 510 374 q 503 482 510 451 q 479 521 497 513 q 413 529 461 529 q 344 516 365 529 q 315 471 322 503 q 308 369 308 439 l 308 0 l 85 0 l 85 708 l 297 708 l 303 624 l 315 624 q 519 719 369 719 q 656 688 610 719 q 718 599 703 657 q 733 443 733 542 l 733 0 l 510 0 l 510 374 m 683 1032 q 676 917 683 957 q 642 856 669 878 q 556 833 615 833 q 483 840 519 833 q 393 858 447 846 q 289 876 315 876 q 260 865 265 876 q 254 817 254 854 l 142 817 q 149 933 142 893 q 183 994 156 972 q 271 1017 211 1017 q 346 1010 308 1017 q 433 990 383 1003 q 481 980 446 988 q 538 972 517 972 q 567 983 561 972 q 572 1032 572 994 l 683 1032 z "},"o":{"ha":792,"x_min":61,"x_max":731,"o":"m 396 -11 q 168 20 238 -11 q 80 123 99 51 q 61 354 61 194 q 80 586 61 515 q 168 688 99 657 q 396 719 238 719 q 624 688 554 719 q 712 586 693 657 q 731 354 731 515 q 712 123 731 194 q 624 20 693 51 q 396 -11 554 -11 m 396 163 q 476 174 454 163 q 502 221 497 186 q 507 354 507 256 q 502 489 507 454 q 476 535 497 524 q 396 546 454 546 q 316 535 338 546 q 290 489 294 524 q 285 354 285 454 q 290 221 285 256 q 316 174 294 186 q 396 163 338 163 z "},"ó":{"ha":792,"x_min":61,"x_max":731,"o":"m 396 -11 q 168 20 238 -11 q 80 123 99 51 q 61 354 61 194 q 80 586 61 515 q 168 688 99 657 q 396 719 238 719 q 624 688 554 719 q 712 586 693 657 q 731 354 731 515 q 712 123 731 194 q 624 20 693 51 q 396 -11 554 -11 m 396 163 q 476 174 454 163 q 502 221 497 186 q 507 354 507 256 q 502 489 507 454 q 476 535 497 524 q 396 546 454 546 q 316 535 338 546 q 290 489 294 524 q 285 354 285 454 q 290 221 285 256 q 316 174 294 186 q 396 163 338 163 m 304 829 l 304 836 l 431 1032 l 646 1032 l 646 1025 l 463 829 l 304 829 z "},"ŏ":{"ha":792,"x_min":61,"x_max":731,"o":"m 396 -11 q 168 20 238 -11 q 80 123 99 51 q 61 354 61 194 q 80 586 61 515 q 168 688 99 657 q 396 719 238 719 q 624 688 554 719 q 712 586 693 657 q 731 354 731 515 q 712 123 731 194 q 624 20 693 51 q 396 -11 554 -11 m 396 163 q 476 174 454 163 q 502 221 497 186 q 507 354 507 256 q 502 489 507 454 q 476 535 497 524 q 396 546 454 546 q 316 535 338 546 q 290 489 294 524 q 285 354 285 454 q 290 221 285 256 q 316 174 294 186 q 396 163 338 163 m 607 1032 q 592 919 607 963 q 530 849 576 875 q 394 824 483 824 q 260 849 306 824 q 199 919 214 875 q 185 1032 185 963 l 307 1032 q 311 983 307 1000 q 334 956 315 967 q 394 946 353 946 q 455 956 436 946 q 478 983 474 967 q 483 1032 483 1000 l 607 1032 z "},"ǒ":{"ha":792,"x_min":61,"x_max":731,"o":"m 396 -11 q 168 20 238 -11 q 80 123 99 51 q 61 354 61 194 q 80 586 61 515 q 168 688 99 657 q 396 719 238 719 q 624 688 554 719 q 712 586 693 657 q 731 354 731 515 q 712 123 731 194 q 624 20 693 51 q 396 -11 554 -11 m 396 163 q 476 174 454 163 q 502 221 497 186 q 507 354 507 256 q 502 489 507 454 q 476 535 497 524 q 396 546 454 546 q 316 535 338 546 q 290 489 294 524 q 285 354 285 454 q 290 221 285 256 q 316 174 294 186 q 396 163 338 163 m 292 829 l 163 1022 l 163 1032 l 306 1032 l 397 921 l 486 1032 l 631 1032 l 631 1022 l 499 829 l 292 829 z "},"ô":{"ha":792,"x_min":61,"x_max":731,"o":"m 396 -11 q 168 20 238 -11 q 80 123 99 51 q 61 354 61 194 q 80 586 61 515 q 168 688 99 657 q 396 719 238 719 q 624 688 554 719 q 712 586 693 657 q 731 354 731 515 q 712 123 731 194 q 624 20 693 51 q 396 -11 554 -11 m 396 163 q 476 174 454 163 q 502 221 497 186 q 507 354 507 256 q 502 489 507 454 q 476 535 497 524 q 396 546 454 546 q 316 535 338 546 q 290 489 294 524 q 285 354 285 454 q 290 221 285 256 q 316 174 294 186 q 396 163 338 163 m 164 829 l 164 839 l 293 1032 l 500 1032 l 632 839 l 632 829 l 488 829 l 396 940 l 307 829 l 164 829 z "},"ố":{"ha":792,"x_min":61,"x_max":754,"o":"m 396 -11 q 168 20 238 -11 q 80 123 99 51 q 61 354 61 194 q 80 586 61 515 q 168 688 99 657 q 396 719 238 719 q 624 688 554 719 q 712 586 693 657 q 731 354 731 515 q 712 123 731 194 q 624 20 693 51 q 396 -11 554 -11 m 396 163 q 476 174 454 163 q 502 221 497 186 q 507 354 507 256 q 502 489 507 454 q 476 535 497 524 q 396 546 454 546 q 316 535 338 546 q 290 489 294 524 q 285 354 285 454 q 290 221 285 256 q 316 174 294 186 q 396 163 338 163 m 160 829 l 160 839 l 289 1032 l 496 1032 l 628 839 l 628 829 l 483 829 l 392 940 l 303 829 l 160 829 m 413 1069 l 413 1076 l 539 1272 l 754 1272 l 754 1265 l 571 1069 l 413 1069 z "},"ộ":{"ha":792,"x_min":61,"x_max":731,"o":"m 396 -11 q 168 20 238 -11 q 80 123 99 51 q 61 354 61 194 q 80 586 61 515 q 168 688 99 657 q 396 719 238 719 q 624 688 554 719 q 712 586 693 657 q 731 354 731 515 q 712 123 731 194 q 624 20 693 51 q 396 -11 554 -11 m 396 163 q 476 174 454 163 q 502 221 497 186 q 507 354 507 256 q 502 489 507 454 q 476 535 497 524 q 396 546 454 546 q 316 535 338 546 q 290 489 294 524 q 285 354 285 454 q 290 221 285 256 q 316 174 294 186 q 396 163 338 163 m 276 -293 l 276 -86 l 514 -86 l 514 -293 l 276 -293 m 163 829 l 163 839 l 292 1032 l 499 1032 l 631 839 l 631 829 l 486 829 l 394 940 l 306 829 l 163 829 z "},"ồ":{"ha":792,"x_min":61,"x_max":731,"o":"m 396 -11 q 168 20 238 -11 q 80 123 99 51 q 61 354 61 194 q 80 586 61 515 q 168 688 99 657 q 396 719 238 719 q 624 688 554 719 q 712 586 693 657 q 731 354 731 515 q 712 123 731 194 q 624 20 693 51 q 396 -11 554 -11 m 396 163 q 476 174 454 163 q 502 221 497 186 q 507 354 507 256 q 502 489 507 454 q 476 535 497 524 q 396 546 454 546 q 316 535 338 546 q 290 489 294 524 q 285 354 285 454 q 290 221 285 256 q 316 174 294 186 q 396 163 338 163 m 154 829 l 154 839 l 283 1032 l 490 1032 l 622 839 l 622 829 l 478 829 l 386 940 l 297 829 l 154 829 m 472 1069 l 289 1265 l 289 1272 l 504 1272 l 631 1076 l 631 1069 l 472 1069 z "},"ổ":{"ha":792,"x_min":61,"x_max":738,"o":"m 396 -11 q 168 20 238 -11 q 80 123 99 51 q 61 354 61 194 q 80 586 61 515 q 168 688 99 657 q 396 719 238 719 q 624 688 554 719 q 712 586 693 657 q 731 354 731 515 q 712 123 731 194 q 624 20 693 51 q 396 -11 554 -11 m 396 163 q 476 174 454 163 q 502 221 497 186 q 507 354 507 256 q 502 489 507 454 q 476 535 497 524 q 396 546 454 546 q 316 535 338 546 q 290 489 294 524 q 285 354 285 454 q 290 221 285 256 q 316 174 294 186 q 396 163 338 163 m 163 829 l 163 839 l 292 1032 l 499 1032 l 631 839 l 631 829 l 486 829 l 394 940 l 306 829 l 163 829 m 454 1065 q 467 1130 454 1113 q 521 1158 479 1147 l 546 1165 q 587 1181 578 1174 q 596 1207 596 1189 q 579 1241 596 1235 q 506 1247 563 1247 q 361 1240 426 1247 l 361 1344 q 447 1354 396 1350 q 540 1358 497 1358 q 650 1351 610 1358 q 714 1313 690 1343 q 738 1222 738 1283 q 727 1160 738 1182 q 697 1126 717 1138 q 639 1106 676 1115 l 618 1099 q 580 1083 588 1090 q 572 1058 572 1076 l 454 1058 l 454 1065 z "},"ỗ":{"ha":792,"x_min":61,"x_max":731,"o":"m 396 -11 q 168 20 238 -11 q 80 123 99 51 q 61 354 61 194 q 80 586 61 515 q 168 688 99 657 q 396 719 238 719 q 624 688 554 719 q 712 586 693 657 q 731 354 731 515 q 712 123 731 194 q 624 20 693 51 q 396 -11 554 -11 m 396 163 q 476 174 454 163 q 502 221 497 186 q 507 354 507 256 q 502 489 507 454 q 476 535 497 524 q 396 546 454 546 q 316 535 338 546 q 290 489 294 524 q 285 354 285 454 q 290 221 285 256 q 316 174 294 186 q 396 163 338 163 m 160 829 l 160 839 l 289 1032 l 496 1032 l 628 839 l 628 829 l 483 829 l 392 940 l 303 829 l 160 829 m 665 1272 q 658 1158 665 1197 q 624 1096 651 1118 q 538 1074 597 1074 q 465 1080 501 1074 q 375 1099 429 1086 q 271 1117 297 1117 q 242 1106 247 1117 q 236 1057 236 1094 l 124 1057 q 131 1173 124 1133 q 165 1235 138 1213 q 253 1257 193 1257 q 328 1250 290 1257 q 415 1231 365 1243 q 463 1220 428 1228 q 519 1213 499 1213 q 549 1224 543 1213 q 554 1272 554 1235 l 665 1272 z "},"ȍ":{"ha":792,"x_min":58,"x_max":731,"o":"m 396 -11 q 168 20 238 -11 q 80 123 99 51 q 61 354 61 194 q 80 586 61 515 q 168 688 99 657 q 396 719 238 719 q 624 688 554 719 q 712 586 693 657 q 731 354 731 515 q 712 123 731 194 q 624 20 693 51 q 396 -11 554 -11 m 396 163 q 476 174 454 163 q 502 221 497 186 q 507 354 507 256 q 502 489 507 454 q 476 535 497 524 q 396 546 454 546 q 316 535 338 546 q 290 489 294 524 q 285 354 285 454 q 290 221 285 256 q 316 174 294 186 q 396 163 338 163 m 346 846 l 214 846 l 58 1011 l 58 1017 l 236 1017 l 346 853 l 346 846 m 608 846 l 478 846 l 324 1011 l 324 1017 l 501 1017 l 608 853 l 608 846 z "},"ö":{"ha":792,"x_min":61,"x_max":731,"o":"m 396 -11 q 168 20 238 -11 q 80 123 99 51 q 61 354 61 194 q 80 586 61 515 q 168 688 99 657 q 396 719 238 719 q 624 688 554 719 q 712 586 693 657 q 731 354 731 515 q 712 123 731 194 q 624 20 693 51 q 396 -11 554 -11 m 396 163 q 476 174 454 163 q 502 221 497 186 q 507 354 507 256 q 502 489 507 454 q 476 535 497 524 q 396 546 454 546 q 316 535 338 546 q 290 489 294 524 q 285 354 285 454 q 290 221 285 256 q 316 174 294 186 q 396 163 338 163 m 164 860 l 164 1014 l 346 1014 l 346 860 l 164 860 m 450 860 l 450 1014 l 632 1014 l 632 860 l 450 860 z "},"ọ":{"ha":792,"x_min":61,"x_max":731,"o":"m 396 -11 q 168 20 238 -11 q 80 123 99 51 q 61 354 61 194 q 80 586 61 515 q 168 688 99 657 q 396 719 238 719 q 624 688 554 719 q 712 586 693 657 q 731 354 731 515 q 712 123 731 194 q 624 20 693 51 q 396 -11 554 -11 m 396 163 q 476 174 454 163 q 502 221 497 186 q 507 354 507 256 q 502 489 507 454 q 476 535 497 524 q 396 546 454 546 q 316 535 338 546 q 290 489 294 524 q 285 354 285 454 q 290 221 285 256 q 316 174 294 186 q 396 163 338 163 m 276 -293 l 276 -86 l 514 -86 l 514 -293 l 276 -293 z "},"ò":{"ha":792,"x_min":61,"x_max":731,"o":"m 396 -11 q 168 20 238 -11 q 80 123 99 51 q 61 354 61 194 q 80 586 61 515 q 168 688 99 657 q 396 719 238 719 q 624 688 554 719 q 712 586 693 657 q 731 354 731 515 q 712 123 731 194 q 624 20 693 51 q 396 -11 554 -11 m 396 163 q 476 174 454 163 q 502 221 497 186 q 507 354 507 256 q 502 489 507 454 q 476 535 497 524 q 396 546 454 546 q 316 535 338 546 q 290 489 294 524 q 285 354 285 454 q 290 221 285 256 q 316 174 294 186 q 396 163 338 163 m 329 829 l 146 1025 l 146 1032 l 361 1032 l 488 836 l 488 829 l 329 829 z "},"ỏ":{"ha":792,"x_min":61,"x_max":731,"o":"m 396 -11 q 168 20 238 -11 q 80 123 99 51 q 61 354 61 194 q 80 586 61 515 q 168 688 99 657 q 396 719 238 719 q 624 688 554 719 q 712 586 693 657 q 731 354 731 515 q 712 123 731 194 q 624 20 693 51 q 396 -11 554 -11 m 396 163 q 476 174 454 163 q 502 221 497 186 q 507 354 507 256 q 502 489 507 454 q 476 535 497 524 q 396 546 454 546 q 316 535 338 546 q 290 489 294 524 q 285 354 285 454 q 290 221 285 256 q 316 174 294 186 q 396 163 338 163 m 300 853 q 313 917 300 900 q 367 946 325 935 l 392 953 q 433 969 424 961 q 442 994 442 976 q 425 1028 442 1022 q 351 1035 408 1035 q 207 1028 272 1035 l 207 1132 q 292 1142 242 1138 q 386 1146 343 1146 q 496 1138 456 1146 q 560 1101 536 1131 q 583 1010 583 1071 q 573 947 583 969 q 542 914 563 925 q 485 893 522 903 l 464 886 q 426 871 433 878 q 418 846 418 864 l 300 846 l 300 853 z "},"ơ":{"ha":792,"x_min":61,"x_max":825,"o":"m 825 833 l 825 810 q 815 712 825 747 q 777 656 806 676 q 693 629 749 636 q 724 528 717 590 q 731 354 731 465 q 712 123 731 194 q 624 20 693 51 q 396 -11 554 -11 q 168 20 238 -11 q 80 123 99 51 q 61 354 61 194 q 80 586 61 515 q 168 688 99 657 q 396 719 238 719 q 556 708 500 719 l 590 708 q 649 717 631 708 q 673 743 667 725 q 679 799 679 761 l 679 833 l 825 833 m 396 163 q 476 174 454 163 q 502 221 497 186 q 507 354 507 256 q 502 489 507 454 q 476 535 497 524 q 396 546 454 546 q 316 535 338 546 q 290 489 294 524 q 285 354 285 454 q 290 221 285 256 q 316 174 294 186 q 396 163 338 163 z "},"ớ":{"ha":792,"x_min":61,"x_max":825,"o":"m 825 833 l 825 810 q 815 712 825 747 q 777 656 806 676 q 693 629 749 636 q 724 528 717 590 q 731 354 731 465 q 712 123 731 194 q 624 20 693 51 q 396 -11 554 -11 q 168 20 238 -11 q 80 123 99 51 q 61 354 61 194 q 80 586 61 515 q 168 688 99 657 q 396 719 238 719 q 556 708 500 719 l 590 708 q 649 717 631 708 q 673 743 667 725 q 679 799 679 761 l 679 833 l 825 833 m 396 163 q 476 174 454 163 q 502 221 497 186 q 507 354 507 256 q 502 489 507 454 q 476 535 497 524 q 396 546 454 546 q 316 535 338 546 q 290 489 294 524 q 285 354 285 454 q 290 221 285 256 q 316 174 294 186 q 396 163 338 163 m 310 829 l 310 836 l 436 1032 l 651 1032 l 651 1025 l 468 829 l 310 829 z "},"ợ":{"ha":792,"x_min":61,"x_max":825,"o":"m 825 833 l 825 810 q 815 712 825 747 q 777 656 806 676 q 693 629 749 636 q 724 528 717 590 q 731 354 731 465 q 712 123 731 194 q 624 20 693 51 q 396 -11 554 -11 q 168 20 238 -11 q 80 123 99 51 q 61 354 61 194 q 80 586 61 515 q 168 688 99 657 q 396 719 238 719 q 556 708 500 719 l 590 708 q 649 717 631 708 q 673 743 667 725 q 679 799 679 761 l 679 833 l 825 833 m 396 163 q 476 174 454 163 q 502 221 497 186 q 507 354 507 256 q 502 489 507 454 q 476 535 497 524 q 396 546 454 546 q 316 535 338 546 q 290 489 294 524 q 285 354 285 454 q 290 221 285 256 q 316 174 294 186 q 396 163 338 163 m 276 -293 l 276 -86 l 514 -86 l 514 -293 l 276 -293 z "},"ờ":{"ha":792,"x_min":61,"x_max":825,"o":"m 825 833 l 825 810 q 815 712 825 747 q 777 656 806 676 q 693 629 749 636 q 724 528 717 590 q 731 354 731 465 q 712 123 731 194 q 624 20 693 51 q 396 -11 554 -11 q 168 20 238 -11 q 80 123 99 51 q 61 354 61 194 q 80 586 61 515 q 168 688 99 657 q 396 719 238 719 q 556 708 500 719 l 590 708 q 649 717 631 708 q 673 743 667 725 q 679 799 679 761 l 679 833 l 825 833 m 396 163 q 476 174 454 163 q 502 221 497 186 q 507 354 507 256 q 502 489 507 454 q 476 535 497 524 q 396 546 454 546 q 316 535 338 546 q 290 489 294 524 q 285 354 285 454 q 290 221 285 256 q 316 174 294 186 q 396 163 338 163 m 326 829 l 143 1025 l 143 1032 l 358 1032 l 485 836 l 485 829 l 326 829 z "},"ở":{"ha":792,"x_min":61,"x_max":825,"o":"m 825 833 l 825 810 q 815 712 825 747 q 777 656 806 676 q 693 629 749 636 q 724 528 717 590 q 731 354 731 465 q 712 123 731 194 q 624 20 693 51 q 396 -11 554 -11 q 168 20 238 -11 q 80 123 99 51 q 61 354 61 194 q 80 586 61 515 q 168 688 99 657 q 396 719 238 719 q 556 708 500 719 l 590 708 q 649 717 631 708 q 673 743 667 725 q 679 799 679 761 l 679 833 l 825 833 m 396 163 q 476 174 454 163 q 502 221 497 186 q 507 354 507 256 q 502 489 507 454 q 476 535 497 524 q 396 546 454 546 q 316 535 338 546 q 290 489 294 524 q 285 354 285 454 q 290 221 285 256 q 316 174 294 186 q 396 163 338 163 m 300 853 q 313 917 300 900 q 367 946 325 935 l 392 953 q 433 969 424 961 q 442 994 442 976 q 425 1028 442 1022 q 351 1035 408 1035 q 207 1028 272 1035 l 207 1132 q 292 1142 242 1138 q 386 1146 343 1146 q 496 1138 456 1146 q 560 1101 536 1131 q 583 1010 583 1071 q 573 947 583 969 q 542 914 563 925 q 485 893 522 903 l 464 886 q 426 871 433 878 q 418 846 418 864 l 300 846 l 300 853 z "},"ỡ":{"ha":792,"x_min":61,"x_max":825,"o":"m 825 833 l 825 810 q 815 712 825 747 q 777 656 806 676 q 693 629 749 636 q 724 528 717 590 q 731 354 731 465 q 712 123 731 194 q 624 20 693 51 q 396 -11 554 -11 q 168 20 238 -11 q 80 123 99 51 q 61 354 61 194 q 80 586 61 515 q 168 688 99 657 q 396 719 238 719 q 556 708 500 719 l 590 708 q 649 717 631 708 q 673 743 667 725 q 679 799 679 761 l 679 833 l 825 833 m 396 163 q 476 174 454 163 q 502 221 497 186 q 507 354 507 256 q 502 489 507 454 q 476 535 497 524 q 396 546 454 546 q 316 535 338 546 q 290 489 294 524 q 285 354 285 454 q 290 221 285 256 q 316 174 294 186 q 396 163 338 163 m 665 1032 q 658 917 665 957 q 624 856 651 878 q 538 833 597 833 q 465 840 501 833 q 375 858 429 846 q 271 876 297 876 q 242 865 247 876 q 236 817 236 854 l 124 817 q 131 933 124 893 q 165 994 138 972 q 253 1017 193 1017 q 328 1010 290 1017 q 415 990 365 1003 q 463 980 428 988 q 519 972 499 972 q 549 983 543 972 q 554 1032 554 994 l 665 1032 z "},"ő":{"ha":792,"x_min":61,"x_max":751,"o":"m 396 -11 q 168 20 238 -11 q 80 123 99 51 q 61 354 61 194 q 80 586 61 515 q 168 688 99 657 q 396 719 238 719 q 624 688 554 719 q 712 586 693 657 q 731 354 731 515 q 712 123 731 194 q 624 20 693 51 q 396 -11 554 -11 m 396 163 q 476 174 454 163 q 502 221 497 186 q 507 354 507 256 q 502 489 507 454 q 476 535 497 524 q 396 546 454 546 q 316 535 338 546 q 290 489 294 524 q 285 354 285 454 q 290 221 285 256 q 316 174 294 186 q 396 163 338 163 m 201 846 l 201 853 l 308 1017 l 486 1017 l 486 1011 l 332 846 l 201 846 m 464 846 l 464 853 l 574 1017 l 751 1017 l 751 1011 l 596 846 l 464 846 z "},"ȏ":{"ha":792,"x_min":61,"x_max":731,"o":"m 396 -11 q 168 20 238 -11 q 80 123 99 51 q 61 354 61 194 q 80 586 61 515 q 168 688 99 657 q 396 719 238 719 q 624 688 554 719 q 712 586 693 657 q 731 354 731 515 q 712 123 731 194 q 624 20 693 51 q 396 -11 554 -11 m 396 163 q 476 174 454 163 q 502 221 497 186 q 507 354 507 256 q 502 489 507 454 q 476 535 497 524 q 396 546 454 546 q 316 535 338 546 q 290 489 294 524 q 285 354 285 454 q 290 221 285 256 q 316 174 294 186 q 396 163 338 163 m 185 832 q 200 945 185 901 q 262 1015 215 989 q 397 1040 308 1040 q 532 1015 486 1040 q 592 945 578 989 q 607 832 607 901 l 485 832 q 481 881 485 864 q 458 908 476 897 q 397 918 439 918 q 337 908 356 918 q 313 881 318 897 q 308 832 308 864 l 185 832 z "},"ō":{"ha":792,"x_min":61,"x_max":731,"o":"m 396 -11 q 168 20 238 -11 q 80 123 99 51 q 61 354 61 194 q 80 586 61 515 q 168 688 99 657 q 396 719 238 719 q 624 688 554 719 q 712 586 693 657 q 731 354 731 515 q 712 123 731 194 q 624 20 693 51 q 396 -11 554 -11 m 396 163 q 476 174 454 163 q 502 221 497 186 q 507 354 507 256 q 502 489 507 454 q 476 535 497 524 q 396 546 454 546 q 316 535 338 546 q 290 489 294 524 q 285 354 285 454 q 290 221 285 256 q 316 174 294 186 q 396 163 338 163 m 206 847 l 206 1032 l 588 1032 l 588 847 l 206 847 z "},"ǫ":{"ha":792,"x_min":61,"x_max":731,"o":"m 396 719 q 624 688 554 719 q 712 586 693 657 q 731 354 731 515 q 725 190 731 249 q 699 90 719 131 q 638 26 679 50 q 569 -29 600 7 q 539 -107 539 -65 q 553 -142 539 -129 q 603 -154 567 -154 q 628 -153 622 -154 l 628 -268 q 533 -272 586 -272 q 357 -156 357 -272 q 418 -11 357 -86 l 392 -11 q 166 21 233 -10 q 80 122 99 51 q 61 354 61 193 q 80 586 61 515 q 168 688 99 657 q 396 719 238 719 m 285 354 q 290 221 285 256 q 316 174 294 186 q 396 163 338 163 q 476 174 454 163 q 502 221 497 186 q 507 354 507 256 q 502 489 507 454 q 476 535 497 524 q 396 546 454 546 q 316 535 338 546 q 290 489 294 524 q 285 354 285 454 z "},"ø":{"ha":792,"x_min":61,"x_max":731,"o":"m 131 43 q 74 147 86 79 q 61 354 61 215 q 80 586 61 515 q 168 688 99 657 q 396 719 238 719 q 513 713 457 719 l 553 785 l 731 785 l 663 665 q 718 560 706 629 q 731 354 731 492 q 712 123 731 194 q 624 20 693 51 q 396 -11 554 -11 q 281 -6 324 -11 l 239 -76 l 63 -76 l 131 43 m 396 163 q 476 174 454 163 q 502 221 497 186 q 507 354 507 256 q 502 489 507 454 q 476 535 497 524 q 396 546 454 546 q 316 535 338 546 q 290 489 294 524 q 285 354 285 454 q 290 221 285 256 q 316 174 294 186 q 396 163 338 163 z "},"ǿ":{"ha":792,"x_min":61,"x_max":731,"o":"m 131 43 q 74 147 86 79 q 61 354 61 215 q 80 586 61 515 q 168 688 99 657 q 396 719 238 719 q 513 713 457 719 l 553 785 l 731 785 l 663 665 q 718 560 706 629 q 731 354 731 492 q 712 123 731 194 q 624 20 693 51 q 396 -11 554 -11 q 281 -6 324 -11 l 239 -76 l 63 -76 l 131 43 m 396 163 q 476 174 454 163 q 502 221 497 186 q 507 354 507 256 q 502 489 507 454 q 476 535 497 524 q 396 546 454 546 q 316 535 338 546 q 290 489 294 524 q 285 354 285 454 q 290 221 285 256 q 316 174 294 186 q 396 163 338 163 m 310 829 l 310 836 l 436 1032 l 651 1032 l 651 1025 l 468 829 l 310 829 z "},"õ":{"ha":792,"x_min":61,"x_max":731,"o":"m 396 -11 q 168 20 238 -11 q 80 123 99 51 q 61 354 61 194 q 80 586 61 515 q 168 688 99 657 q 396 719 238 719 q 624 688 554 719 q 712 586 693 657 q 731 354 731 515 q 712 123 731 194 q 624 20 693 51 q 396 -11 554 -11 m 396 163 q 476 174 454 163 q 502 221 497 186 q 507 354 507 256 q 502 489 507 454 q 476 535 497 524 q 396 546 454 546 q 316 535 338 546 q 290 489 294 524 q 285 354 285 454 q 290 221 285 256 q 316 174 294 186 q 396 163 338 163 m 669 1032 q 663 917 669 957 q 628 856 656 878 q 542 833 601 833 q 469 840 506 833 q 379 858 433 846 q 275 876 301 876 q 246 865 251 876 q 240 817 240 854 l 128 817 q 135 933 128 893 q 169 994 142 972 q 257 1017 197 1017 q 332 1010 294 1017 q 419 990 369 1003 q 467 980 432 988 q 524 972 503 972 q 553 983 547 972 q 558 1032 558 994 l 669 1032 z "},"œ":{"ha":1222,"x_min":61,"x_max":1156,"o":"m 1156 299 l 732 299 q 742 206 732 232 q 788 171 753 179 q 917 163 824 163 q 1128 174 1017 163 l 1128 14 q 1015 -4 1086 3 q 874 -11 943 -11 q 726 3 786 -11 q 624 49 665 18 q 392 -11 554 -11 q 167 20 235 -11 q 80 123 99 51 q 61 354 61 194 q 80 586 61 515 q 167 688 99 657 q 392 719 235 719 q 530 705 474 719 q 622 660 586 690 q 853 719 699 719 q 1062 684 999 719 q 1140 578 1125 649 q 1156 353 1156 508 l 1156 299 m 842 557 q 769 547 792 557 q 740 509 747 538 q 732 414 733 481 l 946 414 q 938 510 946 481 q 908 548 929 539 q 842 557 888 557 m 396 163 q 476 174 454 163 q 502 221 497 186 q 507 354 507 256 q 502 489 507 454 q 476 535 497 524 q 396 546 454 546 q 316 535 338 546 q 290 489 294 524 q 285 354 285 454 q 290 221 285 256 q 316 174 294 186 q 396 163 338 163 z "},"p":{"ha":808,"x_min":85,"x_max":747,"o":"m 85 708 l 297 708 l 303 624 l 315 624 q 396 699 344 678 q 515 719 447 719 q 651 688 601 719 q 724 577 700 656 q 747 357 747 499 q 724 135 747 214 q 652 23 701 56 q 517 -10 603 -10 q 398 8 446 -10 q 319 75 350 25 l 308 75 l 308 -276 l 85 -276 l 85 708 m 415 179 q 490 189 469 179 q 517 233 511 199 q 524 354 524 267 q 517 476 524 442 q 490 520 511 510 q 415 531 469 531 q 353 521 374 531 q 322 486 332 511 q 311 436 314 467 q 308 354 308 406 q 310 272 308 301 q 321 225 313 242 q 351 189 331 199 q 415 179 372 179 z "},"þ":{"ha":808,"x_min":85,"x_max":747,"o":"m 85 1032 l 308 1032 l 308 625 l 321 625 q 399 700 350 681 q 515 719 447 719 q 651 688 601 719 q 724 577 700 656 q 747 357 747 499 q 724 135 747 214 q 652 23 701 56 q 517 -10 603 -10 q 398 8 446 -10 q 319 75 350 25 l 308 75 l 308 -262 l 85 -262 l 85 1032 m 415 179 q 490 189 469 179 q 517 233 511 199 q 524 354 524 267 q 517 476 524 442 q 490 520 511 510 q 415 531 469 531 q 354 521 375 531 q 324 485 333 511 q 311 435 314 465 q 308 354 308 406 q 310 275 308 304 q 319 229 313 246 q 351 190 329 200 q 415 179 372 179 z "},"q":{"ha":810,"x_min":61,"x_max":724,"o":"m 500 75 l 490 75 q 410 8 458 25 q 292 -10 363 -10 q 156 23 206 -10 q 84 134 107 56 q 61 356 61 213 q 85 576 61 497 q 158 688 108 656 q 293 719 207 719 q 414 699 363 719 q 494 624 465 678 l 506 624 l 511 708 l 724 708 l 724 -276 l 500 -276 l 500 75 m 393 179 q 456 188 435 179 q 488 222 478 197 q 498 269 496 240 q 500 354 500 299 q 497 442 500 411 q 483 494 494 474 q 451 522 472 514 q 393 531 431 531 q 319 520 340 531 q 292 476 299 510 q 285 354 285 442 q 292 233 285 268 q 319 189 299 199 q 393 179 340 179 z "},"r":{"ha":567,"x_min":85,"x_max":536,"o":"m 85 708 l 297 708 l 303 588 l 315 588 q 394 690 342 661 q 536 719 447 719 l 536 508 q 398 487 446 508 q 329 413 350 465 q 308 263 308 360 l 308 0 l 85 0 l 85 708 z "},"ŕ":{"ha":567,"x_min":85,"x_max":539,"o":"m 85 708 l 297 708 l 303 588 l 315 588 q 394 690 342 661 q 536 719 447 719 l 536 508 q 398 487 446 508 q 329 413 350 465 q 308 263 308 360 l 308 0 l 85 0 l 85 708 m 197 829 l 197 836 l 324 1032 l 539 1032 l 539 1025 l 356 829 l 197 829 z "},"ř":{"ha":567,"x_min":50,"x_max":536,"o":"m 85 708 l 297 708 l 303 588 l 315 588 q 394 690 342 661 q 536 719 447 719 l 536 508 q 398 487 446 508 q 329 413 350 465 q 308 263 308 360 l 308 0 l 85 0 l 85 708 m 179 829 l 50 1022 l 50 1032 l 193 1032 l 285 921 l 374 1032 l 518 1032 l 518 1022 l 386 829 l 179 829 z "},"ŗ":{"ha":567,"x_min":79,"x_max":536,"o":"m 85 708 l 297 708 l 303 588 l 315 588 q 394 690 342 661 q 536 719 447 719 l 536 508 q 398 487 446 508 q 329 413 350 465 q 308 263 308 360 l 308 0 l 85 0 l 85 708 m 79 -315 q 155 -305 138 -315 q 172 -262 172 -294 l 172 -247 l 89 -247 l 89 -82 l 314 -82 l 314 -193 q 298 -324 314 -282 q 233 -384 282 -367 q 79 -401 185 -401 l 79 -315 z "},"ȑ":{"ha":567,"x_min":-54,"x_max":536,"o":"m 85 708 l 297 708 l 303 588 l 315 588 q 394 690 342 661 q 536 719 447 719 l 536 508 q 398 487 446 508 q 329 413 350 465 q 308 263 308 360 l 308 0 l 85 0 l 85 708 m 233 846 l 101 846 l -54 1011 l -54 1017 l 124 1017 l 233 853 l 233 846 m 496 846 l 365 846 l 211 1011 l 211 1017 l 389 1017 l 496 853 l 496 846 z "},"ṛ":{"ha":567,"x_min":78,"x_max":536,"o":"m 85 708 l 297 708 l 303 588 l 315 588 q 394 690 342 661 q 536 719 447 719 l 536 508 q 398 487 446 508 q 329 413 350 465 q 308 263 308 360 l 308 0 l 85 0 l 85 708 m 78 -293 l 78 -86 l 315 -86 l 315 -293 l 78 -293 z "},"ȓ":{"ha":567,"x_min":72,"x_max":536,"o":"m 85 708 l 297 708 l 303 588 l 315 588 q 394 690 342 661 q 536 719 447 719 l 536 508 q 398 487 446 508 q 329 413 350 465 q 308 263 308 360 l 308 0 l 85 0 l 85 708 m 72 832 q 88 945 72 901 q 149 1015 103 989 q 285 1040 196 1040 q 419 1015 374 1040 q 480 945 465 989 q 494 832 494 901 l 372 832 q 368 881 372 864 q 345 908 364 897 q 285 918 326 918 q 224 908 243 918 q 201 881 206 897 q 196 832 196 864 l 72 832 z "},"s":{"ha":692,"x_min":53,"x_max":639,"o":"m 360 -11 q 213 -6 293 -11 q 74 8 133 0 l 74 169 q 293 158 193 158 q 388 163 360 158 q 423 177 415 167 q 431 213 431 188 q 426 242 431 233 q 407 256 421 251 q 358 264 393 260 l 193 285 q 81 348 110 296 q 53 504 53 400 q 89 644 53 597 q 187 705 125 690 q 347 719 249 719 q 486 714 415 719 q 600 699 557 708 l 600 539 q 396 550 486 550 q 308 547 335 550 q 272 534 282 544 q 261 500 261 524 q 265 471 261 479 q 281 458 268 463 q 325 450 294 454 l 489 431 q 574 406 543 424 q 622 345 604 389 q 639 218 639 301 q 605 69 639 119 q 513 4 571 19 q 360 -11 454 -11 z "},"ś":{"ha":692,"x_min":53,"x_max":639,"o":"m 360 -11 q 213 -6 293 -11 q 74 8 133 0 l 74 169 q 293 158 193 158 q 388 163 360 158 q 423 177 415 167 q 431 213 431 188 q 426 242 431 233 q 407 256 421 251 q 358 264 393 260 l 193 285 q 81 348 110 296 q 53 504 53 400 q 89 644 53 597 q 187 705 125 690 q 347 719 249 719 q 486 714 415 719 q 600 699 557 708 l 600 539 q 396 550 486 550 q 308 547 335 550 q 272 534 282 544 q 261 500 261 524 q 265 471 261 479 q 281 458 268 463 q 325 450 294 454 l 489 431 q 574 406 543 424 q 622 345 604 389 q 639 218 639 301 q 605 69 639 119 q 513 4 571 19 q 360 -11 454 -11 m 260 829 l 260 836 l 386 1032 l 601 1032 l 601 1025 l 418 829 l 260 829 z "},"ꞌ":{"ha":290,"x_min":46,"x_max":244,"o":"m 46 372 l 46 1032 l 244 1032 l 244 717 l 197 372 l 46 372 z "},"š":{"ha":692,"x_min":53,"x_max":639,"o":"m 360 -11 q 213 -6 293 -11 q 74 8 133 0 l 74 169 q 293 158 193 158 q 388 163 360 158 q 423 177 415 167 q 431 213 431 188 q 426 242 431 233 q 407 256 421 251 q 358 264 393 260 l 193 285 q 81 348 110 296 q 53 504 53 400 q 89 644 53 597 q 187 705 125 690 q 347 719 249 719 q 486 714 415 719 q 600 699 557 708 l 600 539 q 396 550 486 550 q 308 547 335 550 q 272 534 282 544 q 261 500 261 524 q 265 471 261 479 q 281 458 268 463 q 325 450 294 454 l 489 431 q 574 406 543 424 q 622 345 604 389 q 639 218 639 301 q 605 69 639 119 q 513 4 571 19 q 360 -11 454 -11 m 246 829 l 117 1022 l 117 1032 l 260 1032 l 351 921 l 440 1032 l 585 1032 l 585 1022 l 453 829 l 246 829 z "},"ş":{"ha":692,"x_min":53,"x_max":639,"o":"m 639 218 q 613 82 639 131 q 538 14 586 33 q 418 -10 490 -6 l 371 -264 l 168 -264 l 168 -257 l 265 -8 q 74 8 171 -4 l 74 169 q 293 158 193 158 q 388 163 360 158 q 423 177 415 167 q 431 213 431 188 q 426 242 431 233 q 407 256 421 251 q 358 264 393 260 l 193 285 q 81 348 110 296 q 53 504 53 400 q 89 644 53 597 q 187 705 125 690 q 347 719 249 719 q 486 714 415 719 q 600 699 557 708 l 600 539 q 396 550 486 550 q 308 547 335 550 q 272 534 282 544 q 261 500 261 524 q 265 471 261 479 q 281 458 268 463 q 325 450 294 454 l 489 431 q 574 406 543 424 q 622 345 604 389 q 639 218 639 301 z "},"ŝ":{"ha":692,"x_min":53,"x_max":639,"o":"m 360 -11 q 213 -6 293 -11 q 74 8 133 0 l 74 169 q 293 158 193 158 q 388 163 360 158 q 423 177 415 167 q 431 213 431 188 q 426 242 431 233 q 407 256 421 251 q 358 264 393 260 l 193 285 q 81 348 110 296 q 53 504 53 400 q 89 644 53 597 q 187 705 125 690 q 347 719 249 719 q 486 714 415 719 q 600 699 557 708 l 600 539 q 396 550 486 550 q 308 547 335 550 q 272 534 282 544 q 261 500 261 524 q 265 471 261 479 q 281 458 268 463 q 325 450 294 454 l 489 431 q 574 406 543 424 q 622 345 604 389 q 639 218 639 301 q 605 69 639 119 q 513 4 571 19 q 360 -11 454 -11 m 113 829 l 113 839 l 242 1032 l 449 1032 l 581 839 l 581 829 l 436 829 l 344 940 l 256 829 l 113 829 z "},"ș":{"ha":692,"x_min":53,"x_max":639,"o":"m 360 -11 q 213 -6 293 -11 q 74 8 133 0 l 74 169 q 293 158 193 158 q 388 163 360 158 q 423 177 415 167 q 431 213 431 188 q 426 242 431 233 q 407 256 421 251 q 358 264 393 260 l 193 285 q 81 348 110 296 q 53 504 53 400 q 89 644 53 597 q 187 705 125 690 q 347 719 249 719 q 486 714 415 719 q 600 699 557 708 l 600 539 q 396 550 486 550 q 308 547 335 550 q 272 534 282 544 q 261 500 261 524 q 265 471 261 479 q 281 458 268 463 q 325 450 294 454 l 489 431 q 574 406 543 424 q 622 345 604 389 q 639 218 639 301 q 605 69 639 119 q 513 4 571 19 q 360 -11 454 -11 m 228 -315 q 303 -305 286 -315 q 321 -262 321 -294 l 321 -247 l 238 -247 l 238 -82 l 463 -82 l 463 -193 q 447 -324 463 -282 q 382 -384 431 -367 q 228 -401 333 -401 l 228 -315 z "},"ṣ":{"ha":692,"x_min":53,"x_max":639,"o":"m 360 -11 q 213 -6 293 -11 q 74 8 133 0 l 74 169 q 293 158 193 158 q 388 163 360 158 q 423 177 415 167 q 431 213 431 188 q 426 242 431 233 q 407 256 421 251 q 358 264 393 260 l 193 285 q 81 348 110 296 q 53 504 53 400 q 89 644 53 597 q 187 705 125 690 q 347 719 249 719 q 486 714 415 719 q 600 699 557 708 l 600 539 q 396 550 486 550 q 308 547 335 550 q 272 534 282 544 q 261 500 261 524 q 265 471 261 479 q 281 458 268 463 q 325 450 294 454 l 489 431 q 574 406 543 424 q 622 345 604 389 q 639 218 639 301 q 605 69 639 119 q 513 4 571 19 q 360 -11 454 -11 m 226 -293 l 226 -86 l 464 -86 l 464 -293 l 226 -293 z "},"ß":{"ha":836,"x_min":85,"x_max":774,"o":"m 393 0 l 393 174 l 425 174 q 509 182 486 174 q 540 224 532 190 q 549 342 549 257 q 539 453 549 419 q 505 497 529 488 q 425 507 481 507 l 403 507 l 403 681 l 425 681 q 496 688 474 681 q 526 713 518 694 q 535 769 535 731 q 525 833 535 813 q 493 861 515 854 q 424 868 471 868 q 353 860 376 868 q 319 828 331 853 q 308 749 308 803 l 308 0 l 85 0 l 85 772 q 116 926 85 867 q 222 1013 147 985 q 425 1042 296 1042 q 630 1014 556 1042 q 733 933 704 986 q 763 799 763 881 q 724 663 763 710 q 601 603 685 617 l 601 597 q 732 521 690 581 q 774 331 774 461 q 749 133 774 201 q 656 32 725 64 q 453 0 588 0 l 393 0 z "},"ſ":{"ha":557,"x_min":28,"x_max":550,"o":"m 157 535 l 28 535 l 28 708 l 157 708 l 157 753 q 188 947 157 890 q 292 1017 218 1003 q 550 1031 367 1031 l 550 872 q 435 867 468 872 q 392 844 403 861 q 382 785 382 828 l 382 0 l 157 0 l 157 535 z "},"t":{"ha":564,"x_min":28,"x_max":535,"o":"m 156 0 l 156 535 l 28 535 l 28 708 l 156 708 l 156 914 l 382 914 l 382 708 l 535 708 l 535 535 l 382 535 l 382 0 l 156 0 z "},"ŧ":{"ha":564,"x_min":28,"x_max":535,"o":"m 535 535 l 382 535 l 382 393 l 535 393 l 535 229 l 382 229 l 382 0 l 156 0 l 156 229 l 29 229 l 29 393 l 156 393 l 156 535 l 28 535 l 28 708 l 156 708 l 156 914 l 382 914 l 382 708 l 535 708 l 535 535 z "},"ť":{"ha":700,"x_min":28,"x_max":794,"o":"m 156 0 l 156 535 l 28 535 l 28 708 l 156 708 l 156 914 l 382 914 l 382 708 l 535 708 l 535 535 l 382 535 l 382 0 l 156 0 m 578 594 l 596 879 l 596 956 l 794 956 l 794 879 l 729 594 l 578 594 z "},"ţ":{"ha":564,"x_min":28,"x_max":535,"o":"m 382 708 l 535 708 l 535 535 l 382 535 l 382 0 l 343 0 l 294 -264 l 92 -264 l 92 -257 l 193 0 l 156 0 l 156 535 l 28 535 l 28 708 l 156 708 l 156 914 l 382 914 l 382 708 z "},"ț":{"ha":564,"x_min":28,"x_max":535,"o":"m 156 0 l 156 535 l 28 535 l 28 708 l 156 708 l 156 914 l 382 914 l 382 708 l 535 708 l 535 535 l 382 535 l 382 0 l 156 0 m 151 -315 q 227 -305 210 -315 q 244 -262 244 -294 l 244 -247 l 161 -247 l 161 -82 l 386 -82 l 386 -193 q 370 -324 386 -282 q 306 -384 354 -367 q 151 -401 257 -401 l 151 -315 z "},"ṭ":{"ha":564,"x_min":28,"x_max":535,"o":"m 156 0 l 156 535 l 28 535 l 28 708 l 156 708 l 156 914 l 382 914 l 382 708 l 535 708 l 535 535 l 382 535 l 382 0 l 156 0 m 150 -293 l 150 -86 l 388 -86 l 388 -293 l 150 -293 z "},"u":{"ha":818,"x_min":85,"x_max":733,"o":"m 515 85 l 503 85 q 299 -11 449 -11 q 162 20 208 -11 q 100 109 115 51 q 85 265 85 167 l 85 708 l 308 708 l 308 335 q 315 226 308 257 q 339 188 321 196 q 406 179 357 179 q 474 192 453 179 q 503 238 496 206 q 510 339 510 269 l 510 708 l 733 708 l 733 0 l 521 0 l 515 85 z "},"ú":{"ha":818,"x_min":85,"x_max":733,"o":"m 515 85 l 503 85 q 299 -11 449 -11 q 162 20 208 -11 q 100 109 115 51 q 85 265 85 167 l 85 708 l 308 708 l 308 335 q 315 226 308 257 q 339 188 321 196 q 406 179 357 179 q 474 192 453 179 q 503 238 496 206 q 510 339 510 269 l 510 708 l 733 708 l 733 0 l 521 0 l 515 85 m 333 829 l 333 836 l 460 1032 l 675 1032 l 675 1025 l 492 829 l 333 829 z "},"ŭ":{"ha":818,"x_min":85,"x_max":733,"o":"m 515 85 l 503 85 q 299 -11 449 -11 q 162 20 208 -11 q 100 109 115 51 q 85 265 85 167 l 85 708 l 308 708 l 308 335 q 315 226 308 257 q 339 188 321 196 q 406 179 357 179 q 474 192 453 179 q 503 238 496 206 q 510 339 510 269 l 510 708 l 733 708 l 733 0 l 521 0 l 515 85 m 621 1032 q 606 919 621 963 q 544 849 590 875 q 408 824 497 824 q 274 849 319 824 q 213 919 228 875 q 199 1032 199 963 l 321 1032 q 325 983 321 1000 q 348 956 329 967 q 408 946 367 946 q 469 956 450 946 q 492 983 488 967 q 497 1032 497 1000 l 621 1032 z "},"ǔ":{"ha":818,"x_min":85,"x_max":733,"o":"m 515 85 l 503 85 q 299 -11 449 -11 q 162 20 208 -11 q 100 109 115 51 q 85 265 85 167 l 85 708 l 308 708 l 308 335 q 315 226 308 257 q 339 188 321 196 q 406 179 357 179 q 474 192 453 179 q 503 238 496 206 q 510 339 510 269 l 510 708 l 733 708 l 733 0 l 521 0 l 515 85 m 306 829 l 176 1022 l 176 1032 l 319 1032 l 411 921 l 500 1032 l 644 1032 l 644 1022 l 513 829 l 306 829 z "},"û":{"ha":818,"x_min":85,"x_max":733,"o":"m 515 85 l 503 85 q 299 -11 449 -11 q 162 20 208 -11 q 100 109 115 51 q 85 265 85 167 l 85 708 l 308 708 l 308 335 q 315 226 308 257 q 339 188 321 196 q 406 179 357 179 q 474 192 453 179 q 503 238 496 206 q 510 339 510 269 l 510 708 l 733 708 l 733 0 l 521 0 l 515 85 m 175 829 l 175 839 l 304 1032 l 511 1032 l 643 839 l 643 829 l 499 829 l 407 940 l 318 829 l 175 829 z "},"ȕ":{"ha":818,"x_min":72,"x_max":733,"o":"m 515 85 l 503 85 q 299 -11 449 -11 q 162 20 208 -11 q 100 109 115 51 q 85 265 85 167 l 85 708 l 308 708 l 308 335 q 315 226 308 257 q 339 188 321 196 q 406 179 357 179 q 474 192 453 179 q 503 238 496 206 q 510 339 510 269 l 510 708 l 733 708 l 733 0 l 521 0 l 515 85 m 360 846 l 228 846 l 72 1011 l 72 1017 l 250 1017 l 360 853 l 360 846 m 622 846 l 492 846 l 338 1011 l 338 1017 l 515 1017 l 622 853 l 622 846 z "},"ü":{"ha":818,"x_min":85,"x_max":733,"o":"m 515 85 l 503 85 q 299 -11 449 -11 q 162 20 208 -11 q 100 109 115 51 q 85 265 85 167 l 85 708 l 308 708 l 308 335 q 315 226 308 257 q 339 188 321 196 q 406 179 357 179 q 474 192 453 179 q 503 238 496 206 q 510 339 510 269 l 510 708 l 733 708 l 733 0 l 521 0 l 515 85 m 175 860 l 175 1014 l 357 1014 l 357 860 l 175 860 m 461 860 l 461 1014 l 643 1014 l 643 860 l 461 860 z "},"ǘ":{"ha":818,"x_min":85,"x_max":733,"o":"m 515 85 l 503 85 q 299 -11 449 -11 q 162 20 208 -11 q 100 109 115 51 q 85 265 85 167 l 85 708 l 308 708 l 308 335 q 315 226 308 257 q 339 188 321 196 q 406 179 357 179 q 474 192 453 179 q 503 238 496 206 q 510 339 510 269 l 510 708 l 733 708 l 733 0 l 521 0 l 515 85 m 175 860 l 175 1014 l 357 1014 l 357 860 l 175 860 m 461 860 l 461 1014 l 643 1014 l 643 860 l 461 860 m 326 1051 l 326 1058 l 453 1254 l 668 1254 l 668 1247 l 485 1051 l 326 1051 z "},"ǚ":{"ha":818,"x_min":85,"x_max":733,"o":"m 515 85 l 503 85 q 299 -11 449 -11 q 162 20 208 -11 q 100 109 115 51 q 85 265 85 167 l 85 708 l 308 708 l 308 335 q 315 226 308 257 q 339 188 321 196 q 406 179 357 179 q 474 192 453 179 q 503 238 496 206 q 510 339 510 269 l 510 708 l 733 708 l 733 0 l 521 0 l 515 85 m 175 860 l 175 1014 l 357 1014 l 357 860 l 175 860 m 461 860 l 461 1014 l 643 1014 l 643 860 l 461 860 m 308 1051 l 179 1244 l 179 1254 l 322 1254 l 414 1143 l 503 1254 l 647 1254 l 647 1244 l 515 1051 l 308 1051 z "},"ǜ":{"ha":818,"x_min":85,"x_max":733,"o":"m 515 85 l 503 85 q 299 -11 449 -11 q 162 20 208 -11 q 100 109 115 51 q 85 265 85 167 l 85 708 l 308 708 l 308 335 q 315 226 308 257 q 339 188 321 196 q 406 179 357 179 q 474 192 453 179 q 503 238 496 206 q 510 339 510 269 l 510 708 l 733 708 l 733 0 l 521 0 l 515 85 m 175 860 l 175 1014 l 357 1014 l 357 860 l 175 860 m 461 860 l 461 1014 l 643 1014 l 643 860 l 461 860 m 343 1051 l 160 1247 l 160 1254 l 375 1254 l 501 1058 l 501 1051 l 343 1051 z "},"ǖ":{"ha":818,"x_min":85,"x_max":733,"o":"m 515 85 l 503 85 q 299 -11 449 -11 q 162 20 208 -11 q 100 109 115 51 q 85 265 85 167 l 85 708 l 308 708 l 308 335 q 315 226 308 257 q 339 188 321 196 q 406 179 357 179 q 474 192 453 179 q 503 238 496 206 q 510 339 510 269 l 510 708 l 733 708 l 733 0 l 521 0 l 515 85 m 175 860 l 175 1014 l 357 1014 l 357 860 l 175 860 m 461 860 l 461 1014 l 643 1014 l 643 860 l 461 860 m 222 1069 l 222 1254 l 604 1254 l 604 1069 l 222 1069 z "},"ụ":{"ha":818,"x_min":85,"x_max":733,"o":"m 515 85 l 503 85 q 299 -11 449 -11 q 162 20 208 -11 q 100 109 115 51 q 85 265 85 167 l 85 708 l 308 708 l 308 335 q 315 226 308 257 q 339 188 321 196 q 406 179 357 179 q 474 192 453 179 q 503 238 496 206 q 510 339 510 269 l 510 708 l 733 708 l 733 0 l 521 0 l 515 85 m 261 -293 l 261 -86 l 499 -86 l 499 -293 l 261 -293 z "},"ù":{"ha":818,"x_min":85,"x_max":733,"o":"m 515 85 l 503 85 q 299 -11 449 -11 q 162 20 208 -11 q 100 109 115 51 q 85 265 85 167 l 85 708 l 308 708 l 308 335 q 315 226 308 257 q 339 188 321 196 q 406 179 357 179 q 474 192 453 179 q 503 238 496 206 q 510 339 510 269 l 510 708 l 733 708 l 733 0 l 521 0 l 515 85 m 340 829 l 157 1025 l 157 1032 l 372 1032 l 499 836 l 499 829 l 340 829 z "}}}
